<?xml version="1.0" encoding="utf-8"?>
<!-- Generator: Adobe Illustrator 21.0.0, SVG Export Plug-In . SVG Version: 6.00 Build 0)  -->
<svg version="1.1" id="Layer_1" xmlns="http://www.w3.org/2000/svg" xmlns:xlink="http://www.w3.org/1999/xlink" x="0px" y="0px"
	 viewBox="0 0 137.3 181.3" style="enable-background:new 0 0 137.3 181.3;" xml:space="preserve">
<style type="text/css">
	.st0{fill:none;}
</style>
<g>
	<path class="st0" d="M92.9,37.4c-0.2,6.7,5.2,12.3,11.9,12.4c6.5,0.1,12.2-5.3,12.3-12c0.2-6.6-5.3-12.2-11.9-12.3
		C98.4,25.4,93.1,30.6,92.9,37.4z M98.8,35.3c2.9,0,3.5-1.3,3.6-3.9c0-0.9,1.7-1.8,2.6-2.7c0.9,1,2.5,1.9,2.5,2.9
		c0,2.8,1,3.7,3.8,3.6c1.1-0.1,2.3,1,3.5,1.6c0,0.5,0,0.9,0,1.4c-1,0.6-2.1,1.7-3.1,1.7c-3.2-0.2-4.1,1.1-4.1,4.2
		c0,1.1-1.4,3-2.4,3.2c-2.3,0.6-3-1.3-2.8-3.2c0.2-2.7-0.5-4.3-3.6-4.2c-0.7,0-2.1-1.5-2.1-2.3C96.6,36.7,98,35.3,98.8,35.3z"/>
	<path class="st0" d="M31.2,49.8c6.6,0,12.2-5.6,12.2-12.2s-5.6-12.1-12.2-12.1c-6.8,0-12.1,5.3-12.1,12.1
		C19.1,44.3,24.5,49.8,31.2,49.8z M24.8,35.3c4.5-0.2,8.9-0.3,13.4,0c0.8,0,1.6,1.4,2.4,2.2c-0.9,0.8-1.7,2.2-2.7,2.4
		c-2.2,0.4-4.5,0.1-6.7,0.1l0,0c-2.1,0-4.3,0.2-6.3-0.1c-0.9-0.2-2.2-1.5-2.2-2.2C22.7,36.9,24,35.4,24.8,35.3z"/>
	<path class="st0" d="M119.5,103.9c0-3.2-1-4-4.1-4c-31.5,0.1-62.9,0.1-94.4,0c-3.2,0-4.3,0.9-4.3,4.2c0.1,18.1,0.1,36.2,0,54.3
		c0,3.3,1,4.3,4.2,4.2c15.7-0.1,31.5-0.1,47.2-0.1c16,0,32-0.1,48,0.1c2.6,0,3.4-0.7,3.4-3.3C119.3,140.9,119.3,122.4,119.5,103.9z
		 M52,132.9c-1.3,0.7-2.6,1.8-3.9,1.9c-5.5,0.5-5.5,0.4-5.6,5.7c0,2.1-0.4,3.7-3,3.7c-2.5,0-3.2-1.4-3.1-3.6c0-0.7-0.1-1.5,0-2.2
		c0.3-2.5-0.6-3.8-3.3-3.5c-1.1,0.1-2.5,0.4-3.3-0.1c-1.1-0.6-2.4-1.9-2.4-2.9s1.5-2,2.4-3c0.1-0.1,0.5,0,0.7,0
		c5.6-0.4,5.7-0.4,5.9-5.7c0.1-2,0.6-3.4,2.9-3.4c2.5,0,3.3,1.4,3.2,3.6c0,0.7,0.1,1.5,0,2.2c-0.3,2.7,0.9,3.7,3.4,3.4
		c1-0.1,2.1-0.3,3,0.1c1.2,0.6,2.2,1.6,3.3,2.5C52.1,131.9,52,132.4,52,132.9z M107.7,132c-0.3,1.1-1.9,2.7-2.9,2.8
		c-6.1,0.3-12.2,0.3-18.3,0c-1,0-2.7-1.9-2.7-2.9s1.6-2.8,2.7-2.9c3.1-0.4,6.2-0.1,9.3-0.1c3,0,6,0,9,0
		C107,128.8,108.3,130,107.7,132z"/>
	<path d="M132.5,94.6c0-6.3-1.5-7.7-7.8-7.7c-18.9,0-37.7,0-56.6,0l0,0c-18.9,0-37.7,0-56.6,0c-6.7,0-7.8,1.1-7.8,7.9
		c0,24.7,0,49.5,0,74.2c0,6.4,1.2,7.7,7.7,7.7c37.7,0,75.5,0,113.2,0c6.5,0,7.9-1.3,7.9-8C132.6,144.1,132.6,119.4,132.5,94.6z
		 M116,162.7c-16-0.1-32-0.1-48-0.1c-15.7,0-31.5-0.1-47.2,0.1c-3.3,0-4.3-0.9-4.2-4.2c0.2-18.1,0.2-36.2,0-54.3
		c0-3.4,1.1-4.2,4.3-4.2c31.5,0.1,62.9,0.1,94.4,0c3.1,0,4.1,0.8,4.1,4c-0.1,18.5-0.1,37,0,55.4C119.5,162.1,118.6,162.7,116,162.7z
		"/>
	<path d="M25.2,54.4c0.9,0.4,1.6,1.4,2.4,2.1c-0.7,0.6-1.2,1.6-2,1.9c-3,1.1-2.1,2.5-0.6,4.1c1,1,1.9,2.1,3.1,3.5
		c-1.8,0.4-2.9,0.7-4,0.9c-7.8,1.4-10.8,5.3-10.3,13.3c0.2,2.7,1.5,4.3,4.1,4.3c9.4,0.1,18.7,0.1,28.1-0.1c1.4,0,3.7-1.5,4-2.7
		c1.7-6-0.5-14.1-8.3-14.7c-1.9-0.1-3.8-0.6-5.6-0.9C36,65.6,36,65.4,36,65.4c0.4-0.5,0.8-1,1.2-1.4c3.3-3.5,3.2-3.6-0.9-6.1
		c-0.5-0.3-0.5-2.2-0.1-3c0.4-0.7,1.7-0.9,2.6-1.3c6.3-3.3,9.9-8.4,10-15.5C49,30.9,46,25,39.3,22c-3.9-1.7-4.6-4.1-4.3-7.8
		c0.2-2.3,0.7-3.4,3.2-3.4c19.9,0.1,39.7,0,59.6,0.1c0.9,0,2.2,0.2,2.7,0.8c1.7,2.2,0,8.4-2.6,9.5c-7.1,3.3-10.8,8.9-10.7,16.6
		C87.3,45.3,91,50.9,98,53.9c0.7,0.3,1.4,0.6,2,0.9c1.6,0.9,1.9,2.4,0.1,3c-4.6,1.5-2.8,3.3-0.6,5.4c0.7,0.6,1.2,1.4,2.2,2.6
		c-1.5,0.4-2.5,0.8-3.6,1c-8,1.5-10.4,4.6-10.4,12.8c0,3.3,1.4,5,4.6,5c9,0,18,0.1,27-0.1c1.6,0,4.1-1.3,4.5-2.5
		c1.8-6-0.3-14.4-8.4-14.9c-1.9-0.1-3.8-0.5-6.1-0.9c0.7-0.9,1-1.3,1.3-1.7c3.8-3.8,3.8-3.8-0.4-6.5c-0.5-0.3-0.7-2.3-0.2-2.8
		c0.8-0.9,2.2-1.1,3.3-1.7c11.6-6,13.4-23.3,2.2-29.7c-6.2-3.6-7-7.6-6.5-13.4c0.1-1-0.1-2,0-3c0.4-3.4-1-4.6-4.5-4.5
		c-12.6,0-25.2-0.1-37.8-0.1c-11.7,0-23.5,0.1-35.2,0c-3.3,0-4.5,1.1-4.3,4.4c0.2,3.2-0.1,6.5,0.1,9.7c0.1,2.3-0.7,3.4-2.9,4.4
		c-8.9,3.9-12.9,13.3-9.7,22.4C16.3,48.9,20,52.4,25.2,54.4z M105.2,25.5c6.6,0.1,12.1,5.7,11.9,12.3s-5.8,12.1-12.3,12
		c-6.7-0.1-12.1-5.7-11.9-12.4C93.1,30.6,98.4,25.4,105.2,25.5z M31.2,25.5c6.6,0,12.2,5.5,12.2,12.1c0,6.5-5.6,12.1-12.2,12.2
		c-6.6,0-12.1-5.5-12.1-12.2C19.1,30.8,24.4,25.5,31.2,25.5z"/>
	<path d="M45.8,128.8c-2.6,0.3-3.8-0.7-3.4-3.4c0.1-0.7,0-1.5,0-2.2c0.1-2.2-0.6-3.6-3.2-3.6c-2.4,0-2.8,1.4-2.9,3.4
		c-0.2,5.4-0.3,5.4-5.9,5.7c-0.2,0-0.6-0.1-0.7,0c-0.9,1-2.4,2-2.4,3s1.3,2.3,2.4,2.9c0.9,0.5,2.2,0.3,3.3,0.1
		c2.7-0.3,3.6,1,3.3,3.5c-0.1,0.7,0,1.5,0,2.2c-0.1,2.2,0.6,3.6,3.1,3.6c2.6,0,3-1.6,3-3.7c0.1-5.3,0.2-5.2,5.6-5.7
		c1.4-0.1,2.6-1.2,3.9-1.9c0-0.5,0.1-1,0.1-1.6c-1.1-0.8-2.1-1.9-3.3-2.5C48,128.5,46.8,128.7,45.8,128.8z"/>
	<path d="M104.7,128.8c-3,0.1-6,0-9,0c-3.1,0-6.3-0.3-9.3,0.1c-1.1,0.1-2.7,1.9-2.7,2.9s1.7,2.8,2.7,2.9c6.1,0.3,12.2,0.3,18.3,0
		c1.1,0,2.6-1.6,2.9-2.8C108.3,130,107,128.8,104.7,128.8z"/>
	<path d="M24.9,39.9c2.1,0.3,4.2,0.1,6.3,0.1l0,0c2.2,0,4.5,0.3,6.7-0.1c1-0.2,1.8-1.5,2.7-2.4c-0.8-0.8-1.6-2.2-2.4-2.2
		c-4.5-0.2-8.9-0.2-13.4,0c-0.8,0-2.1,1.5-2.1,2.3C22.7,38.4,24,39.7,24.9,39.9z"/>
	<path d="M98.6,39.8c3.1-0.1,3.8,1.5,3.6,4.2c-0.2,2,0.6,3.8,2.8,3.2c1.1-0.3,2.4-2.1,2.4-3.2c0-3,0.9-4.3,4.1-4.2
		c1,0,2.1-1.1,3.1-1.7c0-0.5,0-0.9,0-1.4c-1.2-0.6-2.4-1.7-3.5-1.6c-2.8,0.2-3.7-0.8-3.8-3.6c0-1-1.6-1.9-2.5-2.9
		c-0.9,0.9-2.6,1.8-2.6,2.7c-0.1,2.6-0.7,3.9-3.6,3.9c-0.8,0-2.2,1.4-2.2,2.2C96.5,38.3,97.9,39.8,98.6,39.8z"/>
</g>
</svg>
