<?xml version="1.0" encoding="utf-8"?>
<!-- Generator: Adobe Illustrator 21.0.0, SVG Export Plug-In . SVG Version: 6.00 Build 0)  -->
<svg version="1.1" id="Layer_1" xmlns="http://www.w3.org/2000/svg" xmlns:xlink="http://www.w3.org/1999/xlink" x="0px" y="0px"
	 viewBox="0 0 222.5 215" style="enable-background:new 0 0 222.5 215;" xml:space="preserve">
<g>
	<path d="M76.2,203.8c-0.2-1.9-0.9-3.5,0.6-4.9c0.1-0.1-0.1-0.5-0.2-0.7c-0.8-1.9-1.6-3.9-1.7-6c-0.1-1-0.7-2-0.8-3.1
		c-0.5-3.1-0.8-6.2-1.3-9.3c-0.7-3.9-1.6-7.8-2.2-11.8c-0.7-5.2,0.2-10.4,0.9-15.6c0.1-0.6,0-1.2,0-1.8c-0.6,0.2-0.8,0.4-0.9,0.6
		c-1.2,2.2-2.4,4.5-3.8,6.6c-0.7,1.1-1.9,2-2.9,2.9c-0.7,0.6-1.8,0.7-2.4,1.3c-3.9,3.5-8.4,5.9-13.5,7.3c-1.7,0.4-3.5,0.9-5.1,1.6
		c-2.8,1.1-5.5,2.5-8.3,3.4c-6.2,2.1-12.6,3.9-18.8,6.1c-4.4,1.6-8.9,2.6-13.5,3.2c0,9.3,0,18.6,0,28c25.2,0,50.3,0,75.4,0
		c-0.3-2.9-0.7-5.8-1-8.8C76.6,203.1,76.5,203.3,76.2,203.8z"/>
	<path d="M219.1,187.9c-6.7-2.8-13.4-5.7-20.2-8.4c-8-3.3-16-6.5-24-9.7c-0.6-0.2-1.2-0.4-1.6-0.8c-2.8-2.3-5.6-4.7-8.4-7
		c-1.9-1.6-3.4-3.8-6.1-4.3c-0.2,0-0.4-0.3-0.5-0.5c-1.3-1.8-2.6-3.6-3.9-5.4c-0.4-0.6-0.8-1.2-1.2-1.8c-0.1,0-0.3,0.1-0.4,0.1
		c0,0.9-0.1,1.7,0,2.6c0.2,1.7,0.7,3.4,0.9,5.1c0.8,5.8-0.4,11.4-1.4,17.1c-0.9,4.6-1.8,9.1-2.5,13.7c-0.4,3-0.6,6-2.3,8.7
		c-0.1,0.1-0.1,0.3-0.2,0.7c1.3-0.3,1.3,0.4,1.3,1.3c0,0.5-0.1,1-0.1,1.5c0,1.5-0.4,3.2,0,4.6c0.4,1.6,0.2,2.9-0.2,4.4
		c-0.1,0.6-0.2,1.2-0.3,1.8c23.8,0,47.6,0,71.4,0c0-7.8,0-15.6,0-23.4C219.3,188.1,219.2,188,219.1,187.9z"/>
	<path d="M124.4,208c0.8-1.6,0.1-3-0.8-4.3c-1.5-2.4-2.9-4.9-4.7-7c-1.4-1.7-2.6-3.7-5-4.4c-0.8-0.3-1.6-0.8-2.4-1
		c-0.4-0.1-1.1,0.1-1.4,0.4c-0.9,1-1.7,2-2.5,3c-1.1,1.5-2.2,3-3.4,4.6c6.1,2.6,11.8,5.3,17.1,9c-3.3-1.3-6.6-2.7-9.8-4.2
		c-2.3-1-4.6-2-6.7-3.1c-1-0.5-1.4-0.4-1.9,0.5c-1.8,3.4-3.7,6.8-5.6,10.1c3.3,0,6.6,0,9.9,0c0.7-1.3,1.9-2,3-2.9
		c0.1,0.1,0.2,0.2,0.4,0.4c-0.6,0.8-1.1,1.7-1.7,2.5c5.4,0,10.7,0,16.1,0C124.7,210.4,123.8,209.3,124.4,208z M101.6,209
		c0,0.2-0.8,0.3-1.3,0.4c-0.1-0.1-0.2-0.3-0.2-0.4c0.4-0.8,0.9-1.5,1.3-2.3c0.1,0,0.2,0,0.3,0C101.6,207.5,101.7,208.3,101.6,209z
		 M107.9,205.9c0.5,2.1,0.5,2.1-2.1,1.6c-0.1-1-0.1-1.9-0.2-3.2c0.5,0.1,1.1,0.2,1.8,0.3c0.4,0,0.8,0.1,1.1,0
		c1.5-0.7,2.6-0.5,3.7,0.9C110.8,205.7,109.4,205.8,107.9,205.9z"/>
	<path d="M153,81.2c1.3,3.3,1.9,6.7,2.1,10.3c0.1,1.8,0.1,3.5,0.1,5.3c0,0.2,0.1,0.4,0.2,0.5c0.7,2.8,1.5,5.5,2.4,8.8
		c2.6-3.3,3.3-7.1,5-10.9c0.1,0.8,0.2,1.3,0.4,2c0.3-2,0.7-3.7,0.9-5.4c0.2-1.6,0.3-3.3,0.4-4.9c0.1,0,0.2,0,0.3,0
		c0.1,0.4,0.2,0.8,0.3,1.2c0.6-1.5,1.1-3,1.6-4.4c0.4-1.1,0.9-2.3,1-3.4c0.4-3.6,0.9-7.2,0.8-10.8c-0.1-4.9,1.1-9.9-0.4-14.8
		c-0.8-2.7-1.3-5.6-2.4-8.2c-1.9-4.4-4.3-8.6-6.4-12.9c-0.4-0.9-1-1.7-1.5-2.5c-0.8-1.4-1.6-2.8-2.4-4.2c-0.4-0.7-0.5-1.6-0.9-2.3
		c-1.4-2-2.9-3.9-4.3-5.8c-0.4-0.6-1-1-1.3-1.7c-1.1-2.3-3.3-3.4-5.3-4.6c-1.5-1-3.4-1.4-5.2-2c-1.5-0.5-3-0.9-4.5-1.4
		c-0.2,0-0.4,0.2-0.7,0.3c0.3,0.2,0.4,0.3,0.6,0.3c-0.7,0-1.4-0.3-2-0.3c-0.6,0.1-1.2,0.6-1.8,0.9c-0.3-1,0.1-1.3,0.8-1.6
		c0.5-0.2,0.8-0.7,1.2-1.1c-0.1-0.1-0.2-0.2-0.3-0.3c-0.4,0.3-1.1,1-1.3,0.9c-1-0.5-1.2,0.4-1.7,0.7c-1.1,0.8-2.2,2-3.5,2.3
		c-1,0.3-1.7,0.7-2.5,1.2c-0.3,0.2-0.5,0.6-0.7,0.9c-0.1,0-0.2-0.1-0.3-0.1c0.3-0.8,0.5-1.7,0.8-2.7c-0.1-0.3-0.4-1-0.5-1.6
		c-0.7,1.7-1.5,3.6-2.3,5.5c-0.1,0-0.1-0.1-0.2-0.1c0-0.5-0.1-1-0.1-1.9c-0.5,0.7-0.7,1.1-1.1,1.6c-1.4-2.2-2.7-4.2-4.2-6.4
		c0.1,0.7,0.2,1.1,0.3,1.9c-1.2-0.8-2.3-1.3-2.9-2.2c-0.7-1.1-1.7-1.4-2.8-1.6c-1.2-0.3-2.3-1-3.5-1.1c-2.4-0.2-4.9,0-7.3,0
		c-0.3,0-0.6,0-0.8,0.2c-1.2,0.8-2.2,1.7-3.5,2.3c-2.3,1.1-4.8,1.9-6.9,3.2c-2.1,1.4-4.5,1.9-6.7,3c-0.3,0.2-0.5,0.6-0.5,0.6
		c-0.7,0.4-1.1,0.5-1.6,0.8c-0.4,0.3-0.6,0.7-1,0.9c-2.5,1.4-4.8,2.9-6.4,5.4c-1.1,1.6-2.7,2.9-4.1,4.3c-2.4,2.4-4.8,4.7-7.1,7.2
		c-1,1.1-2,2.3-2.5,3.6c-2.3,5.9-4.4,11.9-6.5,17.9c-0.4,1.1-0.8,2.2-0.9,3.4c-0.3,3.7-0.3,7.3,0.3,11.1c0.8,5.2,0.8,10.4,1.2,15.6
		c0,0.4,0.2,0.8,0.3,1.2c0.3,0.7,0.7,1.4,0.8,2.2c0.1,1.5,0.5,1.8,2,1.1c-0.2,1.7,0.7,2.6,2,3.3c0.2,0.1,0.3,0.5,0.4,0.9
		c0.6,2.6,1.1,5.2,1.7,7.7c0.2,0.7,0.7,1.3,1,2c0.2,0.4,0.4,0.8,0.5,1.3c0.5,1.4,0.9,2.8,1.5,4.2c0.1,0.3,0.8,0.5,1.2,0.5
		c0.3,0,0.6-0.6,0.6-0.9c0-3.3,0.2-6.6,0-9.9c-0.3-3.5-0.8-7,0-10.5c0.4-1.6,1-3.1,1.5-4.7c0.8-2.4,1.6-4.8,2.5-7.2
		c0.8-2.1,1.7-4.2,2.5-6.4c0.2-0.6,0.1-1.3,0.4-1.9c0.7-1.6,0.9-3.5,2.1-4.9c0.1-0.1,0-0.2,0.1-0.3c0.7-1.4,1.2-3,2.2-4.2
		c1.5-1.7,3.5-3,4.8-5c0.1-0.2,0.4-0.2,0.6-0.4c0.6-0.4,1.1-0.8,1.6-1.3c2.2-1.8,4.4-3.5,6.5-5.3c0.8-0.7,1.6-1.4,2.4-2.1
		c1-0.9,1.9-1.8,3.4-1.7c0.3,0,0.7,0,0.9-0.2c1.3-1.5,2.9-1.9,4.1-1.1c1.3-0.6,2.2-1,3.2-1.4c0.2-0.1,0.4,0.2,0.4,0.2
		c1.3-0.6,2.8-1.8,3.7-1.5c2.6,0.9,4.9-0.6,7.3-0.3c2.4,0.3,4.9-0.1,7.4-0.1c0.8,0,1.5,0.3,2.2,0.5c1.8,0.5,3.6,1,5.3,1.7
		c1,0.4,1.9,1.2,2.8,1.9c0.2,0.2,0.4,0.7,0.6,0.7c1.7-0.1,2.4,0.9,2.9,2.3c0.1,0.4,0.5,0.7,0.8,1c1,1.1,2,2.2,2.9,3.3
		c1.4,1.9,2.8,3.8,4.2,5.7c0.1,0.2,0.2,0.4,0.3,0.6c0.1,0.5,0.2,1.1,0.4,1.6c0.3,0.7,0.6,1.5,0.9,2.2c0.9,2.1,1.7,4.2,2.7,6.1
		c1.6,3,3.1,6.1,4.2,9.4C151.2,76.6,152.1,78.9,153,81.2z"/>
	<path d="M136.6,160.7c-1.2,0.3-2.5,0.4-3.5,0.9c-0.9,0.4-2.6,0.4-2.3,2.2c0,0-0.1,0.1-0.3,0.2c-0.2-0.2-0.5-0.4-0.8-0.7
		c-0.1,0.6-0.3,1-0.4,1.5c-0.6-0.5-1.3-1.3-1.6-1.2c-1,0.3-1.8,1.1-2.8,1.7c-0.5-0.7-1.2-0.3-1.9,0.4c-0.8,0.7-1.5,1.1-2.7,0.5
		c-0.6-0.3-2.2-0.2-2.5,0.3c-0.8,1.1-1.1,0.5-1.7,0c-0.2-0.2-0.6-0.2-0.9-0.3c-2.1-0.3-4.3-0.5-6.3-0.8c0.2-2.3-1.2-0.9-1.7-1.5
		c-0.4-0.4-0.9-0.5-1.3-0.7c-0.3-0.1-0.5-0.3-0.8-0.5c0.2-0.2,0.4-0.6,0.6-0.6c1.9-0.1,3.6-0.7,5.1-1.9c0.2-0.2,0.6-0.3,0.9-0.2
		c1.3,0.1,2.5,0.3,3.7,0.5c1.2,0.2,2.4,0.4,3.6,0.5c0.8,0.1,1.5,0,2.3-0.1c0.7,0,1.4,0.4,1.8-0.7c0.3-0.7,1.3-1.1,1.8,0.1
		c1.2-0.8,2.4-1.6,3.6-2.4c-0.8-0.5-1.3-0.8-1.6-1c-2.3,0.1-4.3,1.3-6.5,0.8c-0.2,0-0.5-0.1-0.7-0.1c-2.2,0.2-4.4,0.7-6.7,0.7
		c-2.5,0-5.1,1.1-7.5-0.6c-0.1-0.1-0.3-0.1-0.4,0c-1.8,0.7-3.2-0.5-4.8-0.8c-0.7-0.2-1.4-0.3-2.1-0.4c-0.6,0-1.1-0.6-1.7-0.7
		c-2.8-0.5-4.4-2.8-6.5-4.3c-2.2-1.5-3.8-3.9-6.5-5c-1.5-0.6-2.9-1.8-4.4-2.5c-0.7-0.3-1.8-0.5-2.3-0.2c-0.5,0.4-0.4,1.5-0.7,2.2
		c-0.2,0.6-0.5,1.2-0.8,1.8c-0.3,0.7-0.9,1.2-1.1,1.9c-0.3,1.3-0.2,2.6-0.6,3.8c-0.5,1.5-0.5,2.9,0.4,4.2c0.4,0.6,0.7,1.2,1.1,1.8
		c1.5,2.1,3,4.3,5.3,5.7c-0.5-0.6-1-1.2-1.5-1.8c0.1-0.1,0.1-0.1,0.2-0.2c3.5,1.9,7,3.8,10.4,5.7c0.1-0.1,0.1-0.2,0.2-0.4
		c-0.4-0.3-0.8-0.6-1.3-0.9c0.9-0.9,1.8-0.8,2.6-0.3c0.4,0.2,0.7,0.6,1.1,0.6c2.2-0.1,4.1,1.1,6.3,1.3c2.8,0.2,5.5,1.2,8.4,1.3
		c3,0,6.1,0.3,9.1,0.3c0.7,0,1.4-0.6,2.1-0.8c0.4-0.1,0.7-0.3,1.1-0.4c0.4-0.1,0.9,0,1-0.2c1.2-1.5,3-1.2,4.5-1.8
		c2.3-1,4.6-1.8,6.9-2.9c1.3-0.6,2.6-1.4,3.8-2.2c0.6-0.4,1.1-0.9,1.7-1.3c-0.1-0.2-0.2-0.3-0.3-0.5
		C137,160.6,136.8,160.6,136.6,160.7z"/>
	<path d="M70.8,91.3c1.2,0.5,2.6,0.8,3.9,0.8c1.7,0,3.3-0.6,5-0.7c1-0.1,1.8,0.2,2.2-1c0.1-0.3,0.8-0.6,1.2-0.6
		c2.8-0.3,5.6-0.7,8.4-0.8c2-0.1,4,0.2,6,0.3c-0.3-0.6-0.6-1.3-1.1-2.1c0.8,0,1.3,0,1.9,0c0.1-0.2,0.1-0.3,0.2-0.5
		c-1.5-0.6-3-1.4-4.5-1.9c-1.1-0.3-2.3-0.6-3.4-0.4c-4.5,0.8-9.2,0.4-13.6,2c-2,0.7-4,1.5-6,2.4C69.8,89.3,69.7,90.9,70.8,91.3z"/>
	<path d="M143.5,84.7c-0.8-0.2-1.7-0.5-2.5-0.6c-0.3-0.1-0.7,0.1-1,0c-4.6-1.8-9.4-1.7-14.1-2c-1-0.1-2.1,0.3-2.6-0.9
		c-0.1-0.2-0.6-0.3-0.9-0.3c-1.2,0.1-2.3,0.2-3.5,0.4c-0.1,0-0.3,0.1-0.4,0.1c0.2,0.3,0.3,0.5,0.7,1c-2-0.6-2.3,0.8-2.3,1.8
		c0,1.1,0.8,2.1,1.2,3.2c0.7-0.4,1.3-0.8,1.9-1.1c0.1,0.1,0.1,0.2,0.2,0.2c-0.4,0.5-0.7,1.1-1.1,1.6c0.1,0.1,0.1,0.2,0.2,0.3
		c0.4-0.1,0.9-0.2,1.3-0.3c0.5-0.1,1.1-0.3,1.6-0.3c3.4-0.4,6.7-0.8,10.1-1.1c1.5-0.1,3.3-0.6,4.5,0c2.5,1.2,4.8,0.6,7.6,0.4
		C143.5,86.2,145.1,85.1,143.5,84.7z M125.4,86.8c-0.5-0.2-1-0.4-1.5-0.5c0-0.1,0-0.3-0.1-0.4c0.4-0.2,0.9-0.6,1.2-0.5
		c0.3,0.1,0.5,0.7,0.7,1.1C125.6,86.5,125.5,86.6,125.4,86.8z"/>
	<path d="M92.1,128.6c-0.4,0.8-0.7,1.4-1,2.1c2.3,1,4.5,2,6.7,3c1.5,0.7,2.4,0.3,3.2-1.1c0.2-0.4,0.6-0.9,0.9-0.9
		c1.3-0.1,2.5,0,3.8,0c2.3,0,4.7,0.1,7-0.1c2.9-0.2,5.7-0.9,8.6-0.2c1.9,0.4,3.7,0.4,5.4-0.5c0.4-0.2,0.7-0.6,1.1-0.9
		c-0.4-0.3-0.9-0.8-1.3-0.7c-2.2,0.5-4.2-0.5-6.4-0.7c-2.2-0.2-4.6-0.3-6.8,0.3c-2.4,0.6-4.6,1.3-7,0c-0.2-0.1-0.6-0.1-0.8-0.1
		c-0.8-0.1-1.7-0.2-2.5-0.5c-1.4-0.6-2.8-0.8-4.2-0.1C96.7,129.1,94.4,129.7,92.1,128.6z"/>
	<path d="M94.8,78.4c-0.4-0.4-0.7-1-1.3-1.3c-2.9-1.5-6-1.5-9-1.1c-1.6,0.2-3.2,0.6-4.7,1.1c-1.3,0.4-2.6,1.1-3.9,1.7
		c0.1,0.1,0.1,0.1,0.2,0.2c0.9-0.2,1.8-0.5,2.7-0.7c0.9-0.2,1.6-0.5,2.7-0.3c3.4,0.7,6.8,1,10.2,1.5c0.2,0,0.4-0.1,0.7-0.2
		c-0.3-0.3-0.6-0.5-1-0.9c1.2,0.2,2.2,0.3,3.2,0.5C94.7,78.7,94.8,78.5,94.8,78.4z"/>
	<path d="M131.6,74.2c-0.5-0.4-0.9-0.7-1.7-1.2c-1.1-0.1-2.6,0.6-4.3,0.3c-2.1-0.4-4.2,1.4-4.8,3.5c0.4,0,0.7,0.1,1.2,0.1
		c0.3-0.4,0.8-1.1,1.4-2c-0.1,1.5,0.5,1.8,1.7,1.3c0,0.2,0,0.4,0,0.7C128.3,76.4,131.4,75.1,131.6,74.2z"/>
	<path d="M99.4,113.6c2.7,0.5,5.3,0.9,8.1,1.4c-0.8-1.9-2.2-2.9-3.8-3.5C102.5,111.1,100,112.6,99.4,113.6z"/>
	<path d="M111.3,113.2c2.6,0,5,0,7.5,0C117.2,110.9,113,110.8,111.3,113.2z"/>
	<path d="M90.9,93.1c-1.2,0.7-2.8-0.5-3.9,0.7c-0.1,0.1-0.6-0.2-0.9-0.3c-1-0.2-2.1-0.3-3.1-0.4c0,0.2,0,0.3,0,0.5
		c3.1,1.5,6.1,1.2,9.2-0.2C91.7,93.2,91.2,93,90.9,93.1z"/>
	<path d="M128.5,91.6c-1.2-0.1-2.6,0.1-3.3-0.5c-1.1-0.9-2.1-0.3-3.2-0.3C124.6,92.1,127.2,92.5,128.5,91.6z"/>
	<path d="M95.1,111.7c-0.7,1.1-0.2,1.8,0.4,2.5c0.7,0.9,1.6,1.4,3.2,0.8C96.9,114.2,95.4,113.6,95.1,111.7z"/>
	<path d="M126.8,7.4c-0.1-0.1-0.1-0.2-0.2-0.3c-1.2,0.8-2.3,1.6-3.5,2.5c0.1,0.2,0.3,0.3,0.4,0.5C124.6,9.2,125.7,8.3,126.8,7.4z"/>
	<path d="M137,159.4c1.8-0.3,2-0.6,1.4-1.8C137.9,158.3,137.5,158.8,137,159.4z"/>
	<path d="M101,86.5c-0.2,0.1-0.4,0.1-0.6,0.2c0.2,0.7,0.5,1.3,0.7,2c0.2-0.1,0.4-0.1,0.6-0.2C101.5,87.8,101.2,87.2,101,86.5z"/>
</g>
</svg>
