<?xml version="1.0" encoding="utf-8"?>
<!-- Generator: Adobe Illustrator 21.0.0, SVG Export Plug-In . SVG Version: 6.00 Build 0)  -->
<svg version="1.1" id="Layer_1" xmlns="http://www.w3.org/2000/svg" xmlns:xlink="http://www.w3.org/1999/xlink" x="0px" y="0px"
	 viewBox="0 0 184 172" style="enable-background:new 0 0 184 172;" xml:space="preserve">
<style type="text/css">
	.st0{fill:none;}
</style>
<g>
	<path class="st0" d="M94.2,136.3c-0.2,1.5-0.6,3.1-1.4,4.2c-0.2,0.4-2.2-0.5-3.1-0.7c-1.4,0.3-3,1.1-3.6,0.6
		c-0.8-0.7-1.1-2.3-1.2-3.6c-0.2-1.8,0-3.5,0-6c-1.4,2.4-2.3,3.9-3.1,5.3c0.9,1.8,1.3,3.5,2.3,4.6c1.5,1.6,3.4,3.5,5.3,3.7
		c1.7,0.1,3.9-1.6,5.4-3.1c1.3-1.3,1.9-3.4,2.8-5.2c-0.9-1.3-1.8-2.8-3.3-4.9C94.2,133.3,94.4,134.9,94.2,136.3z"/>
	<path class="st0" d="M98,18.8c-0.2,0-0.5,0-0.7,0c0,4,0,8.1,0,12.1c0.2,0,0.5,0,0.7,0C98,26.8,98,22.8,98,18.8z"/>
	<path d="M172,82.4c-9.6,0.1-19.2,0.7-28.8,0.3c-9.4-0.5-18.7,1.1-28.1,0.1c-1.5-0.2-3,1.1-4.5,1c-4.6-0.3-9.2-1.1-13.8-1.3
		c-2-0.1-4.1,1-6.1,1.5c-0.7,0.2-1.7,0.3-2,0c-2.5-2.7-5.6-1.5-8.5-1.3c-4.1,0.2-8.1,1.2-12.2,1.2c-7.7-0.1-15.4-0.7-23.1-0.9
		c-8.3-0.3-16.7-0.4-25-0.5c-4.7-0.1-9.4,0-14.1,0c-0.2,0.4-0.4,0.8-0.6,1.2c0.9,0.9,1.6,2,2.7,2.5c7.9,4,15.8,7.9,23.8,11.9
		c1.3,0.7,3,1.3,3.7,2.4c2.6,4.2,6.3,2.8,10,2.6c-0.3-1.2-0.4-1.9-0.5-2c4.1,0,7.9,0,12.4,0c0-0.1,0.4,0.7,0.8,1.6
		c6.4-2.5,12.6,0.8,18.8-0.6c0.1,0,0.2,0.1,0.3,0.1c3.2,0.3,6.5,0.7,9.7,1c0.4,0,0.8-0.7,1.2-0.7c1.1-0.1,2.2-0.1,3.3,0
		c0.8,0.1,1.6,0.6,2.3,0.5c3.7-0.3,7.5-0.7,11.2-1c0.5,0,1.1,0.5,1.7,0.7c0.7,0.2,1.7,0.6,2,0.4c3.6-3.3,7.6-0.3,11.3-1
		c1-0.2,2-0.8,2.3-0.9c4.6,0,8.6,0,12.5,0c-0.1,0.2-0.3,1-1,3.1c-4.1,0-8.2,0-12.4,0c-16.1,0-32.2,0.1-48.3,0.1
		c-10.9,0-21.7,0-32.6-0.2c-2.8,0-3.8,1.1-3.6,3.8c0.2,2.7,0,5.5,0,8.2c0,2-0.5,4.2,2.6,4.3c2.6,0.1,4.9,0,4.5-3.6
		c0-0.4,0.6-0.8,1.5-2c-0.3,3.2-0.5,5.4-0.8,8.1c5.2-4.9,10.1-9.1,14.5-13.7c1.5-1.6,2.4-2.5,5.2-0.9c-1.7,1-3.1,1.6-4.1,2.5
		c-5,4.9-9.9,9.9-14.7,15c-0.8,0.8-0.7,2.5-1,3.8c0.5,0.2,1,0.5,1.5,0.7c5.4-5.7,10.9-11.3,16.4-17.1c2.4,4.4-1.7,4-3,5.4
		c-4.3,4.7-9,9-13.3,13.7c-1.2,1.3-1.5,3.4-2.2,5.1c0.5,0.3,1.1,0.7,1.6,1c5.9-5.9,11.8-11.9,17.5-17.5c-0.2,1,0.1,3.3-0.9,4.3
		c-5.2,5.3-10.9,10.2-16.2,15.4c-0.9,0.9-1,2.8-1.4,4.3c0.5,0.3,1,0.6,1.5,0.9c5.3-5.8,10.7-11.6,16-17.4c0.4,0.3,0.7,0.5,1.1,0.8
		c-0.3,1.1-0.2,2.6-0.9,3.3c-5.3,5-10.7,9.9-16,14.9c-1.6,1.5-2.3,3.1-0.9,5.3c5.8-5.8,11.4-11.4,17-17.1c0.3,0.2,0.6,0.3,0.8,0.5
		c-0.3,1.2-0.2,2.9-1,3.7c-5.1,4.9-10.3,9.5-15.5,14.3c-2,1.8-2.8,4-1.4,7.1c5.6-5.9,11-11.6,16.6-17.5c2.8,4.5-0.9,4.3-2.1,5.6
		c-4.1,4.2-8.3,8.2-12.4,12.5c-0.7,0.7-0.6,2.2-0.9,3.4c1.2-0.4,2.6-0.4,3.4-1.2c4.4-4,8.6-8.2,12.9-12.3c0.3,0.2,0.6,0.5,1,0.7
		c-3.4,5.2-9.6,8.2-13.2,14.1c6.7,0.8,7.9-5.7,12-7.7c2.6,4.7-5.1,3.6-4.1,7.8c1.6-0.1,3.3-0.6,4.8-0.3c2.8,0.7,3.2-0.6,3.2-2.9
		c0-18.5,0-37.1,0-55.6c0.7,0.4,1.1,1,1.1,1.7c0,18.1-0.1,36.2-0.2,54.3c0,2.8,1.7,2.8,3.7,2.9c2.2,0.1,3.2-0.6,3.2-3
		c-0.1-18-0.1-36-0.3-54c0-2.9,1.1-2.4,2.9-1.9c0,1.6,0,3.1,0,4.6s-0.1,2.9-0.2,4.4c-0.5,4.8,0.4,5.8,5.3,5.3
		c2.6-0.3,5.2-1.1,7.8-1.1c2.9,0,5.7,0.8,8.6,1.2c2.7,0.4,3.6-0.9,3.5-3.5c-0.1-3.6,0-7.3,0-10.9c0.3-0.2,0.6-0.4,0.9-0.6
		c0.5,0.9,1.6,1.7,1.6,2.6c0,17.9,0,35.7-0.2,53.6c0,2.7,1,3.4,3.6,3.4s3.6-0.8,3.5-3.5c-0.2-18.1-0.3-36.2-0.4-54.3
		c0-0.4,0.7-0.9,1-1.3c0.3,1.7-0.1,3-0.1,4.3c0,17-0.1,34,0.1,51c0,1.2,1.4,2.4,2.1,3.6c0.6-1.3,1.6-2.6,1.7-3.9
		c0.2-3.9,0.1-7.9,0.1-11.7c4.6,4.7,9.2,9.4,13.8,13.9c0.5,0.4,1.7,0.1,2.6,0.1c-0.2-1,0-2.3-0.6-3c-4.2-4.4-8.5-8.8-13-12.9
		c-3-2.8-3.1-2.6-2.7-5.2c5.3,5.4,11.2,11.4,17,17.3c0.4-0.2,0.8-0.3,1.1-0.5c-0.2-1.6,0.2-3.8-0.7-4.8c-4.9-5.3-9.9-10.5-15.3-15.4
		c-2.4-2.2-2.7-1.8-1.7-5.7c5.9,6.1,11.5,11.8,17,17.6c0.3-0.1,0.6-0.2,0.9-0.3c-0.6-1.5-0.9-3.4-1.9-4.5c-3.7-4-7.4-8.2-11.6-11.6
		c-3.7-3-5.9-5.8-5.1-10.9c0.7-4.6,0.5-9.3,0.7-14c0,0,0,0,0.1,0c0,0,0-0.1-0.1-0.1l-0.1,0.1c-0.4-1-0.7-2-1.4-4.1
		c1.9,0.5,3.4,0.5,4.1,1.3c3.7,3.8,7.2,7.8,10.9,11.7c1,1.1,2.3,2,4.3,3.8c-0.1-3.4-0.2-5.6-0.3-7.8c0.8,0.4,1.2,0.8,1.1,1.2
		c-0.4,3.1,1.5,3.4,3.9,3.5c2.8,0.1,3.3-1.5,3.2-3.8c-0.1-3-0.1-6,0-9c0.1-2.5-0.8-3.7-3.4-3.6c-1.7,0-3.5,0-5.2,0.1
		c3.7-1,6.6-1.4,9.2-2.5c2-0.8,3.4-2.9,5.3-3.9c7.6-3.9,15.4-7.6,23.1-11.5c1.1-0.6,2-1.7,3.5-3.2C173.2,82.6,172.6,82.3,172,82.4z"
		/>
	<path d="M100,71.2c2,1.3,12.1-0.1,14-1.8c2.3,3.2,5.4,2.9,10-0.5c-2.4-3-5-6-7.5-9.1c-2,1.3-3.6,2.3-5.4,3.4c0.3-1.2,0.6-2.1,1-3.7
		c-2.4,0-4.2,0-6.1,0c-7.6,0-9.1,1.8-7.4,9.2C98.8,69.6,99.2,70.7,100,71.2z"/>
	<path d="M80.7,48.7c-0.3-1.2-1.6-2.8-2.6-2.9c-3.5-0.4-7.1-0.1-10.9-0.1c0.4,2.2,0.6,3.2,0.7,3.4c-1.9-0.5-4.6-2-5.7-1.2
		c-3.1,2.1-5.6,5.1-8.3,7.7c0.2,0.5,0.4,1,0.6,1.5c3.5-0.2,7-0.5,10.5-0.7c0.4,0,0.7,0,1.1,0c4,0.3,8.1,0.7,12.1,0.7
		c0.9,0,2.3-1.5,2.5-2.5C81.1,52.7,81.1,50.6,80.7,48.7z"/>
	<path d="M125.7,54.8c-1.8-1.4-3.7-2.9-5.5-4.3c-1.4-1.1-2.8-2.8-4.4-3c-1.4-0.2-3.1,1.4-4.6,2.2c0.2-1,0.5-2.2,0.8-3.7
		c-3.5,0-6.7,0.1-9.9,0c-2.8-0.1-3.8,1.3-3.8,3.9c0,1.1,0.1,2.2,0,3.4c-0.3,3.3,1.2,4.4,4.4,4.2c7.3-0.3,14.6-0.4,21.9-0.6
		C125,56.1,125.3,55.4,125.7,54.8z"/>
	<path d="M80.8,35.5c-0.1-0.9-1.1-2.5-1.7-2.5c-5.7,0.2-11.5-0.1-16.9,1.4c-3.3,0.9-5.7,4.8-8.6,7.3c0.3,0.4,0.5,0.9,0.8,1.3
		c6.4,0.2,12.8,0.6,19.2,0.7C81.2,43.8,81.9,42.8,80.8,35.5z"/>
	<path d="M103.7,43.6c3.4-0.1,6.9-0.7,10.3-0.8c3.6-0.1,7.1,0.3,10.7,0.5c0.1-0.4,0.2-0.9,0.4-1.3c-4.1-2.5-5.2-8.7-12-8
		c-3.3,0.3-6.7-0.9-10-1.4c-3.3-0.4-5.1,0.9-4.6,4.4c0,0.4,0,0.7,0,1.1C98.4,43.6,98.4,43.7,103.7,43.6z"/>
	<path d="M130.7,127.4c3.4,2.7,5.3,5.3,4.4,9.8c-0.4,2.3,1.3,2.8,3.4,2.8c2-0.1,3.8,0.1,3.8-2.7c-0.1-4.4,0-8.7,0-13.1
		c0-2.6-1.5-3-3.7-3s-3.7,0.6-3.4,3.2c0.1,0.9-0.1,1.8-0.1,2.1c-5.3-5.1-10.5-10.2-15.9-15.2c-0.5-0.5-1.6-0.3-2.5-0.3
		c0.9,1.9,1.5,4.1,2.9,5.6C123.1,120.3,126.7,124.2,130.7,127.4z"/>
	<path d="M90.7,45.8L90.7,45.8L90.7,45.8c-8.9-0.3-9.7,0.3-9.3,7.1c0.2,3.9,2.7,5.4,6.4,4.1c1.1-0.4,2.5-0.1,3.7,0
		c2.2,0,4.9,1.4,5.8-2.1C99.1,48.3,97.3,46,90.7,45.8z"/>
	<path d="M87.6,43.4c1.4,0.1,2.8,0.1,4.2,0.1c2.1-0.1,4.8,1.3,5.6-1.9c1.8-6.6-0.1-8.9-6.9-8.9c-0.4,0-0.7,0-1.1,0l0,0
		c-1,0-2.1-0.2-3,0c-1.6,0.4-4.2,0.9-4.4,1.8c-0.5,2.6-0.5,5.5,0.2,8C82.4,43.2,85.7,43.2,87.6,43.4z"/>
	<path d="M88,59.5c-6.1,0-6.1,0-6.2,6.1c0,4.6,1.7,5.9,6.2,4.3c0.6-0.2,1.1-0.5,1.6-0.8c0.1,0.3,0.2,0.6,0.2,0.9
		c2.2,0.6,4.4,1.2,6.6,1.9C99.2,60.6,98.4,59.5,88,59.5z"/>
	<path d="M67.7,67.5c-0.1-0.9-0.9-2.1-1.7-2.4c-2.9-1.2-7.1,1-7.5,4.2c-0.4,3.1-0.3,6.2,0,9.3c0.1,0.8,1.2,1.9,2.1,2.1
		c5.5,1.3,7.3-0.1,7.3-5.7c0-0.7,0-1.5,0-2.2C67.8,71,68,69.2,67.7,67.5z"/>
	<path d="M44,130.9L44,130.9c-0.1-2.2-0.2-4.5-0.1-6.7c0.1-2.6-1.3-3.1-3.5-3.1s-3.6,0.5-3.6,3.1c0.1,3.8,0.1,7.7,0,11.6
		c-0.1,2.7,0.3,4.4,3.8,4.3c3.4-0.1,3.5-1.8,3.4-4.3C44,134.1,44,132.5,44,130.9z"/>
	<path d="M86.5,12.4c0.2,0.1,0.5,0.1,0.7,0.1c1.5,0,3.1,0.3,4.4-0.1c0.9-0.3,1.9-1.5,2.3-2.5S94,7.7,94,6.6c0-6.6-0.5-7.2-6.5-6.2
		c-1,0.2-2.5,1.9-2.4,2.7C85.7,6.2,83.4,9.7,86.5,12.4z"/>
	<path d="M117.6,116.6c-1.6,3.4-0.7,5.4,1.1,7.2c4.2,4.2,8.4,8.5,12.7,12.7c0.7,0.7,1.7,1.1,3.4,2.2c-0.3-2.5,0.1-4.4-0.7-5.3
		C128.9,127.8,123.4,122.5,117.6,116.6z"/>
	<path d="M121.7,129c-1.3-1.3-2.6-2.4-4-3.8c-1.3,3.4,9.5,16.1,17,19.3c-0.7-1.6-1.1-3.5-2.2-4.7C129,136.1,125.3,132.6,121.7,129z"
		/>
	<path d="M81,12.3c0.7,0,1.8-1.1,1.8-1.8c0.2-2.9,0.1-5.9,0.1-8.7c-3.8,3.5-7.4,6.9-11.5,10.6C74.9,12.4,78,12.5,81,12.3z"/>
	<path d="M97.8,12.2c3.2,0.2,6.5,0.1,8.5,0.1c-3.2-3.3-6.5-6.8-10-10.5c0,2.8-0.1,5.7,0.1,8.7C96.4,11.1,97.2,12.2,97.8,12.2z"/>
	<path d="M71,59.6c-0.9,0.1-1.9,1-2.4,1.8c-0.3,0.5,0.2,1.8,0.7,2.2c2.7,2.1,9.1-0.1,10.6-4.1C76.6,59.5,73.8,59.3,71,59.6z"/>
	<path d="M118.1,159.8c2.9,2.4,4.4,7.2,10,6.2c-3.9-3.8-7.3-7.2-10.8-10.6C117.1,157.1,117.1,159,118.1,159.8z"/>
	<path d="M51.5,32.4c4.9-0.7,9.8-1.4,14.6-2.1c-0.1,0.2-0.4,0.7-0.5,0.9c3.6,0,7.3,0,10.9,0c3.3,0,4.4-1.7,4.3-4.7
		c-0.1-2.8,0-5.5,0-8.3c0.5,2.1,0.3,4.3,0.6,6.3c0.3,2,0.5,4.9,1.7,5.6c1.6,0.9,4.2,0,6.4-0.1c1.4-0.1,2.8,0.8,4.2,0.9
		c3.8,0.3,7.6,0.3,11.5,0.4c7.6,0,15.1,0,21.9,0c-1.1-0.2-3.1-0.5-5.1-0.9c0-0.2,0-0.5,0.1-0.7c0.8-0.2,1.7-0.5,3.1-0.8
		c-4.3-4.3-8.1-8.1-11.9-11.8c-0.9-0.9-2.2-2-3.4-2c-5.8-0.2-11.6,0-17.5,0.1c-5,0-10.1,0-15.1,0.1c-3.3,0.1-7.5-0.9-9.8,0.7
		c-4.9,3.6-8.9,8.5-13.4,13.1c1.2,0.3,2.1,0.6,2.9,0.8c0,0.2,0,0.5,0,0.7c-1.9,0.3-3.8,0.6-5.7,0.9C51.4,31.7,51.4,32,51.5,32.4z
		 M97.3,18.7c0.2,0,0.5,0,0.7,0c0,4,0,8.1,0,12.1c-0.2,0-0.5,0-0.7,0C97.3,26.8,97.3,22.8,97.3,18.7z"/>
	<path d="M100.1,146.5c0.3-0.6,1.3-1.7,1.3-2.8c0.4-5.8,0.5-11.6,0.7-17.4c0.1-1.9,0.2-3.9-2.7-3.9c-2.3,0-4.4-0.1-4.1,3.2
		c0,0.5-0.7,1.1-1.3,1.9c-0.4-2-0.5-4.5-1-4.6c-2.4-0.4-4.9-0.2-7.3,0.1c-0.4,0.1-0.3,2.5-0.6,4.6c-0.7-1-1.4-1.5-1.4-2
		c0.3-3.2-1.7-3.2-4.1-3.3c-2.9,0-2.8,1.8-2.8,3.8c0,4.7-0.4,9.5,0.2,14.1c0.3,2.1-1.5,5.7,2,6.2c-0.6,0.9-2,2-2.1,3.2
		c-0.3,3.3-0.3,6.8,0,10.1c0.1,1,1.7,2.5,2.6,2.5c6.6,0.2,13.2,0.2,19.7,0c0.9,0,2.4-1.6,2.5-2.6c0.3-3,0.3-6,0-9
		C101.9,149.2,100.8,147.8,100.1,146.5z M94.8,141.3c-1.4,1.5-3.6,3.2-5.4,3.1c-1.9-0.1-3.8-2.1-5.3-3.7c-1.1-1.1-1.5-2.8-2.3-4.6
		c0.8-1.3,1.7-2.9,3.1-5.3c0,2.5-0.1,4.3,0,6c0.1,1.3,0.4,2.9,1.2,3.6c0.6,0.5,2.2-0.3,3.6-0.6c0.9,0.2,2.9,1,3.1,0.7
		c0.8-1.2,1.1-2.8,1.4-4.2c0.2-1.5,0-3,0-5.1c1.5,2.2,2.4,3.6,3.3,4.9C96.6,137.9,96.1,140,94.8,141.3z"/>
</g>
</svg>
