<?xml version="1.0" encoding="utf-8"?>
<!-- Generator: Adobe Illustrator 21.0.0, SVG Export Plug-In . SVG Version: 6.00 Build 0)  -->
<svg version="1.1" id="Layer_1" xmlns="http://www.w3.org/2000/svg" xmlns:xlink="http://www.w3.org/1999/xlink" x="0px" y="0px"
	 viewBox="0 0 116.3 116.8" style="enable-background:new 0 0 116.3 116.8;" xml:space="preserve">
<g>
	<ellipse cx="98.5" cy="57.4" rx="6.6" ry="18.8"/>
	<path d="M98,1.5H18.1c0,0-11.7,0.9-15.8,38.4c1.5-1.7,6.1-6.7,7.5-7.1c1.7-0.5,7.5,8.2,8.7,8.2s8.5-7.8,10-8s8.5,7.8,10,7.8
		s9.8-7.5,11.3-7.5s7.5,7.8,8.7,7.7s8-8.2,9.3-8.2s7,7.5,8.3,7.5c1.3-5.5,0.2-9.2,3.7-19.3c2.5-8.8,7.5-16.2,8-17s2.5-0.7,2.8,0
		s0.8,0.8,0,2.3s-5,6.5-8.5,15.8c-3.5,9.4-1.9,22.5-4.9,22.4s-9.2-7.2-10-7.2s-7.3,7-8.8,7.2s-8-7.3-9.5-7.2
		c-1.5,0.2-9.8,7-10.8,7.2s-9.3-7.2-10.7-7.2s-7.7,7-9.3,7.2c-1.7,0.2-9-7.2-9-7.2l-7.3,7.1c0,0.3-0.1,0.6-0.1,0.9
		c-2.5,62,15.5,69.5,15.5,69.5H99c0,0,14.3-8.3,15.5-61C112.4,3.7,98,1.5,98,1.5z M98,92.3c-6.6,0-11.9-15-11.9-33.6
		S91.4,25.1,98,25.1s11.9,15,11.9,33.6S104.6,92.3,98,92.3z"/>
</g>
</svg>
