<?xml version="1.0" encoding="utf-8"?>
<!-- Generator: Adobe Illustrator 21.0.0, SVG Export Plug-In . SVG Version: 6.00 Build 0)  -->
<svg version="1.1" id="Layer_1" xmlns="http://www.w3.org/2000/svg" xmlns:xlink="http://www.w3.org/1999/xlink" x="0px" y="0px"
	 viewBox="0 0 230 191.5" style="enable-background:new 0 0 230 191.5;" xml:space="preserve">
<style type="text/css">
	.st0{fill:none;}
</style>
<g>
	<path class="st0" d="M197.5,117c-2.3-6.6-4.4-13.2-7-19.6c-1.5-3.8-4.4-6.1-8.8-6.5c-2.8-0.2-5.6-1.2-8.4-1.7
		c-19.7-3.5-39.2-2.9-58.8,1.1c-3.5,0.7-6,2.2-7.2,5.7c-2.5,7-5.1,14-7.6,21c-0.9,2.6,0.1,3.5,2.6,4.1c15.6,3.5,31.3,5.1,46.9,4.9
		c15.6,0.1,30.7-1.5,45.6-4.9C197.4,120.5,198.3,119.3,197.5,117z"/>
	<path class="st0" d="M116.3,145.6c-7.9-5-16.6-7.9-26-8.1c-1.2,0-3.3,1.9-3.6,3.3c-1.7,8.3,1.2,11.7,9.6,11.7c1.4,0,2.7,0,4.1,0
		c0-0.1,0-0.3,0-0.4c4.5,0,9,0.2,13.4-0.1c1.4-0.1,3.2-1.4,3.9-2.7C118.1,148.5,117.2,146.3,116.3,145.6z"/>
	<path class="st0" d="M203.2,137.3c-8.5,0.6-16.4,3.2-23.6,7.6c-1.2,0.7-2.7,3-2.4,4c0.5,1.3,2.5,2.8,4,3c3.7,0.6,7.6,0.5,10.6,0.6
		c2.6,0,4.3-0.1,6.1,0c8.2,0.4,10.9-2.2,10.6-10.3C208.3,138.2,207.1,137.1,203.2,137.3z"/>
	<path d="M79.6,88.3c-1-0.5-1.9-1.1-2.9-1.2c-2.6-0.2-5.3-0.1-8.9-0.1c1.6-2.1,2.4-3.2,3.2-4.2c8.1-10.2,16.2-20.3,24.3-30.5
		c0.8-0.9,1-2.3,1.5-3.5c-1.2-0.3-2.3-0.9-3.5-0.9c-3.9-0.1-7.9,0-12.9,0c1.4-1.8,1.9-2.5,2.5-3.1c9.7-11.2,19.6-22.4,29.3-33.6
		c0.9-1,1.3-2.5,1.9-3.7c-1.4-0.4-2.8-1-4.2-1c-17.5-0.1-35,0-52.5-0.1c-2.9,0-4.8,1-6.3,3.6C42.8,23.8,34.4,37.8,26,51.5
		c-1.2,2-2,4.2-3,6.3c2.4,0.4,4.7,1,7.1,1.1c4.3,0.2,8.6,0.1,13.5,0.1c-0.9,1.6-1.2,2.4-1.7,3.1C34.5,73.8,27,85.5,19.6,97.3
		c-0.8,1.2-1.1,2.7-1.6,4c1.5,0.4,3,1.1,4.5,1.1c4.6,0.2,9.1,0.1,14.6,0.1c-5.8,10.4-11.1,19.8-16.3,29.3
		c-5.1,9.5-11,18.6-14.8,28.8c1.5-0.2,2.5-0.8,3.3-1.6c2.2-2,4.4-4.1,6.5-6.2c20.9-20.6,41.7-41.3,62.5-62
		C78.9,90.1,79.2,89,79.6,88.3z"/>
	<path d="M222.8,126.3c-1.2-3.9-3-6.3-6-7.3c-1.1-0.4-2.5-0.5-4-0.5c-1.3,0-2.4-0.2-3.2-0.6c-1.5-0.7-2.5-2-3.3-3.8
		c-3.6-8.3-7.2-16.7-11.2-24.9c-1-1.9-3.2-3.9-5.3-4.6c-11.3-4-23.2-5.8-35.2-6.5c-17.4-0.9-34.3,2-50.7,7.8
		c-1.8,0.6-3.7,2.4-4.5,4.1c-3.9,8.1-7.6,16.3-11.2,24.5c-1.3,2.9-2.5,5.5-6.5,4.1c-0.9-0.3-2.2,0.1-3.3,0.4
		c-3.3,0.9-5.4,4.4-5.3,8.5c0.1,2.9,1.6,3.5,3.4,3.7c0.7,0.1,1.5,0.1,2.2,0.1c0.6,0,1,0.1,1.4,0.3c1,0.4,1.3,1.4,0.8,2.9
		c-0.3,0.8-0.4,1.7-0.4,2.6c0,14.7,0,29.5,0,44.2c0,2.4,0.9,3.5,2.6,3.8c0.5,0.1,1,0.1,1.6,0.1c4.8-0.2,9.7,0,14.6-0.1
		c9.5-0.1,9.8,2,9.7-9.2c0-2.8,1-4,4-4c23.5,0.2,47,0.3,70.5,0.4c0.5,0,1.1-0.2,1.4,0.1h0.1c1,0.9,2.7,1.9,2.8,3
		c0.4,3.1,0.2,6.4,0.2,9.5c7.6,0.1,15.3,0.1,22.9,0.2c2.8,0.1,4.3-1.1,4.3-3.9c0-16.3,0.8-32.6-0.5-49.5c1.2-0.1,2.8-0.3,4.5-0.4
		C222.4,131,223.7,129.3,222.8,126.3z M117.7,149.3c-0.7,1.3-2.5,2.6-3.9,2.7c-4.4,0.3-8.9,0.1-13.4,0.1c0,0.1,0,0.3,0,0.4
		c-1.4,0-2.7,0-4.1,0c-8.4,0-11.3-3.4-9.6-11.7c0.3-1.4,2.4-3.3,3.6-3.3c9.4,0.2,18.1,3.1,26,8.1
		C117.2,146.3,118.1,148.5,117.7,149.3z M102.3,121c-2.5-0.6-3.5-1.5-2.6-4.1c2.5-7,5.1-14,7.6-21c1.2-3.5,3.7-5,7.2-5.7
		c19.6-4,39.1-4.6,58.8-1.1c2.8,0.5,5.6,1.5,8.4,1.7c4.4,0.4,7.3,2.7,8.8,6.5c2.6,6.4,4.7,13,7,19.6c0.8,2.4-0.1,3.5-2.7,4.1
		c-14.9,3.4-30,5-45.6,4.9C133.6,126.1,117.9,124.5,102.3,121z M197.9,152.5c-1.8-0.1-3.5,0-6.1,0c-3-0.1-6.9,0-10.6-0.6
		c-1.5-0.2-3.5-1.7-4-3c-0.3-1,1.2-3.3,2.4-4c7.2-4.4,15.1-7,23.6-7.6c3.9-0.2,5.1,0.9,5.3,4.9C208.8,150.3,206.1,152.9,197.9,152.5
		z"/>
</g>
</svg>
