<?xml version="1.0" encoding="utf-8"?>
<!-- Generator: Adobe Illustrator 21.0.0, SVG Export Plug-In . SVG Version: 6.00 Build 0)  -->
<svg version="1.1" id="Layer_1" xmlns="http://www.w3.org/2000/svg" xmlns:xlink="http://www.w3.org/1999/xlink" x="0px" y="0px"
	 viewBox="0 0 227.3 216.7" style="enable-background:new 0 0 227.3 216.7;" xml:space="preserve">
<g>
	<path d="M130.6,118.4c2.1-1.3,4-2.9,6.8-1.9c0.2,0.1,0.4,0.1,0.6,0c1.2-0.3,1.6-1.3,0.6-2.1c-0.6-0.5-1.6-0.9-2.2-0.8
		c-2.7,0.5-5.2-0.3-7.7-0.9c-3.5-0.9-7.1-1.6-10.3,0.5c-0.3,0.7-0.6,1.4-1.1,1.9c-0.1,0.1-0.8-0.1-0.8-0.2c0-0.5,0.1-1,0.2-1.8
		c-0.5-0.2-1.2-0.5-1.9-0.6c-0.6-0.1-1.3-0.1-2-0.1c-2.8-0.4-5.5,0.1-8.2,1c-2.1,0.7-4,2.1-6.4,1.8c-0.9-0.1-1.8-0.2-2.8-0.3
		c0.5-0.4,1-0.7,1.5-1.1c0-0.1-0.1-0.1-0.1-0.2c-0.3,0.1-0.6,0.2-1,0.3c0.4-0.6,0.6-1.1,0.9-1.6c-0.1-0.1-0.2-0.1-0.4-0.2
		c-0.5,0.9-1.3,1.8-1.5,2.8c-0.4,1.4-0.7,2.8-0.5,4.2c0.1,1.2,1.1,1.3,2.2,0.8c1-0.4,2.1-0.7,3.2-0.6c1.2,0.1,2.3,0.6,3.4,0.9
		c0.8,0.2,1.5,0.3,2.3,0.5c1.5,0.5,3,1.1,4.5,1.6c0.4,0.1,0.9,0,1.7,0c-0.6-1-1.2-2.2-1.3-2.2c-1.1,0.5-1.3-0.6-1.8-1
		c-0.3-0.3-0.3-0.8-0.5-1.2c0.4-0.1,0.8-0.4,1.2-0.4c5.1-0.1,10.2,0.2,15.3-0.8c0.4-0.1,0.8,0,1.4,0c-0.1,0.9-0.2,1.6-0.4,2.5
		C127.4,119.6,129.1,119.3,130.6,118.4z M114.7,115.2c-0.4,0.2-0.8,0.3-1.3,0.5c-0.5-0.5-0.9-1-1.4-1.5c0.7-1,1.5-1.4,2.6-0.9
		C115.3,113.7,115.4,114.8,114.7,115.2z M119,114.1c0.9-1.1,1.3-1.1,4.1-0.5C121.1,116.2,121.1,116.2,119,114.1z"/>
	<path d="M96.2,66.2c1.4,1,2.6,1.8,3.9,2.7c-0.9,0.4-1.6,0.7-2.6,1.2c1.4,0.2,2.6,0.5,3.8,0.6c2.3,0.2,3.1,0.9,3.5,3.2
		c0.3-0.6,0.5-1,0.7-1.5c1.7,0,2.1-0.7,1.5-2.1c-0.4-1.1-0.9-2.4-0.6-3.5c0.6-2.4-1-3.4-2.1-5c-2.9,1.7-6,2.5-9.2,2.8
		c-2.4,0.3-4.7,0.6-7.1,1.2c-3.2,0.8-5.9,2.6-8.1,5.1c-1.2,1.4-2.2,2.9-4.3,3.4c2.4,0.2,4.8,0.3,7.4,0.5c-0.1-1.4,0.8-2.2,2.1-2.7
		c1.2-0.5,2.3-0.3,3.5-0.3c2.4,0,4.8-0.8,7.2-1.2C96,69.2,96.1,67.9,96.2,66.2z M103.8,68.7c0.4,0.8,0.9,1.6,1.3,2.4
		c-0.2,0.1-0.4,0.2-0.6,0.3c-0.4-0.8-0.8-1.7-1.1-2.5C103.5,68.9,103.7,68.8,103.8,68.7z M88.5,70.8c-0.5-0.2-1.3-0.3-1.3-0.5
		c-0.1-0.5,0.2-1.1,0.3-1.7c0.1,0,0.3,0,0.4,0c0.3,0.6,0.5,1.2,0.8,1.8C88.7,70.5,88.6,70.6,88.5,70.8z"/>
	<path d="M145.9,69.9c0.2,0.3,0.8,0.2,1.2,0.3c1.2,0.2,2.5,0.5,3.9,0.7c0.2-0.2,0.5-0.7,1-1.3c-2.3-1.5-4.4-3-6.7-4.4
		c-3.5-2.1-7.3-2.5-11.3-2.5c-1.5,0-3.1-0.3-4.6-0.5c-0.9-0.1-1.7-0.3-2.5-0.4c0,0.2,0,0.3-0.1,0.5c0.4,0,0.8,0.1,1.6,0.1
		c-2.4,0.8-2.9,2.6-3.7,4.2c-1.7,0-1.7,0-1.6,2.3c0.4,0,0.9,0,1.2,0c0.1-0.5,0.2-1,0.3-1.7c0.5,0.4,0.8,0.7,1.1,0.9
		c0.3-0.3,0.5-0.5,1-1.1c-0.5,1.3-0.8,2.3-1.2,3.1c0.9-0.2,1.6-0.6,2.2-0.4c0.4,0.1,0.3,1.2,0.7,1.7c0.2,0.4,0.7,0.8,1.1,0.9
		c0.6,0.2,1.2,0.1,1.9,0.2c0.5,0.1,0.9,0.3,1.4,0.4c0.1-0.2,0.1-0.3,0.2-0.5c-0.6-0.8-1.2-1.5-1.9-2.4c0.4-1.4,0.4-1.2,2-1.2
		c2.7,0.1,5.5,0,8.3-0.1C142.8,69,144.5,68.4,145.9,69.9z M130.4,67.7c-0.4-0.5,0.8-2.3,1.6-2.6c0.2,1.1,0.4,2.2,0.8,3.8
		C131.8,68.5,130.9,68.3,130.4,67.7z M140.4,65.6c0.1-0.3,0.9-0.7,1-0.6c0.6,0.5,1.2,1.1,1.5,1.9c0.1,0.3-0.6,1-1.1,1.3
		c-0.6,0.4-1.4,0.5-2.2,0.8C139.8,67.8,140,66.7,140.4,65.6z"/>
	<path d="M80.2,59.5c-1.5,0.6-2.3,1.6-2.3,3.3c0.7-0.4,1.4-0.9,2-1.3c0.1,0.1,0.1,0.1,0.2,0.2c-0.3,0.4-0.7,0.7-1,1.1
		c2-0.7,3.9-1.5,5.7-2.4c0.5-0.2,0.7-0.8,1.2-1.4c0.6,0.1,1.4,0.3,2.3,0.4c2.6,0.3,5.2,0.5,7.8,0.9c2,0.3,4.1,1.5,5.8-0.6
		c0.2-0.2,0.7-0.1,1.1-0.2c0.1-0.1,0.1-0.2,0.2-0.4c-1.6-0.6-2.8-2.2-4.8-2.2c-1.4,0-2.8-0.1-4.2-0.1c-1.4,0-2.9-0.4-4.3-0.1
		c-1.7,0.4-3.4,1.2-5.1,1.8c-0.1,0-0.3-0.1-0.6-0.1c0.6-0.6,1.1-1,1.6-1.4C83.9,57.6,82.1,58.7,80.2,59.5z"/>
	<path d="M142.6,54.2c0-0.2-0.7-0.3-1.1-0.3c-1.4,0-2.9,0-4.3,0.1c-1.5,0.1-3.1,0.2-4.6,0.5c-1.5,0.2-3,0.6-4.5,1
		c-0.4,0.1-0.9,0.2-1.2,0.5c-0.6,0.7-1,1.4-1.5,2.2c1,0.3,1.8,0.8,2.5,0.7c2.1-0.3,4.2-0.9,6.3-1.4c1.8-0.4,3.7-1.1,5.5-1.3
		c1.8-0.1,3.7,0.3,5.8,0.5C144.5,55.5,142.8,55.7,142.6,54.2z"/>
	<path d="M105.6,95.8c-0.1,0.3,0.2,1,0.5,1.1c1.5,0.7,3.1,1.4,4.8,0.6c0.4-0.2,1,0.1,1.5,0.1c0.7,0.1,1.2-0.1,1-0.9
		c-0.4-1.3-3-3.2-4.3-3.3C107.8,93.5,105.9,94.7,105.6,95.8z"/>
	<path d="M125.8,96.8c0.1-0.6-0.1-1.5-0.5-2c-2.5-2.5-5.6-1.1-6.6,1.6c1.8,0.4,3.6,0.9,5.4,1.3C124.9,97.9,125.7,97.6,125.8,96.8z"
		/>
	<path d="M63.7,87.1c0.2,0,0.3,0,0.5-0.1c0.2-1.7,0.3-3.4,0.5-5.2c-0.1,0-0.2,0-0.3,0c-0.1,0.5-0.1,1-0.3,1.9
		c-0.8-1.1-1.4-1.9-1.9-2.8c-0.2,1.2-0.3,2.3-0.4,3.5c0,0.3,0.1,0.7,0.3,0.9C62.6,85.9,63.2,86.5,63.7,87.1z"/>
	<path d="M146.3,54.3c-1.1,0.2-1.8,0.3-2.5,0.4c2,1.6,5.3,3.2,6.5,3.1C148.9,56.6,147.4,55.3,146.3,54.3z"/>
	<path d="M97.8,74.7c0.8-0.2,1.6-0.5,2.4-0.7c0.7-0.2,0.8-0.9,0.2-2.3c-0.1-0.3-0.7-0.3-1-0.5c-0.1,0.1-0.2,0.1-0.3,0.2
		C100.3,73.3,98.2,73.4,97.8,74.7z"/>
	<path d="M85.6,76.3c1.7,0.1,3.3,0.3,5,0.4c0-0.2,0-0.4,0-0.6c-1.7-0.1-3.3-0.3-5-0.4C85.6,75.9,85.6,76.1,85.6,76.3z"/>
	<path d="M121.4,180.9c-1.7-2.4-3.3-4.9-6.5-5.7c-0.1,0-0.2-0.2-0.4-0.3c0.4-0.2,0.7-0.3,1-0.5c5.2-4.2,10.4-8.4,15.6-12.5
		c5-3.9,10-7.9,14.3-12.5c1.9-2.1,3.6-4.3,3.8-7.2c0.1-1.5-0.4-2.3-1.9-2.4c-0.7,0-1.6,0.6-2.2,1.2c-1.1,1.1-2.2,1.9-3.8,1.6
		c-1.4-0.3-2.7-0.4-4.3-0.7c-0.7,2.1-3.8,0.7-4.7,2.9c-1.8,0.4-3.5,0.9-5.3,1.1c-1.6,0.2-3.3,0-5,0c-0.5,0-0.9,0-1.4,0.1
		c-1.2,0.1-2.4,0.4-3.6,0.4c-2.3,0.1-4.7-0.4-7,0.5c-0.2,0.1-0.6,0.1-0.7,0c-0.7-0.8-1.5-0.4-2.3-0.4c-0.8,0-1.6,0.1-2.3-0.2
		c-2.8-0.9-5.6-1.8-8.4-2.9c-1.5-0.6-2.8-1.3-4.2-2.1c-2.6-1.4-2.6-1.4-4,0.6c0,0.1-0.2,0.1-0.1,0.1c-0.6-0.1-1.2-0.2-1.7-0.4
		c-0.5-0.3-1-0.7-1.5-1c-1.2-0.6-2.8,0-3.1,1.1c-0.5,1.9-0.1,3.6,0.9,5.3c2,3.3,4.9,5.6,7.7,8c7.2,6.1,14.6,12.1,22,18.1
		c1,0.8,0.9,1.3,0.2,2.1c-2.3,2.9-4.8,5.8-6.6,9c-4.5,8-8.7,16.2-13.1,24.3c-0.3,0.5-0.6,0.9-1,1.5c-0.8-1.3-1.8-2.4-2.3-3.6
		c-1.5-3.6-2.3-7.5-2.9-11.4c-0.7-4.8-1-9.6-2.4-14.3c-1.5-5-2.6-10.1-3.9-15.1c-1.2-4.7-2.9-9.3-2.6-14.2c0.2-3.5,0.6-7.1,0.9-10.6
		c0.1-0.2,0.2-0.3,0.3-0.5c1.2-2,0.9-6.1-0.6-7.9c-4.4-5.3-7.3-11.5-8.8-18.2c-0.5-2.4-1.3-3.5-3.5-3.7c1,0.6,1.5,1.6,1.8,3.3
		c1.5,6.8,4.4,13,9,18.3c1.2,1.5,1.6,4.5,1.1,6.6c-0.1,0.2-0.2,0.3-0.3,0.5c-1.9,4.2-5.5,6.8-8.8,9.7c-3.4,3-7.4,4.9-11.8,6
		c-2.7,0.7-5.3,1.8-8,2.8c-1.2,0.4-2.3,1-3.5,1.4c-5.3,1.6-10.5,3.2-15.8,4.8c-3.2,1-6.5,2.1-9.8,2.7c-5.1,0.9-10.1,2-14.9,4
		c-0.5,0.2-1,0.2-1.5,0.4c0,13.7,0,27.5,0,41.2c0,0,0.1,0,0.1,0c0,0.3,0,0.7,0,1c1.1,0,2.2,0,3.3,0c0-0.3,0-0.7,0-1
		c28.6,0,57,0,85.5,0c3.1-2.1,4.4-6.1,8.3-7.4c-0.1,0.6-0.2,1.3-0.3,2.1c2.4-2.5,4.4-5.1,5.9-8.2c1.4-2.9,3.1-5.8,6.2-7.8
		c-0.1,0.4-0.1,0.6-0.2,0.7c-2.5,2.4-4.1,5.4-5.8,8.3c-1.6,2.6-3.4,5.2-5.2,7.7c-1,1.4-1.8,2.8-1.9,4.6c4.2,0,8.5,0,12.7,0
		c2-2.6,4.1-5.1,6.1-7.7c0.2-0.3,0.7-0.4,1.1-0.6c0.1,0.1,0.2,0.3,0.2,0.4c-1.9,2.6-3.8,5.3-5.8,7.9c5.3,0,10.5,0,15.8,0
		c0.1-1.5,0.2-3.1,0.4-4.6c0.1-1.4,0.1-3,0.6-4.3c0.4-0.9,0.6-1.6,0.2-2.5C128.2,193.9,125.7,186.9,121.4,180.9z M107.8,182.3
		c2.7,1.3,5.3,2.5,8,3.8C114.6,186.8,108.3,183.9,107.8,182.3z M119.3,188.7c-1-0.5-2.1-0.9-3.1-1.4c0.1-0.1,0.1-0.3,0.2-0.4
		c1.3-0.1,2.1,0.8,3.1,1.3C119.4,188.4,119.4,188.6,119.3,188.7z"/>
	<path d="M64.1,71.9c0.3-0.1,0.5-0.9,0.5-1.4c0-3-0.3-6-0.2-8.9c0.1-3.7,0.4-7.4,0.7-11.1c0.2-2.1,0.6-4.2,0.9-6.4
		c0.5-3.8,1.9-7.2,4-10.3c1-1.5,2.1-3,3.3-4.4c1.2-1.4,3-2.5,3.9-4.1c2.4-3.9,6.1-6.4,9.5-9c3.4-2.6,7-4.8,10.6-7
		c3-1.9,6.2-3.4,9.8-4c4.9-0.9,9.8-1.5,14.6,0.5c4.5,1.9,9.1,3.5,13.5,5.6c6.8,3.4,12.2,8.7,17.2,14.4c5.7,6.4,8.3,14.1,8.3,22.7
		c0,5.5,0.2,10.9,0.3,16.4c0,0.4,0.1,0.9,0.2,1.3c0.2,0.1,0.4,0.3,0.6,0.4c0.2-0.3,0.4-0.5,0.5-0.8c-0.1-0.1-0.3-0.2-0.4-0.3
		c-0.1-0.4-0.2-0.9-0.2-1.3c-0.1-5.5-0.3-11-0.3-16.5c0-8.7-2.7-16.4-8.6-22.8c-5.1-5.7-10.7-11.1-17.7-14.4
		c-4.5-2.2-9.2-3.8-13.8-5.7c-4.9-2.1-9.9-1.4-15-0.5c-3.7,0.6-6.9,2.1-10,4c-3.7,2.3-7.4,4.5-10.9,7c-3.6,2.6-7.3,5.1-9.8,9
		c-1,1.6-2.8,2.7-4,4.1c-1.2,1.4-2.3,2.9-3.4,4.4c-2.2,3.1-3.6,6.6-4.1,10.4c-0.3,2.1-0.7,4.3-0.9,6.4c-0.3,3.7-0.6,7.5-0.8,11.2
		c-0.1,3,0.1,6,0.2,9c0,0.5-0.2,1.3-0.5,1.4c-0.1,0-0.2,0-0.3,0c0.2,0.1,0.3,0.3,0.5,0.3C62.9,71.9,63.6,72.1,64.1,71.9z"/>
	<path d="M167.1,64.4c1.4,0.8,1.8,1.9,1.7,3.5c-0.1,1.3,0,2.7,0,4c0.1,2.1,0.3,4.1,0.3,6.2c0,2.9-0.1,5.8-0.3,8.7
		c-0.2,2.7-0.6,5.4-0.9,8.1c-0.1,0.9-0.2,1.9-0.1,2.8c0.4,3.1-0.1,5.7-2.5,7.5c3.1-1.8,3.8-4.7,3.3-8.1c-0.1-0.9,0-1.9,0.1-2.8
		c0.3-2.7,0.7-5.4,0.9-8.1c0.2-2.9,0.3-5.8,0.3-8.7c0-2.1-0.2-4.1-0.3-6.2c-0.1-1.4-0.1-2.7,0-4.1c0.1-1.6-0.4-2.7-1.8-3.5
		c-1.2-0.7-3.1-0.6-4.1,0.4c-0.1,0.1-0.3,0.3-0.4,0.5C164.5,63.8,166.1,63.8,167.1,64.4z"/>
	<path d="M57.4,101.6c0.5,1.6,1,3.1,1.7,4.6c0.9,2,2.4,3.3,4.6,3.5c-1.2-0.6-2.1-1.6-2.7-3c-0.6-1.5-1.1-3-1.6-4.6
		c-1-3-2.4-6-2.7-9.1c-0.6-6.3-0.7-12.7-0.9-19.1c0.7,0.5,1.5,0.8,2.5,1.4c-0.9-1-1.6-2-2.4-2.8c0.4-1.5,1.9-2.4,3.5-2.3
		c-0.1-0.1-0.3-0.2-0.4-0.3c-2.4-1.2-5.3,0.3-5.3,2.9c0.2,6.6,0.3,13.2,0.9,19.7C55,95.6,56.4,98.6,57.4,101.6z"/>
	<path d="M220.8,178.1c0-0.2,0-0.4,0-0.7c-1.6-0.7-3.2-1.5-4.9-2.1c-6.6-2.7-13.3-5.3-19.8-8.1c-6-2.5-11.9-5.3-17.9-7.9
		c-4.5-2-9.4-3.3-13.1-6.9c-2.1-2-4.3-4.1-6.5-6.1c-1.4-1.3-2.9-2.4-4.2-3.8c-1.1-1.3-2.1-2.7-2.8-4.2c-0.8-1.6-0.3-3.7,0.9-5.5
		c2.3-3.4,4.7-6.7,6.7-10.3c2.6-4.5,3.6-9.6,4.5-14.6c0.2-1,0.4-1.9,1.2-2.5c-0.1,0-0.2,0.1-0.2,0.1c-1.1,0.6-1.5,1.6-1.7,2.9
		c-0.8,5-1.8,10.1-4.4,14.5c-2,3.5-4.3,6.8-6.5,10.2c-1.1,1.7-1.6,3.8-0.9,5.3c-0.2,0.4-0.3,0.8-0.3,1.1c0,0.8,0.2,1.7,0.4,2.5
		c0.8,3.9,1.1,7.8,0,11.7c-1,3.6-2.3,7.1-3.2,10.7c-1.7,6.1-4.1,12.1-5,18.4c-0.2,1.3-0.8,2.5-1.1,3.4c0.3,0.7,0.6,1.2,0.6,1.8
		c0,2.2-0.1,4.4-0.2,6.6c0,0.7,0.2,1.6,0,2.2c-1.1,3.1-1.7,6.4-3.9,9.1c-1.3,1.5-1.7,3.8-2.5,5.7c0.7,0,1.3,0,2,0
		c1.3-1.6,2.7-3.1,3.8-4.8c0.6-0.9,0.9-2.1,1.5-3.2c-0.6,2.6-1.3,5.3-1.9,7.9c25.9,0,51.7,0,77.6,0c0,0.3,0,0.7,0,1
		c0.7,0,1.4,0,2.2,0c0-11.6,0-23.1,0-34.7C220.9,178.2,220.8,178.2,220.8,178.1z"/>
</g>
</svg>
