<?xml version="1.0" encoding="utf-8"?>
<!-- Generator: Adobe Illustrator 21.0.0, SVG Export Plug-In . SVG Version: 6.00 Build 0)  -->
<svg version="1.1" id="Layer_1" xmlns="http://www.w3.org/2000/svg" xmlns:xlink="http://www.w3.org/1999/xlink" x="0px" y="0px"
	 viewBox="0 0 624.7 352" style="enable-background:new 0 0 624.7 352;" xml:space="preserve">
<style type="text/css">
	.st0{fill:none;}
</style>
<g>
	<path class="st0" d="M539.1,238.1L539.1,238.1c-2.2,1.5-4.3,3-6.5,4.4C534.8,241.1,537,239.6,539.1,238.1z"/>
	<path class="st0" d="M517.7,254.2c-0.1,0.1-0.2,0.1-0.2,0.1S517.6,254.3,517.7,254.2z"/>
	<path class="st0" d="M517.4,254.4L517.4,254.4L517.4,254.4z"/>
	<path d="M72.7,34.1L72.7,34.1L72.7,34.1L72.7,34.1z"/>
	<path d="M445.5,144L445.5,144C445.5,144,445.6,144,445.5,144L445.5,144z"/>
	<path d="M10.1,8.7L10.1,8.7L10.1,8.7L10.1,8.7z"/>
	<path d="M619.8,187.1c-0.6-0.8-0.9-1.8-1.5-2.7c-3.2-4.8-6.5-9.6-9.7-14.5c-7-10.6-14-21.2-21-31.9c-1.1-1.6-2-1.8-3.6-0.7
		c-4.9,3.4-9.9,6.6-14.8,9.9c-5.9,4-11.6,8.3-17.8,11.9c-6,3.5-10.9,8.7-18.1,10.6c-4.7,1.3-9,5.1-12.8,8.5
		c-1.6,1.4-2.8,3.5-4.7,4.8c-3.1,2.2-3.4,2.1-5.3-1.6c0.5-0.4,0.9-0.8,1.5-1.2c7.2-4.8,14.5-9.7,21.7-14.5
		c15.3-10.2,30.6-20.3,45.9-30.5c4.2-2.8,4.2-2.9,1.5-7c-0.8-1.2-1.6-2.5-2.5-3.7c-9.3-13.8-18.6-27.6-27.8-41.5
		c-1.4-2.1-2.6-1.8-4.3-0.6c-1.7,1.3-3.4,2.5-5.2,3.7c-12.8,8.4-25.7,16.9-38.6,25.3c-1.7,1.1-3.2,3.2-5.5,1
		c-0.2-0.2-1.2,0.2-1.7,0.6c-4,2.6-7.9,5.2-11.8,7.8c-0.5,0.4-1.3,1.3-1.2,1.6c0.9,2-0.6,2.7-1.9,3.4c-1.8,1-3.7,1.8-5.4,2.9
		c-6.9,4.4-13.7,8.9-20.5,13.4c-2.5,1.7-5,3.4-7.6,5.1c4.3,5.1,8.8,9.7,11,15.9c-2.5,0.7-4.9,2.6-6.4-1c0.5-0.7,1-1.3,1.7-2
		c-4.3-5.2-8.5-10.3-12.8-15.4c2-0.4,3.5-0.7,4.9-1c-1.3-0.8-2.7-1.3-3.8-2.3c-2.3-2.2-4.3-4.6-7.8-4.7c-0.5,0-1.1-0.5-1.5-0.9
		c-4.7-5.3-9.9-9.9-16.7-12.5c-1.1-0.4-3.2-0.6-3.5-0.1c-1.7,2.7-3.5,5.5-4.3,8.5c-1,3.8-1.9,7.4-4.6,10.5c-1.1,1.2-1.7,2.9-2.7,4.2
		c-0.5,0.7-1.5,1.1-2.3,1.6c-0.1-0.2-0.2-0.3-0.3-0.5c0.3-0.6,0.5-1.1,0.8-1.7c-3.6,2.3-6.8,4.9-9.9,7.6c-1.6,1.4-1.9,3.2-1.6,5.2
		c1.9,9.8,4.7,19.2,10.6,27.4c0.5,0.7,1,1.5,1.4,2.4c1.7,3.7,0.2,7-3.8,7.8c-1.5,0.3-3.2,0.2-4.6-0.3c-4.7-1.8-9.4-3.7-14-5.8
		c-8.3-3.8-16.4-8-24.7-11.8c-3.7-1.7-6-4.1-5.8-8.4c0-1.2-0.3-2.7-1.1-3.6c-3.3-4.2-6.4-4.7-11.1-2c-0.6,0.4-1.2,1-1.9,1.1
		c-0.8,0.1-2.2,0-2.4-0.5c-1.1-2.1-2.3-4.2-2.6-6.5c-0.5-5.1-4.1-7.4-8.7-5.2c-1.5,0.7-2.8,1.9-4.3,2.4c-0.8,0.3-2.6-0.1-2.8-0.6
		c-1.2-2.8-2.2-5.6-3-8.5c-1-3.7-4.2-5.4-7.6-3.8c-1.8,0.8-3.4,1.8-5.2,2.6c-1.6,0.8-2.9,1.1-3.7-1.1c-0.7-2.4-1.6-4.7-2.5-7
		c-2.3-5.3-3.5-6-8.3-4c-1.5,0.6-3,1.5-4.5,2.3c-2.6,1.3-3.9,0.8-4.9-1.9c-0.7-1.8-1-3.8-1.8-5.5c-1.8-4.2-4.9-6.6-9.6-3.4
		c-1.1,0.8-2.3,1.5-3.5,2.3c-1.6,1.1-2.8,1.3-3.5-1c-0.7-2.1-1.4-4.2-2.3-6.2c-2.2-4.5-5.5-7.8-10.7-3.4c-0.9,0.8-2.1,1.4-3.1,2
		c-0.1-0.2-0.2-0.3-0.4-0.5c0.4-0.5,0.8-1.1,1.2-1.7c-1.7-0.3-3.4-0.6-5-1c-0.1-0.6-0.1-1-0.2-1.5c-0.7-3.6-2.9-6.3-6-7.9
		c-2.6-1.3-4.5,1.4-6.6,2.6c-0.9,0.5-1.8,1-2.7,1.5c-0.1-0.2-0.2-0.3-0.3-0.5c0.5-0.5,1.1-1,2.3-2.2c-4.4,1-5.7-0.9-7.1-4
		c-3.3-7.4-6-7.8-11.6-3.3c-0.6,0.5-1.2,0.9-1.9,1.2c-0.5,0.2-1.2,0.2-1.8,0.3c0-0.2-0.1-0.4-0.1-0.5c0.7-0.5,1.3-0.9,2.2-1.6
		c-2-0.4-3.7-0.6-5.2-1.1c-0.6-0.2-1.2-0.7-1.5-1.2c-1.1-1.8-2-3.7-3.2-5.4c-1.7-2.4-3.6-3-6.2-1.7c-1.6,0.9-2.9,2.3-4.4,3.3
		c-0.9,0.6-2,0.9-3,1.4c-0.1-0.3-0.2-0.5-0.3-0.8c0.8-0.6,1.5-1.1,2.7-1.9c-0.8-0.2-1.1-0.3-1.4-0.3c-3.3-0.1-6.4-0.4-7.6-4.3
		c-0.2-0.7-1-1.3-1.6-1.9c-3.4-3.4-6-3.4-9.4,0.2c-1,1-1.8,2.3-2.9,2.9c-0.9,0.5-2.3,0.4-3.3,0c-0.6-0.2-0.7-1.4-1.2-2.5
		c-2.4,0.6-3.6-1.1-5.2-3.2c-3.4-4.6-6.1-6.6-11.3-0.7c-0.9,1-1.9,1.8-2.9,2.6c-1.8,1.5-3.5,1.4-5.2-0.2c-0.7-0.6-1.5-1.6-2.2-1.6
		c-2.1,0.3-2.9-1-4.1-2.2c-3.8-3.7-6.1-4-9.5-1.3c-1.1,0.9-2,2.1-2.9,3.3c-2.1,3-5.1,4-8.5,3.1c-3.5-1-6.8-2.4-10.2-3.5
		c-2.5-0.8-4.1-2.2-4.6-4.9c-0.6-2.8-1.6-5.5-2.2-8.3c-0.3-1.2-0.3-2.5-0.4-4c1.2-0.1,2.1-0.2,3-0.2c2.2,0.1,3-1.1,2.9-3.1
		c-0.1-1-0.3-2-0.6-3c-2.3-7.5-4.6-14.9-6.9-22.4c-0.9-2.9-1.7-3.2-3.5-1.7c-1.6-0.5-2.7-0.8-3.8-1.1c1.5,3.4,2.8,6.9,7.2,7.6
		c0.4,0.1,1.1,1.1,0.9,1.4c-0.2,0.6-0.9,1.2-1.5,1.4c-0.8,0.2-1.7,0.1-2.8,0.1c0.5,2.2,0.8,4.1,1.6,5.8c0.4,0.8,1.7,1.1,2.6,1.7
		c0.8,0.5,2,0.7,2.2,1.4c0.8,1.9,1.1,4,1.7,6c-2.3,1.1-3.5,0.7-4.1-1.5c-0.5-1.7-1.2-3.4-1.8-5.1c0.8,5.1-3.5,5.3-6.7,6.6
		c0.6-1,1.2-2,1.9-3.2c-2.3,0-4.4,0-6.6,0c0,0.2-0.1,0.5-0.1,0.7c0.7,0.5,1.3,1.1,2.4,1.9c-2.5,0.4-4.5,0.7-6.4,0.9
		c0.6-1.2,1-2.2,1.5-3.2c-0.2-0.1-0.5-0.2-0.7-0.3c-1.2,2-1.2,2-3.1,0.8c-1.9,0.5-3.3,0.9-4.8,1.3c-3.6,0.9-3.8,0.8-4.8-2.8
		C49.7,48.9,47.8,42,46.4,35c-0.5-2.4,0.1-5.1,0.2-7.7c0.1-1.1,0.4-2.1,0.6-3.4c0.7,0.5,1.2,0.9,1.7,1.3c0.5-1.2,0.9-2.2,1.2-2.9
		c1.4,2.4,2.6,4.6,4,7c2.2-1.2,4.5-2.4,7.1-3.8c-0.3,1.3-0.5,2-0.8,3.6c3.1-0.8,5.7-4.4,9.1-1.4c-0.9-1.7-1.9-3.1-3.3-3.9
		c-3-1.7-7.3-1.1-9.2-4.9c-0.1-0.1-0.3-0.1-0.5-0.1c-2.4-0.4-4.7-0.9-7.1-1.2c-2.7-0.3-5.5-0.3-8.2-0.8c-2.1-0.4-3-0.1-3.2,2.3
		c-0.1,1.1-1.6,2.1-2.6,2.9c-0.5,0.4-1.4,0.2-2.4,0.4c1.4,5,2.7,9.8,4,14.6c0.3-1.1,0.2-2.1-0.1-3c-0.7-2.9,1.9-2.8,3.4-3.4
		c0.4-0.2,2,1.1,2.2,1.9c2.7,9.6,5.2,19.3,7.7,29c0.3,1.4,0.1,3-0.3,4.4c-0.2,0.7-1.7,1.7-1.8,1.7c-1.4-1.4-3.7-1.6-4.2-4.3
		c-1.1-6-2.9-11.8-4.5-17.7c-0.1,0-0.3,0.1-0.4,0.1c1,5,2,10,3.1,15.1c-0.1,0-0.2,0-0.3,0.1c-0.5-1.6-1-3.2-1.5-4.7
		c-0.6,0.6-0.6,1-0.6,1.4c0.6,3.6,0.1,4.2-3.5,4.9c-3.4,0.7-6.8,1.5-10.5,2.3c-0.5-1.1-1.1-2.1-1.4-3.2c-2-7.3-3.9-14.7-5.9-22
		c-1.1-4.2-2.4-8.4-3.3-12.6c-1-5-0.9-10.4-5.3-14.1c-1.8-1.8,0.8-2.8,0.3-4.2c-0.8,0-1.6-0.1-2.6-0.3c0.1,1.5,0.1,2.9,0.4,4.2
		c2.2,9.4,4.4,18.7,6.7,28c3.6,14.6,7.1,29.2,10.8,43.9c2.6,10.5,5.4,21,7.9,31.5c0.4,1.5,0.3,3.6-0.5,4.6
		c-5.1,6-8.6,12.9-12.1,19.8c-5.8,11.5-9.1,23.8-10.4,36.6c-1,10.3-0.7,20.5,1.4,30.7c2.9,14.1,8,27.4,12.9,40.9
		c2.8,7.7,4.9,15.7,7.8,23.3c2.5,6.6,5.4,12.9,8.4,19.2c2.1,4.2,2,6.2-1.6,9.3c-2.9,2.5-2.6,6.5,1,7.8c2.5,0.9,5.3,1.4,8.1,1.5
		c4.7,0.2,9.3,0.1,13.5,0.1c0.7,1.7,0.8,3.4,1.6,3.8c5.2,2.7,7,8,8.6,12.7c2.4,6.9,3.3,14.3,4.9,21.5c9.8,0,19.7,0,29.5,0
		c0.1-1.2,0.2-2.4,0.3-3.6c0.4-4.1,0.6-8.1-1.8-11.8c-3.2-5-5-10.5-5.7-16.5c-0.6-5.4-1.8-10.7-2.5-16.1c-0.8-5.9-1.3-11.7,2-17.2
		c0.7-1.2,0.8-3.6,0-4.8c-1-1.6-3-2.8-4.8-3.6c-1.4-0.7-2.2-1.1-2.3-2.8c-0.2-2.8-0.8-5.7-1.4-8.5c-1.1-5.2-1.2-5.1-6.5-4.6
		c-2.1,0.2-3.9-0.3-4.1-2.6c-0.2-2.3-0.2-4.7,0.4-6.9c1.1-4.9,4-8.3,8.9-10.1c4.2-1.6,4.3-2.2,2.8-6.3c-1.3-3.6-2.6-7.1-3.7-10.8
		c-0.8-2.7,0.7-4.4,3.5-3.9c1.2,0.3,2.3,1.4,3.5,1.8c0.8,0.3,2.2,0.6,2.7,0.1c6.2-5.4,12.3-11,18.2-16.6c0.9-0.9,1.8-2.7,1.5-3.8
		c-1.9-7.9-4-15.8-6.2-23.6c-2.7-9.5-5.7-19-8.5-28.5c-0.4-1.3-0.6-3.1,0-4c1.9-3.1,4.1-6.1,6.6-8.8c1.8-2,4.2-1.1,5.1,1.5
		c0.3,0.9,0.5,1.8,0.9,2.6c1.2,2.3,2.9,4,5.6,4c2.4,0,3.7-1.8,4.5-3.9c0.2-0.5,0.4-1,0.7-1.5c0.7-1.2,1.5-2.3,2.2-3.4
		c0.6,1.3,1.3,2.5,1.8,3.8c2,5.8,5.8,6.8,10.1,2.6c4.7-4.5,4.7-4.5,7.4,1.7c1.8,4.1,4.6,5,8.5,2.7c1.2-0.7,2.3-1.5,3.3-2.5
		c1.7-1.7,3.2-1.3,4.3,0.5c0.8,1.3,1.3,2.8,1.9,4.3c1.2,3,4,4.4,7,3.3c1.4-0.5,2.8-1.4,4.1-2.3c3.2-2.5,5-1.9,6.1,2
		c0.2,0.7,0.3,1.5,0.5,2.2c0.8,3.1,3.4,4.8,6.4,4c1.9-0.5,3.8-1.4,5.6-2.3c2.1-1.1,4.3-0.6,5.2,1.6c0.3,0.6,0.4,1.2,0.5,1.9
		c1.8,6.9,5.3,8.1,11.5,4.4c1.9-1.1,4.4-1.3,6.2-1.8c0.6,2.8,0.9,5.2,1.7,7.3s2.1,4.5,4.9,4.2c2.1-0.3,4-1.6,6.1-2.3
		c2.3-0.8,4.7-1.3,7.4-2.1c-0.3,1.3-0.6,1.9-0.5,2.5c0.7,2.9,1,6,2.4,8.5c1.3,2.4,4.4,2.4,6.9,0.6c2.6-1.8,5.3-2.9,8-3.1
		c0.6,2.6,1.3,4.7,1.6,6.9c0.7,5.5,6.2,6.9,10.3,4.3c2.1-1.3,4.7-1.8,6.5-2.4c0.7,3.1,1.6,5.6,1.9,8.2c0.5,3.8,5,5.5,8.7,3.5
		c2.4-1.3,5.3-1.8,7.5-2.5c0.6,2.8,0.9,4.9,1.4,6.9c1.5,5.5,4.7,7,10,4.7c2.2-0.9,4.5-1.7,6.2-2.3c0.7,3.2,0.9,5.9,1.8,8.4
		c1.7,4.8,5.4,6.1,9.7,3.3c3-2,5.7-1.8,8.5-0.1c6.4,3.9,12.7,7.9,19.1,12c9.5,6,18.6,12.6,28.4,17.9c7,3.8,14.6,7.1,22.3,8.9
		c11.7,2.7,23.7,3.9,35.5,5.9c7.6,1.3,15.2,2.9,19.7,10.4c0.9,1.5,1.9,2.9,2.9,4.4c6.5,9.9,12,20.9,23.7,25.9c1,0.4,2.6,0.7,3.4,0.1
		c4.5-3,8.7-6.2,13.1-9.3c3.6-2.4,7-5.3,11.9-4c1.2,0.3,2.6,0.6,3.8,0.4c3.5-0.7,7-1.3,10.3-2.5c1.2-0.5,2.8-2.9,2.4-4
		c-1.4-4.4-3.3-8.7-5.3-12.8c-0.7-1.6-1.2-2.6,0.1-4.2c6-7,11.8-14,17.7-21c1.6-1.9,3.5-3.5,6.5-2.8c0.7,0.2,1.7-0.4,2.5-0.9
		c15.8-10.5,31.6-21,47.4-31.6c7.8-5.2,15.5-10.4,23.3-15.6C620.2,190.2,621.2,189.1,619.8,187.1z M49.8,256
		c2.8-1.3,5.6-2.1,7.7,1.7C54.8,257.1,52,257.8,49.8,256z M55.4,277.2c3.1-0.5,6.1-0.9,9.2-1.4c0.1,0.3,0.1,0.5,0.2,0.8
		c-0.7,0.3-1.5,0.5-2.7,1c1.5,0.2,2.5,0.3,3.6,0.4c0,0.1,0,0.3,0,0.4c-3.4,0-6.8,0-10.3,0C55.4,277.9,55.4,277.5,55.4,277.2z
		 M60.9,284c0-0.4,0-0.8,0-1.2c5.7-1.4,11.5-1.4,17.4-1.8c-1.7,0.5-3.4,1.1-5.6,1.8c1.7,0.2,3,0.4,4.2,0.5c0.1,0.3,0.1,0.6,0.2,0.9
		c-2.6,2-5.8,2.4-9.6,3.2c0.8-0.9,1.2-1.4,1.9-2.2C66.4,284.7,63.6,284.4,60.9,284z M79.8,288.1c-0.2,0.3-0.4,0.6-0.6,1
		c-0.3,0.6-0.7,1.1-1.2,1.3c-4,1.5-8,2.8-12,4.1c-0.4,0.1-1-0.1-1.5-0.1c-0.1-0.2-0.1-0.5-0.2-0.7c4.1-2.2,8.2-4.5,12.4-6.4
		c0.4-0.2,0.9,0,1.5,0.2S79.3,287.9,79.8,288.1z M109.4,104.7c-0.2,0.8-1,1.4-1.5,2.1c-0.6-0.5-1.6-0.9-1.8-1.5
		c-1-3.3-1.8-6.7-2.4-10.1c-0.1-0.7,1.1-2.2,2-2.3c0.9-0.2,2.5,0.6,2.8,1.4c0.9,2,1.2,4.2,1.6,6.2
		C109.9,102,109.8,103.4,109.4,104.7z M121.5,105.2c-0.5-0.8-0.8-1.4-1.5-2.4c-0.2,1.5-0.3,2.3-0.4,3.3c-2.2-2.7-3.8-13.4-3-19.7
		c0.5,0.8,0.8,1.2,1,1.7c0.3,0.6,0.4,1.1,0.9,1.7c-0.1-1.3-0.2-2.7-0.3-4.2C121.3,88.1,123.5,101.4,121.5,105.2z M132.2,105.6
		c-2.2-3.5-2.6-10.4-0.9-12.6C133.6,95,134.1,101,132.2,105.6z M144.7,106.2c-0.1,0.6-1.1,1-1.7,1.5c-0.4-0.6-1-1.1-1-1.7
		c0-5.2,0.1-10.4,0.3-15.7c0-0.5,0.7-0.9,1.1-1.4c0.5,0.5,1.3,0.9,1.4,1.4c0.5,2.7,0.8,5.5,1.3,8.8
		C145.7,101.2,145.3,103.7,144.7,106.2z M154,109.5c-0.3-4.4-1-8.8,0.6-13.4C157.1,98.6,156.7,105.7,154,109.5z M163.2,112.3
		c-0.1-6.9,0.5-13.4,3-20C169.6,96.7,167.8,110.6,163.2,112.3z M175.1,115.4c-0.3,0-0.5-0.1-0.8-0.1c0.6-4.5,1.2-8.9,1.9-14
		C178.8,104.3,177.9,110.8,175.1,115.4z M185.1,119.2c-0.8-1.1-1.6-1.8-1.5-2.3c1-5.3,2.1-10.6,3.3-15.9c0.1-0.3,0.5-0.5,1.2-1.2
		c0.6,1.1,1.3,1.8,1.3,2.6C189.6,108.2,187.7,113.4,185.1,119.2z M195.1,122.9c-0.3-0.1-0.6-0.1-0.8-0.2c0.9-4.5,1.8-9,2.8-13.5
		c0.4,0.1,0.9,0.2,1.3,0.3C199,114.3,197.2,118.6,195.1,122.9z M205.3,124.9c-0.3,0.5-0.9,0.8-1.4,1.2c-0.3-0.1-0.6-0.2-0.8-0.4
		c0.3-1.6,0.5-3.2,0.9-4.7c1-3.7,1.9-7.3,3.1-10.9c0.2-0.7,1.2-1.1,1.8-1.7c0.3,0.7,0.8,1.4,0.8,2.1
		C209.7,115.7,207.6,120.3,205.3,124.9z M214.7,129.4c-0.3-0.1-0.6-0.2-1-0.3c1.1-4,2.2-7.9,3.2-11.9c0.4,0.1,0.8,0.2,1.2,0.3
		C218.5,122,216.7,125.7,214.7,129.4z M223.2,133.4c-1.3-6.4,2-11.6,3.9-17.1c0.3-0.1,0.6-0.2,1-0.3c0.4,0.9,1.3,1.9,1.2,2.7
		C228.5,124,226.6,129,223.2,133.4z M233.2,137.9c-0.3-0.1-0.6-0.2-0.9-0.4c1.2-3.8,2.5-7.6,3.7-11.4c0.4,0.1,0.8,0.3,1.2,0.4
		C236.9,130.7,235.3,134.4,233.2,137.9z M242.3,140.8c-0.2,0.2-0.6,0.2-1,0.3c-0.3-0.2-0.5-0.3-0.8-0.5c1.7-4.9,3.3-9.7,5.1-14.5
		c0.2-0.5,1.2-1.1,1.4-1c0.6,0.3,1.3,1.1,1.2,1.6C247.1,131.7,245.9,136.8,242.3,140.8z M251.5,146.5c-0.3-0.1-0.6-0.2-0.8-0.3
		c1.3-3.8,2.7-7.6,4-11.4c0.4,0.1,0.7,0.3,1.1,0.4C255.3,139.3,253.6,142.9,251.5,146.5z M259.6,149.9c-0.6-3.6,2.9-13.4,5.8-16.7
		C267.8,135.3,264.2,146.2,259.6,149.9z M269.5,155.5c-0.3-0.1-0.6-0.2-0.8-0.3c1.6-4,3.1-7.9,4.7-11.9c0.2,0.1,0.5,0.2,0.7,0.3
		C274.2,148.2,271.6,151.7,269.5,155.5z M277.5,158.7c-0.8-4.2,3.5-14,6.6-15.7C285.4,146.5,281.3,156.5,277.5,158.7z M288,163.7
		c-0.4-0.2-0.7-0.3-1.1-0.5c1.5-3.4,3-6.9,4.5-10.3c0.4,0.2,0.9,0.4,1.3,0.6C291.2,156.9,289.6,160.3,288,163.7z M302.7,154.8
		c-1,4.5-3.2,8.4-6,12c-0.3,0.4-0.8,0.6-1.2,0.9c-0.2-0.1-0.5-0.2-0.7-0.3c0.3-1.3,0.3-2.8,0.9-4c1.5-3.3,3.1-6.5,4.8-9.6
		c0.3-0.6,1.4-0.8,2.1-1.2C302.6,153.3,302.9,154.1,302.7,154.8z M304.3,173.1c1.6-3.4,3.2-6.8,5.1-10.9
		C309.9,165.3,307.3,170.9,304.3,173.1z M312.7,177c-0.5-4.1,4-13.1,7.1-14.4C320.9,166.1,317.2,173.9,312.7,177z M323.2,182.6
		c-0.3-0.2-0.7-0.3-1-0.5c1.5-3.1,3-6.1,4.5-9.2c0.4,0.2,0.8,0.4,1.2,0.7C326.3,176.6,324.7,179.6,323.2,182.6z M337.7,174.8
		c-1.4,4.7-3.7,8.9-7.8,13c-0.1-1.4-0.4-2.1-0.2-2.6c1.8-3.9,3.7-7.8,5.7-11.6c0.2-0.5,1.2-0.5,1.8-0.8
		C337.4,173.5,337.9,174.2,337.7,174.8z M348.7,190.2c-0.2,0.3-1.2,0.5-1.7,0.3c-1.6-0.5-3.1-1.1-5.2-2c0.4-0.9,0.7-2.1,1.3-3
		c1.3-2,2.4-2,3.7,0.1c0.6,1,1.3,1.8,1.7,2.8C348.8,188.9,349,189.8,348.7,190.2z M421.4,227.7c-0.4,1.5-1.9,2-3.6,1.6
		c-1.5-0.4-3.1-0.5-4.6-0.8c-3.8-0.6-7.7-1.3-11.5-1.9c-0.6-0.1-1.1-0.5-1.6-0.8c-1.9-1.4-3.9-2-6.2-1.2c-1.5-0.8-1-5.4-4.7-2.7
		c-0.5-0.9-1.1-1.8-1.6-2.8c-0.5-0.9-0.8-1.9-1.3-3.1c-1.3-0.3-2.9-0.3-1.1-2.7c0.9-1.3,0.5-3.6,0.8-6.2c2.9,0.2,5.9,0.2,8.9,0.8
		s5.9,1.8,8.9,2.7c0.2-0.2,0.3-0.4,0.5-0.6c-0.7-1.1-1.6-2.1-2.1-3.3c-0.4-1.1-0.4-2.3-0.6-3.5c1,0.3,2.4,0.4,3.1,1.1
		c2.4,2.4,4.6,5,6.8,7.7c3.2,3.9,6.3,7.8,9.2,11.8C421.3,224.9,421.7,226.6,421.4,227.7z M433.7,176.5c0.2,1,0.3,1.9,0.3,2
		c-3.6,1.7-6.8,3.3-10.1,4.9c-0.9,0.4-1.8,0.7-2.8,1c-2.2,0.6-4.5,1-7.1,1.6c-3.8-6-7.8-12.3-12-18.9c5,1.2,6.7-2.8,9.3-5.5
		c3.1-3.2,6-6.7,10.7-7.4c3.2-0.5,5.9,1,8,3.5c1.3,1.5,2.2,3.4,3.3,5.1c2.2,3.4,2.2,7.2,2.4,11.1c0,1.1,0.1,2.2,0.2,3.5
		C435.1,177.1,434.5,176.9,433.7,176.5z M463.1,176.2c-0.2-0.2-0.3-0.5-0.5-0.7c2.2-1.4,4.4-2.9,6.5-4.3c0.2,0.3,0.3,0.5,0.5,0.8
		C467.5,173.3,465.3,174.7,463.1,176.2z M466.7,164.2c-0.2-0.3-0.3-0.5-0.5-0.8c3.7-2.7,7.5-5.5,11.2-8.2
		C475.1,159.7,470.6,161.6,466.7,164.2z M474.2,168c-0.2-0.3-0.4-0.6-0.6-0.9c2-1.3,4-2.5,5.9-3.8c0.2,0.2,0.3,0.5,0.5,0.7
		C478.1,165.3,476.2,166.6,474.2,168z M484.8,125.8c-0.3-0.3-0.6-0.6-0.9-0.9c1-1,1.8-2.2,2.9-3c0.3-0.2,1.4,0.8,2.8,1.6
		C487.5,124.5,486.2,125.1,484.8,125.8z M493.2,122.7c-0.3-1.7-1.1-3.3-0.6-3.9c1.8-2.3,3.8-1.2,5.9,0.5
		C496.8,120.3,495.4,121.3,493.2,122.7z M516.3,154.7c1.7-2.3,3.7-1.3,5.6,0.5c-1.4,0.9-2.8,1.8-4.8,3.2
		C516.7,156.9,515.9,155.3,516.3,154.7z M508.2,159.6c1.2-1,2.5-3,4.1-0.2c0.2,0.5,0.9,0.7,1.5,1.2c-1.5,1-2.9,1.9-4.3,2.7
		c-0.2-0.3-0.5-0.5-0.7-0.8c0.7-0.3,1.4-0.7,2.1-1c-0.1-0.2-0.2-0.3-0.3-0.5c-0.4,0.1-0.8,0.4-1.1,0.3c-0.5,0-1.1-0.2-1.6-0.4
		C507.9,160.6,507.9,159.9,508.2,159.6z M504.2,221.7c-0.2-0.3-0.4-0.5-0.5-0.8c3.2-2.1,6.3-4.3,9.5-6.4c0.2,0.3,0.3,0.5,0.5,0.8
		C510.4,217.4,507.3,219.6,504.2,221.7z M530,175.2c1.8-2.5,3.6-1,5.5,0.7c-1.6,1.1-3,2-5,3.3C530.3,177.6,529.5,175.9,530,175.2z
		 M523.7,178.5c0.6-0.2,1.6,0.8,2.4,1.2c-0.1,0.3-0.2,0.6-0.3,0.9c-1.3,0.6-2.6,1.1-4.1,1.8C521,180.1,522.3,179.1,523.7,178.5z
		 M539.1,238.1L539.1,238.1L539.1,238.1c-0.4,0.5-0.6,1.2-1,1.7c-0.1,0.2-0.3,0.3-0.4,0.4c-6.4,4.5-12.8,8.9-19.2,13.3
		c-0.2,0.1-0.5,0.5-0.8,0.8c-0.1,0.1-0.2,0.1-0.2,0.1h-0.1h-0.1l-0.1-0.1c-0.1-0.2-0.2-0.5-0.2-1.1c0,0-0.1,0-0.1,0.1l0.1-0.1
		c0-0.3-0.1-0.6-0.1-0.9c0-0.3,0-0.6,0.1-0.6c7.8-5.3,15.7-10.5,23.6-15.8c0.2,0.2,0.4,0.4,0.5,0.6
		C540.4,237,539.8,237.6,539.1,238.1z M545.3,218.1c-0.2-0.3-0.4-0.6-0.6-0.8c0.9-0.9,1.7-2,2.8-2.6c0.3-0.2,1.3,0.8,2.6,1.7
		C547.9,217.2,546.6,217.7,545.3,218.1z M554.5,215c-0.4-1.3-1.4-2.7-1-3.3c1.7-2.4,3.5-1.3,5.4,0.3
		C557.5,212.9,556.2,213.8,554.5,215z"/>
	<path d="M26.3,8.3c0.2,1,0.2,2.6-0.4,3c-1.4,1.1-3.2,1.6-4.8,2.4c-0.6,0.3-1.1,1-1.6,1.5c0.6,0.5,1.1,1.2,1.7,1.4
		c1.3,0.3,2.7,0.4,4.1,0.4c2.3,0,4,0.5,4.5,3.1c0.1,0.4,0.4,0.8,0.7,1.2c-1.1-5.5-2.7-10.8-4.2-16.1c-0.5-2-1.7-2.4-3.5-2
		c-3.2,0.6-6.5,1.2-9.8,1.7c-2.2,0.4-3.6,1.3-2.9,3.8c4.8-0.4,9.5-0.9,14.3-1.2C25,7.4,26.2,7.9,26.3,8.3z"/>
	<path d="M10.1,8.7L10.1,8.7L10.1,8.7L10.1,8.7z"/>
	<path d="M528.5,87.7c-0.1,0.1-0.1,0.1-0.1,0.2C528.4,87.8,528.5,87.8,528.5,87.7L528.5,87.7z"/>
	<path d="M495.9,109.9c10.3-6.7,20.6-13.5,30.9-20.2c0.6-0.4,1.1-1.1,1.5-1.8c-6.6,4.2-13.3,8.4-19.8,12.7
		c-6,3.9-11.9,7.8-17.8,11.7c-2,1.3-4.1,2.6-6.1,3.9c0.2,0.3,0.4,0.5,0.5,0.8C488.7,114.6,492.3,112.2,495.9,109.9z"/>
	<path d="M473.6,126.4c1-1.2,1.8-2.6,2.9-3.5c1.8-1.5,3.9-2.6,5.9-3.9c-0.2-0.2-0.3-0.4-0.5-0.6c-3.2,2-6.2,4.2-9.5,6.1
		c-3.4,2-7,3.8-8.3,7.9c2.6-1.5,5.2-3,7.8-4.5C472.6,127.4,473.2,126.9,473.6,126.4z"/>
	<path d="M464.2,132.3c0,0-0.1,0-0.1,0.1l0.1,0.1C464.2,132.4,464.2,132.3,464.2,132.3z"/>
	<path d="M463.6,132.7c-4.6,2.4-9.2,4.7-13.7,7.3c-1.6,0.9-2.8,2.5-4.1,3.9c1.8-0.9,3.7-1.6,5.4-2.7
		C455.4,138.5,459.5,135.6,463.6,132.7z"/>
	<path d="M464.1,132.3c-0.2,0.1-0.3,0.2-0.5,0.3C463.8,132.6,464,132.5,464.1,132.3C464.2,132.4,464.1,132.3,464.1,132.3z"/>
	<path d="M445.5,144C445.5,144,445.6,144.1,445.5,144c0.1,0,0.2-0.1,0.2-0.1S445.6,144,445.5,144z"/>
	<path d="M544.4,77.9c-0.2-0.2-0.3-0.5-0.5-0.7c-5,3.4-10,6.8-15,10.2c1.7-0.8,3.4-1.6,5-2.6C537.5,82.6,541,80.2,544.4,77.9z"/>
	<path d="M528.5,87.7L528.5,87.7c0.2,0,0.4-0.1,0.5-0.2C528.8,87.5,528.6,87.6,528.5,87.7z"/>
	<path d="M72.7,34.1L72.7,34.1L72.7,34.1L72.7,34.1z"/>
	<path d="M78.3,32.4c-1.4-2.2-3.3-2.4-4.9-1.6c-0.6,0.3-0.5,2.1-0.6,3.2C73.7,31.2,76,32.2,78.3,32.4z"/>
	<path class="st0" d="M526.2,247c-3.1,2-6.1,4.1-9.2,6.1"/>
	<path class="st0" d="M516.9,253.2L516.9,253.2"/>
</g>
</svg>
