<?xml version="1.0" encoding="utf-8"?>
<!-- Generator: Adobe Illustrator 21.0.0, SVG Export Plug-In . SVG Version: 6.00 Build 0)  -->
<svg version="1.1" id="Layer_1" xmlns="http://www.w3.org/2000/svg" xmlns:xlink="http://www.w3.org/1999/xlink" x="0px" y="0px"
	 viewBox="0 0 414 565" style="enable-background:new 0 0 414 565;" xml:space="preserve">
<style type="text/css">
	.st0{fill:none;}
</style>
<path class="st0" d="M254.7,359.7l-0.1,0.1c2.2-5.5,4.5-11,6.7-16.4c-2.3,5.5-4.5,10.9-6.7,16.4l0,0
	C254.6,359.8,254.7,359.7,254.7,359.7z"/>
<path class="st0" d="M252.9,363.3c0.6-1.2,1.1-2.4,1.8-3.6l0,0C254.1,360.9,253.5,362.1,252.9,363.3z"/>
<path class="st0" d="M360.7,274.3c1.1,1.5,2.1,3,3.2,4.5l0,0C362.8,277.3,361.7,275.8,360.7,274.3z"/>
<path d="M281.6,394.8c1.4-2.8,3.3-5.4,4.3-8.4c4.8-14.3,10-28.6,13.9-43.2c9.7-35.8,15.5-72.3,17.1-109.4
	c0.9-20.7-0.2-41.6-0.8-62.3c-0.5-17.9-4.8-35.1-9-52.4c-1.5-5.9-2.8-11.8-4.7-17.6c-1.1-3.4-3.5-6.4-4.5-9.8
	c-5.7-19.1-13.6-37.2-25.2-53.5c-13.2-18.6-31.2-29.6-53.6-33.4c-1.1-0.2-2.3,0-4.8,0c4.6,2.8,7.9,4.6,11,6.8
	c1.1,0.8,2.6,2.3,2.4,3.3c-0.4,2.8-1.6,5.5-2.8,9c-4.1-1.7-8.2-3.4-12.3-5.1c-1.5-0.6-3-1.4-4.6-1.8c-3.6-0.8-7.3-1.2-10.9-2.2
	c-3.2-0.8-6.2-2.2-9.2-3.3c0.1,0.5,0.3,1.1,0.4,1.6c-1.9,1.5-3.5,3.9-5.6,4.4c-4.6,1.1-9.4,1.6-14.1,1.6
	c-12.5-0.1-23.9,3.3-34.7,9.3c-6.7,3.8-13.1,8-17.9,14.1c2.2-1,4-2.8,6-4c2-1.3,4.4-2.1,6.6-3.2c0.3,0.5,0.7,1,1,1.5
	C99,60.5,72.4,87.2,60,125.4c-1.3-1.3-2.1-2-2.1-2c-3.5,10.3-7.2,20.6-10.4,31c-8.4,27.3-17.7,54.5-24.6,82.2
	c-7.5,30-12.1,60.7-14.1,91.7c-1.9,28.6-2.6,57.1,2.5,85.5c1.9,10.6,3.5,21.5,7.4,31.4c4.1,10.7,7.7,21.9,15.4,31
	c1,1.1,1.8,2.4,2.5,3.7c0.5,1,1,2.1,0.9,3.2c-0.4,5.9,3.3,11.2,8.1,14.4c7,4.7,15.5,7.4,20.2,15.4c-12.1-2.8-21.3-10.5-30.8-19.2
	c0.2,1.5,0.1,1.9,0.3,2.1c0.5,0.9,1.1,1.7,1.7,2.5c9.9,12.1,21.9,20.8,37.7,23.2c1.9,0.3,4.2,0.5,5.6,1.7c8.7,6.9,18.8,10,29.7,9.6
	c4.8-0.2,10.4,0.7,14.6-3.4c0.5-0.5,2.1-0.1,3.2,0c1,0,2.5,0.7,3,0.2c5.2-5.1,11.5-3.7,17.8-3.6c-0.1,0.7,0,1.2-0.2,1.3
	c-1.3,1.3-2.8,2.3-3.9,3.8c-0.9,1.2-2.1,2.9-1.9,4.1c0.9,5.4,0.6,5.8-4.8,4.4c-4.1-1.1-8.2-2.4-12.3-3.6c-0.2,0.4-0.3,0.8-0.5,1.2
	c4.2,2.6,8.3,5.3,13.2,8.4c-12,6.9-24.2,8.2-36.8,8.3c7.5,2.2,14.9,4.3,22.4,4.6c19.5,1,37.6-3.2,53-16.2c2.1-1.8,4.7-3.1,7.2-4.4
	c3.9-2,8.4-3.2,11.7-6c6.8-5.6,13.4-11.5,19.2-18.2c4.9-5.6,9.6-9.9,17.5-10.6c4.5-0.4,8-6.4,7.9-11.8c-0.1-5-1.9-8.4-7.6-8.1
	c-0.4,0-0.8-0.5-1.7-1.2c9.4-14.2,19.3-27.6,27.6-42C267,425.5,274,410,281.6,394.8z M311.6,218.4c0.3,0,0.6,0,1,0.1
	c-0.8,11.5-1.6,22.9-2.4,34.4c-0.3,0-0.5,0-0.8-0.1C310.2,241.4,310.9,229.9,311.6,218.4z M35.5,332.4c-0.1,1.5-2.6,2.8-4.1,4.2
	c-1.3-1.5-3.2-2.9-3.7-4.7c-1.6-5.8,1.1-10.1,5.3-13.6c0.6,0,1.2,0.1,1.8,0.1C35.1,323.1,35.7,327.8,35.5,332.4z M107.4,309.1
	c0.7,0,1.4-0.1,2.1-0.1c0.2,2.2,0.4,4.3,0.5,6.5c-0.9,0-1.7,0.1-2.6,0.1C107.4,313.5,107.4,311.3,107.4,309.1z M105.7,226.8
	c0.5,0.1,0.9,0.3,1.4,0.4c-1.9,6.3-3.7,12.7-5.6,19c-0.6-0.2-1.3-0.4-1.9-0.5C98.6,238.4,103.5,233,105.7,226.8z M48,339
	c-4.5-5.8-4.4-11.1,0.6-17.1c2.7,3.3,7,6.2,6.9,8.9C55.2,333.6,50.7,336.1,48,339z M73.8,237.7c-2.3,3.3-4.1,7.2-7.1,9.8
	c-2.2,1.9-5.9,2.2-10.2,3.6c0-7.6,0-14.5,0-21.5c-0.7-0.1-1.3-0.2-2-0.3c-2.4,5.8-4.9,11.5-7.7,18.2c-6.2-6.1-6.6-12.9-5.8-19.3
	c2.3-16.8,5.1-33.6,24.1-43.2c-0.5,4.8-0.8,8.4-1.4,13.7c3.3-2.2,5.8-3.4,7.6-5.2c3-3,6.1-1.9,8.6-0.3c1.6,1,2.9,3.5,3.2,5.4
	C84.8,212.8,81.9,225.9,73.8,237.7z M82.3,489c0.3-3,1.9-5.3,5-4.7c10.9,2.2,19.5-3.8,28.7-7.9c1.5-0.7,3.1-1.1,5.8-2
	C117.1,486.7,94.3,494.4,82.3,489z M127.9,232.6c-2.7,8.7-5.5,17.3-8.6,25.8c-0.6,1.5-2.6,2.6-3.9,3.8c-0.7-1.7-1.3-3.4-2.5-6.3
	c2.7-7.1,5.5-14.8,8.5-22.5c0.5-1.2,1.5-2.3,2.5-3c0.9-0.7,2.2-1,3.4-1.4C127.5,230.2,128.2,231.5,127.9,232.6z M254.8,163.4
	c0.4,1.5,0.8,3,1.2,4.7c0.2-1.5,0.4-2.7,0.6-3.9c0.3,0,0.6,0,0.9,0c0.3,3.2,0.6,6.4,0.8,8.9c-1.6,0.6-2.8,1-4.3,1.5
	c-0.2-3.2-0.5-7.1-0.7-10.9C253.8,163.6,254.3,163.5,254.8,163.4z M157,54.1c1.4-0.7,2.5-2.1,3.9-2.9c1.5-0.8,3.3-2.1,4.7-1.8
	c16.6,3.6,25.7,15.3,32.4,29.7c-0.4,0.5-0.7,0.9-1.1,1.4c-1.6-1.2-3.4-2.2-4.8-3.6c-4.4-4.3-8.1-10-13.3-12.9
	c-4.9-2.7-11.4-2.6-17.2-3.8c-1.7-0.4-3.7-0.5-5.1-1.5C154.3,57.3,153.9,55.5,157,54.1z M131,33.2c5.9-2.3,10.8-4.2,15.6-6.1
	C144.2,32,135.8,35.1,131,33.2z M146.6,333.6c0-4.3,0-8.6,0-12.9c0.7,0,1.4,0,2.1-0.1c0.2,4.3,0.4,8.6,0.6,12.9
	C148.4,333.6,147.5,333.6,146.6,333.6z M155.6,269.1c-0.6-0.2-1.3-0.4-1.9-0.6c0.2-11,4.2-20.8,9.9-30c0.6,0.2,1.2,0.4,1.9,0.6
	C162.2,249,158.9,259.1,155.6,269.1z M179.2,329.8c-3,0.9-6.1-3.7-5.7-8.3c0.3-3.1,0.9-7.6,4.8-6.6c2.8,0.7,4.6,5,7.7,8.7
	C183.1,326.4,181.5,329.2,179.2,329.8z M198.2,253c-2.3,7.9-4.9,15.7-8.2,23.3c-1.3,3.1-4.5,7.4-8.3,5.2c-2.6-1.5-4.3-6.1-4.8-9.5
	c-1.1-8.1,2.3-15.2,7.2-21.4c1.7-2.2,5.2-2.9,7.9-4.3C196.6,246.9,199.4,248.8,198.2,253z M229.8,382c-7.4,12.3-12,26.3-21.9,37.1
	c-1.2,1.3-2,3-3,4.6c-3.1-0.5-3.7-1.4-2.3-4.6c5.7-13,12.7-25.6,13.8-40.2c0.1-1.3,0.3-2.8,1.1-3.8c8.7-10.5,9.3-24,13.7-36.1
	c3-8.1,4.5-16.7,6.8-25c0.5-1.8,1.9-3.3,3-5.2c0,7.1-0.6,13.6,0.2,19.9c0.9,6.9,0.1,13.5-1.7,20c-0.7,2.4-1.3,4.8-1.5,7.5
	c0.8-1.1,1.6-2.3,2.5-3.4c-1,3.3-0.5,6.8-4.4,9.5c-2.6,1.8-2.7,7.2-3.8,11C231.4,376.3,231.2,379.5,229.8,382z M235.6,423.1
	c-0.5-0.1-1.1-0.3-1.6-0.4c-0.4-3.4-0.7-6.8,4.4-8.4C237.4,417.2,236.5,420.1,235.6,423.1z M252.5,384.1c-0.5,1.9-0.9,3.8-0.8,5.8
	c-0.9,2.1-5.1,2.7-2.6,6.7c0.4,0.7-2,3.1-3,4.8c-1.3,2.3-2.5,4.6-3.7,7c0.4,0.2,0.9,0.5,1.3,0.7c-1.9,0.3-3.8,0.7-4.9,0.9
	c2.6-8.3,5.3-16.6,8-25s5.4-16.8,8.1-25.3c-0.6,1.2-1.2,2.4-1.8,3.6s-1.2,2.4-1.9,3.5c-5,7.8-3.7,18.4-11.2,25.2
	c-1.1,0.9-1.1,3-1.7,4.5c-0.6,1.4-1.3,2.7-1.9,4c-0.6-0.2-1.1-0.5-1.7-0.7c1.4-4,3.1-7.8,4.2-11.9c1.9-7,3.5-14.1,5.1-21.1
	c2.2-9.5,4.3-18.9,11.8-25.9c-0.3,6.4-0.7,12.8-1,19.1c2.3-5.5,4.5-11,6.7-16.4c0.7-1.7,1.6-3.4,2.5-5.3c4.7,6.6,1.6,12.4-0.4,18
	c-1.9,5.3-1.4,12.2-8.3,15.5C258.2,376.1,253.6,379.8,252.5,384.1z"/>
<path d="M407.9,284.2c-1.9-12.4-6.3-23.7-13.6-34c-5.9-8.4-14.2-9.9-24-9.8c1.9,9.7,9.2,18.5,2.5,30c-1.6-4.9-3.1-8.7-3.9-12.6
	c-3.3-14.9-10.5-27.6-20.4-39c-4.9-5.6-10.7-9.9-18.3-11.3c-7.7-1.4-8.4-1.1-8.5,6.7c-0.5,39.3-5.5,78.1-14.5,116.3
	c-6.4,27.1-15,53.5-26,79.1c-0.7,1.7-1.1,3.6-2.1,6.8c6.3-0.6,11.6-0.6,16.7-1.6c13.7-2.8,25.3-9.8,35.6-19.1
	c1.6-1.4,3.6-2.3,5.4-3.5c0.4,0.6,0.7,1.1,1.1,1.7c-3.2,2.8-6.3,5.6-8.9,7.8c6.3,0.7,12.8,1.5,19.4,2.1c1.5,0.1,3.1-0.1,4.4-0.6
	c4-1.5,8.3-2.7,12-4.9c8.3-4.9,14.3-11.8,19.9-20.1C404,349.6,413.2,318.8,407.9,284.2z M331.5,278.4c-0.4,0-0.8,0-1.1,0
	c0-3.3,0-6.7,0-10c0.4,0,0.8,0,1.1,0C331.5,271.7,331.5,275.1,331.5,278.4z M363.8,278.8c-0.8,0.4-2,1.3-2.4,1.4c-0.1,0-0.1,0-0.1,0
	c-1.1-1.4-2-3-2.9-4.5c0.7-0.5,1.5-0.9,2.2-1.4C361.7,275.8,362.8,277.3,363.8,278.8L363.8,278.8L363.8,278.8z"/>
</svg>
