<?xml version="1.0" encoding="utf-8"?>
<!-- Generator: Adobe Illustrator 21.0.0, SVG Export Plug-In . SVG Version: 6.00 Build 0)  -->
<svg version="1.1" id="Layer_1" xmlns="http://www.w3.org/2000/svg" xmlns:xlink="http://www.w3.org/1999/xlink" x="0px" y="0px"
	 viewBox="0 0 190 91.5" style="enable-background:new 0 0 190 91.5;" xml:space="preserve">
<style type="text/css">
	.st0{stroke:#000000;stroke-width:0;stroke-linecap:round;stroke-linejoin:round;}
</style>
<g>
	<path d="M50.8,35.1c0,0.1,0,0.1,0,0.2l0.1-0.1L50.8,35.1z"/>
	<path d="M50.8,35.3l0.1,0.1c0-0.1,0-0.1,0-0.2L50.8,35.3z"/>
	<path d="M188.1,44.3c-0.4-4.2-2.3-7.3-3.6-11c-1.6-4.4-3.8-6.1-8.2-5.4c-1.3,0.2-2.7,0.1-4.1,0c-4-0.4-7.4,0-10.3,3.6
		c-1.6,2-4.2,3.3-7.4,2.1c-2.5-0.9-5.4-1-8.5-1.5c0,5.3,0,9.6,0,13.8c0,4.3,0,8.6,0,13.5c2.1-0.1,5,0.6,7.1-0.5
		c4.2-2.1,6.8-0.1,9.7,2.3c1.3,1,2.9,2.2,4.4,2.3c4.1,0.3,8.2,0.2,12.3,0c1,0,2.6-0.7,3-1.5C185.5,56.4,188.7,51.3,188.1,44.3z"/>
	<path d="M95.5,18.6c4.1,0,4.9-1.1,4-5.3c-0.6-2.6-1.1-5.3-1.1-8c0-2.9-1.2-4.1-4-4.1c-5,0-10-0.2-14.9,0.2
		c-1.9,0.1-4.7,0.9-5.6,2.3c-2.6,4.3-4.5,9-7,14.5c2.3,0.2,3.5,0.3,4.7,0.3C79.5,18.6,87.5,18.6,95.5,18.6z"/>
	<path d="M94.9,73.3c-7.9,0-15.7,0-23.6,0c-1.2,0-2.3,0.2-4.4,0.4c2.6,5.5,4.6,10.3,7.2,15c0.6,1,2.7,1.7,4.2,1.7
		c5.6,0.2,11.2,0.2,16.8-0.1c1.1-0.1,2.7-1.6,3.1-2.8c0.8-2.7,1-5.6,1.5-8.3C100.5,74.3,99.7,73.3,94.9,73.3z"/>
	<path d="M64.5,24.1c-2.8,2-3.4,4.3-1.8,7.1c1.8,3,3.6,6,5.3,9c2.3,3.9,2.5,7.6-0.2,11.5c-1.9,2.8-3.5,5.8-5.2,8.6
		c-1.8,2.9-0.8,5.1,1.7,6.9C73.2,58.3,74.4,37.3,64.5,24.1z"/>
	<path d="M11.1,60.1c-2.2-3.4-4.4-6.7-7.2-10.9c-1.7,8.3,4.9,20.8,12.4,23.4c-0.4-2.4-0.4-4.3-1.2-5.9
		C14.1,64.4,12.5,62.3,11.1,60.1z"/>
	<path d="M5.1,40.8c3.4-5.3,7-10.6,10.2-16c0.8-1.3,0.3-3.3,0.5-5.4C8,23.1,1.9,34.9,3.9,41.3C4.3,41.1,4.9,41.1,5.1,40.8z"/>
	<path d="M34.4,76.1c-0.9,0-1.7,2.1-2.5,3.2c1,0.6,2.1,1.7,3.1,1.7c2.5-0.2,5.6,1.3,7.5-1.7c0.2-0.3,1.2-0.2,1.7,0
		c3.1,1.4,5.1-0.3,7.2-2c0-0.4-0.1-0.9-0.1-1.3C45.7,76.1,40.1,75.8,34.4,76.1z"/>
	<path d="M10.1,54.1c0-6,0-11.1,0-16.2C3.7,41.6,3.4,48.1,10.1,54.1z"/>
	<path d="M63.7,36.6c0,6.5,0,12.1,0,18.5C69.6,47.1,69.6,45.1,63.7,36.6z"/>
	<path d="M36.2,16.1c1.5,0,2.3,0.3,2.7,0c1.2-0.9,2.3-2.1,3.4-3.1c-1.2-0.7-2.2-1.7-3.5-2.1c-1.1-0.4-2.5-0.3-3.7,0
		C34,11.1,33,11.6,32,12.1c0.8,1.3,1.5,2.7,2.5,3.8C35,16.3,36.2,16.1,36.2,16.1z"/>
	<path d="M142.1,58.9c0.1,0,0.8,0,0.8-0.1c0-8.6,0-17.1,0-25.7c-0.3-0.1-0.6-0.1-0.8-0.2C142.1,41.6,142.1,50.3,142.1,58.9z"/>
	<path d="M44.5,17.9c3.7,2.3,7.5,4.5,11.8,7.1C54.6,17.8,53.4,17.1,44.5,17.9z"/>
	<path d="M19.1,23.8c3.4-2,6.7-3.9,10.4-6.1C22.1,16.6,19.1,18.3,19.1,23.8z"/>
	<path d="M22.3,15.3c3,0,5.9,0,9,0C29.7,11.1,28.8,11.1,22.3,15.3z"/>
	<path d="M31,76.3c-3,0-6,0-9,0C27.3,80.1,30.7,81.4,31,76.3z"/>
	<path d="M138.1,58.9c0.3,0,0.6-0.1,0.9-0.1c0-8.6,0-17.3,0-25.9c-0.3,0-0.6,0-0.9,0C138.1,41.6,138.1,50.3,138.1,58.9z"/>
	<line class="st0" x1="50.9" y1="35.1" x2="50.8" y2="35.3"/>
	<path d="M60.6,66.3c-1.3,0.4-2.3,1.4-3.5,2.1c-0.5-1-1-2.1-1.6-3.2c8.8-10.2,10.2-23.2,1.6-36.1c-4.6-6.9-16.2-13.1-26.8-9.7
		c-10.4,3.4-17,10.5-18.7,21.4C10,51.6,12.5,61.1,22,68.3c-1.6,0-2.5,0-3.6,0c2.1,6.1,2.7,6.6,8.5,6.5c1.9,0,3.9-0.8,5.8-1
		c2.7-0.2,5.4-0.1,8.1,0c3.9,0.1,7.9,0.8,11.7,0.4c1.4-0.1,2.5-2.6,3.7-4c1,0.5,2.2,1.7,2.9,1.4c1.3-0.6,2.4-1.9,3.3-3.1
		C62.5,68.3,60.9,66.3,60.6,66.3z M21.2,50.3c-2.4-3.7-1.1-12.6,2-16.8c2.5-3.5,6.3-5.3,10-4.3C21.3,31.6,21.3,40.8,21.2,50.3z
		 M36.7,59.8c-6.6,0.4-13.8-6.9-14.1-13.6c-0.3-7.6,6.6-15,14.1-15c9,0,14,5.1,14,14.6C51.4,54.1,45.3,59.3,36.7,59.8z M54.2,49.3
		c-1.1-4.6-2.2-9.3-3.3-13.9l-0.1-0.1c0-0.1,0-0.1,0-0.2c-3.1-2.1-6.2-4.2-9-6.1c0.6-0.2,1.2-0.2,1.9-0.1c2.9,0.4,6.5,3.1,7.1,6.2
		l0.1,0.1c0,0.1,0,0.1,0,0.2c2.2,1.7,3.5,4.7,3.8,8.1C54.9,45.3,54.7,47.3,54.2,49.3z"/>
	<path d="M43.7,15.4c2.8,0,5.5,0,8.1,0C46.3,11.1,45,11.1,43.7,15.4z"/>
	<path d="M59,24.6c0.6,0.5,2.6,0.3,3-0.2c2-2.5-0.4-3.5-2.1-5.2C57.7,21.1,56.9,22.8,59,24.6z"/>
	<path d="M129.7,32.8c-2.7-0.3-6.9-0.1-7.8-1.6c-1.4-2.6-2.9-3.2-5.2-2.9c-6.1,0.8-10.5-1.8-14.5-6.2c-1-1.1-2.9-2-4.5-2.1
		c-9.6-0.2-19.2-0.1-28.9,0c-3.1,0-4.1,1.9-2.4,4.3c3.8,5.2,5.8,10.8,6.2,17.5c0.5,9.1-0.2,17.5-5.9,25c-0.7,1-1.3,2.8-0.8,3.7
		c0.4,0.8,2.2,1.3,3.5,1.3c8.9,0.1,17.7,0.2,26.6,0c1.7,0,3.8-0.8,4.9-2c4.4-4.3,9.4-6.9,15.7-6.3c2.8,0.3,5-0.3,5-3.7
		c5.2-0.3,9.8-0.5,14.3-0.8c0-9,0-17.4,0-26.2C133.8,32.8,131.7,33.1,129.7,32.8z M129.5,56.8c-0.3,0-0.6,0-0.9,0
		c0-7.4,0-14.8,0-22.2c0.3,0,0.6,0,0.9,0C129.5,42.1,129.5,49.4,129.5,56.8z M132.4,34.8c0.2,0,0.5,0,0.7,0c0,7.4,0,14.7,0,21.9
		c-0.2,0-0.5,0-0.7,0C132.4,49.4,132.4,42.1,132.4,34.8z"/>
</g>
</svg>
