<?xml version="1.0" encoding="utf-8"?>
<!-- Generator: Adobe Illustrator 21.0.0, SVG Export Plug-In . SVG Version: 6.00 Build 0)  -->
<svg version="1.1" id="Layer_1" xmlns="http://www.w3.org/2000/svg" xmlns:xlink="http://www.w3.org/1999/xlink" x="0px" y="0px"
	 viewBox="0 0 202.5 215.5" style="enable-background:new 0 0 202.5 215.5;" xml:space="preserve">
<g>
	<path d="M109.5,130.6c1.8,0,3.2,0,4.7,0c25.2,0,50.5,0,75.7,0c1.4,0,2.8-0.1,4.1,0.1c3.1,0.4,5.4,3,5.3,5.8
		c-0.1,2.9-2.4,5.1-5.7,5.3c-0.9,0.1-1.7,0-2.6,0c-59.4,0-118.7,0-178.1,0c-0.9,0-1.8,0-2.6,0c-3.1-0.2-4.9-1.9-5.3-4.8
		c-0.4-3.2,1.4-5.2,4.4-6.1c1.3-0.4,2.7-0.2,4.1-0.3c26.7,0,53.5-0.1,80.2,0.1c3.5,0,4.4-1,4.4-4.4c-0.1-36.8,0-73.6,0-110.3
		c0-1.6,0-3.3,0.1-4.9c0.3-3,2-4.8,5-5.1c3.3-0.4,5.2,1.5,6,4.4c0.4,1.4,0.3,3,0.3,4.5c0,37,0,74,0,111
		C109.5,127.3,109.5,128.6,109.5,130.6z"/>
	<path d="M102.2,179.2c-16.2,0-32.5,0-48.7,0c-1.4,0-2.8,0.1-4.1-0.1c-3.1-0.4-5.2-2-5.4-5.2s1.7-5.1,4.7-5.8c1.4-0.3,3-0.4,4.4-0.5
		c32.6,0,65.2,0,97.8,0c1.7,0,3.5,0.2,5.2,0.6c2.9,0.7,4.6,2.6,4.4,5.7c-0.2,3-2.2,4.7-5,5.2c-1.3,0.2-2.7,0.1-4.1,0.1
		C134.9,179.2,118.6,179.2,102.2,179.2z"/>
	<path d="M102.2,211.7c-6,0-12,0-18,0c-4.3,0-7.1-2.3-7.2-5.5s2.7-6,6.9-6c12.1-0.2,24.2-0.2,36.3,0c4.7,0.1,7,2.6,6.8,6.2
		c-0.2,3.4-2.6,5.3-7.2,5.3C113.9,211.7,108.1,211.7,102.2,211.7z"/>
</g>
</svg>
