<?xml version="1.0" encoding="utf-8"?>
<!-- Generator: Adobe Illustrator 21.0.0, SVG Export Plug-In . SVG Version: 6.00 Build 0)  -->
<svg version="1.1" id="Layer_1" xmlns="http://www.w3.org/2000/svg" xmlns:xlink="http://www.w3.org/1999/xlink" x="0px" y="0px"
	 viewBox="0 0 209 190" style="enable-background:new 0 0 209 190;" xml:space="preserve">
<g>
	<path d="M158.5,144.8c-9.5-3.7-16.8-9.8-22.9-17.7c-3.5-4.5-6.8-4.1-9.3,0.9c-0.5,1-1.1,2.2-2,2.7c-9,5.4-18.7,7.1-29,4.8
		c-2.3-0.5-5.3-0.9-4.4-4.6c0.7-3.1,1.6-5.7,5.8-5.1c2.5,0.4,5.1-0.2,7.7-0.4c0.1-0.5,0.1-1.1,0.2-1.6c-3.3-1.9-6.7-3.8-10-5.7
		c0.2-0.6,0.3-1.1,0.5-1.7c7.6-0.7,15.3-1.5,22.9-2.2c0-0.8-0.1-1.5-0.1-2.3c-3.5,0-7.1,0-10.6,0c-1.1,0-2.8,0.6-3.3,0.1
		c-3.5-4.1-7.6-1.7-11.6-1.4c-1.8,0.1-3.7-0.2-5.5-0.5c-1.1-0.2-2.2-0.6-3.3-1c-0.2,1.3-0.9,2.8-0.6,4c0.9,2.7,2.3,5.2,3.5,7.8
		c-0.5,0.5-1,0.9-1.5,1.4c-2.7-2.3-5.4-4.7-8.2-6.9c-1.2-0.9-2.6-1.5-3.9-2.3c-0.2,1.5-1,3.2-0.6,4.5c2.3,7.5-1.1,12.8-6.8,16.5
		c-4.8,3.1-10.1,5.6-15.6,7.3c-14.8,4.8-29.8,9-44.8,13.5c0,10.7,0,21.3,0,32c26.2,0,52.1,0,78,0c-5.6-12.4-5.2-26.3-9.2-39.1
		c-1.9-6.3-2.7-12.6-0.6-19.7c5.2,9.7,13.2,15,22.8,18.4c1,0.4,2.3,0.8,3.3,0.5c10-2.6,20.1-5,28.1-12.2c2.1-1.9,4.4-3.5,6.9-5.4
		c0,3,0.5,7-0.1,10.8c-1,5.9-3,11.6-4.3,17.4c-0.9,4.4-0.9,8.9-1.9,13.3c-1.3,5.4-3.3,10.6-5,15.9c27.3,0,54.7,0,82,0
		c0-7.7,0-15.3,0-23C189.5,157.6,174.1,150.8,158.5,144.8z"/>
	<path d="M101.1,156.8c-5.3,9.9-10.7,20-16.1,30.2c10,0,20,0,30,0C117.6,175.4,111.3,160.5,101.1,156.8z"/>
	<path d="M59.3,69.8c-3.2,2.3-2.6,5.3-1.8,8.1c1.3,4.5,2.8,8.9,4.4,13.3c0.3,0.9,1.2,1.5,2.5,3.1c-0.2-4.2-0.5-7.2-0.6-10.2
		c-0.1-3-0.1-6,0.2-9c0.1-1.3,1.1-2.5,1.7-3.7c1,0.7,2,1.5,3,2.2c2.1,1.4,4.2,3.7,6.4,3.8c5.1,0.3,10.3-0.4,15.4-0.8
		c0.4,0,0.7-0.9,1-1.3c0.8,1.6,1.6,3.2,2.4,4.7c0.7-0.2,1.4-0.5,2.1-0.7c-0.8-2.6-1.4-5.2-2.4-7.7c-0.4-1-2.2-1.9-2-2.6
		c1.4-7.6-4.8-6.1-8.5-7c-3.4-0.9-7.1-0.9-10.6-1.3c1.8-13.4,2.4-14.3,8.9-13.9c6.5-8.3,14.7-11.9,24.6-11.7c3.6,0.1,8.4-2,9.8,3.8
		c9.6-2.7,16.3-2.8,17.8,12.4c0.3,2.9,0.4,6.5,2.1,8.5c4.5,5.4,5.9,11.4,6,18c0.1,5.9,0,11.7,0,17.6c0.2,0,0.4,0.1,0.6,0.1
		c0.3-1.2,0.6-2.4,0.8-3.7c1.9-9.9,2.7-19.9,6.7-29.4c2-4.7,2.4-10.4,2-15.5c-0.4-5.5-3.4-10.7-3.8-16.2
		c-0.5-7.4-6.7-10.3-10.9-13.8c-6-5.1-14-8-21.4-11.2c-10.8-4.7-22.1-3-32.8,0.1c-4.9,1.4-9,5.7-13.2,9.1c-2.5,2-4.8,4.4-6.6,7
		c-1.9,2.7-3.3,5.7-4.6,8.7c-0.9,1.9-1.5,4-1.8,6c-1.3,9.8-0.2,19.4,3.1,28.8C60.5,66.8,60.2,69.2,59.3,69.8z M83.7,70
		c-2.9,0.3-5.7,0.6-8.6,0.8c0-0.5-0.1-0.9-0.1-1.4C77.8,67.7,80.6,66.4,83.7,70z"/>
	<path d="M135.5,68c-0.8-1.8-1.1-4.3-2.5-5.1c-4.7-3-17.5-1.3-21.9,3.7c3.3,0,6.7-0.2,10,0.1c3.2,0.2,6.3,1,9.5,1.3
		C132.2,68.1,133.8,68,135.5,68z"/>
	<path d="M112.9,71.8c-0.5,0.6,0.6,3.8,1,3.9c5.7,0.3,11.4,0.2,17.5,0.2C128.4,70.1,116.2,67.8,112.9,71.8z"/>
</g>
</svg>
