<?xml version="1.0" encoding="utf-8"?>
<!-- Generator: Adobe Illustrator 21.0.0, SVG Export Plug-In . SVG Version: 6.00 Build 0)  -->
<svg version="1.1" id="Layer_1" xmlns="http://www.w3.org/2000/svg" xmlns:xlink="http://www.w3.org/1999/xlink" x="0px" y="0px"
	 viewBox="0 0 124 239" style="enable-background:new 0 0 124 239;" xml:space="preserve">
<g>
	<path d="M21.2,88.6c1,0.8,2.9,0.5,4.4,0.5c23.7,0.1,47.5,0.1,71.2,0.2c3.2,0,6.5,0.4,9.7,0.1c3.4-0.4,4.3-2.3,3.4-5.6
		c-0.8-2.8-3-3.4-5.2-3.3c-4.2,0.1-5.5-2.4-6.5-5.8c-1.5-4.9-3.1-9.7-5.2-14.4c-3.5-7.9-10.6-11.7-18.2-14.5
		c-4.6-1.6-5.7-2.4-5.6-7.4c0.1-8.2,0.2-16.5,0.3-24.7c0-3.1-1.6-5.1-4.6-5.2c-3.3-0.2-4.6,2.1-4.7,5.1c-0.3,5.2-0.5,10.4-0.7,14.1
		c0,4.8-0.1,8.1,0,11.3c0.2,3.4-1,4.9-4.4,6.2c-5.3,2-11,4.3-14.9,8.2c-4.1,4-6.4,9.9-9,15.2c-1,2.1-0.9,4.9-0.6,7.3
		c0.3,3.1-0.9,4.5-4,4.2c-1.8-0.2-3.6,0-5.3,0.1c-2.4,0.1-4.1,1.5-3.5,3.8C18.2,85.7,19.7,87.4,21.2,88.6z"/>
	<path d="M104.4,146.2c-8.6-0.2-17.2-0.5-25.8-0.6c-15.8-0.1-31.7,0-47.5,0c0-0.3,0-0.5,0-0.8c-3.2,0-6.5,0.1-9.7,0
		c-2.5-0.1-3.6,1.2-3.9,3.5c-0.4,3.6,1.1,5.4,5,5.9c5.8,0.6,6.2,1.4,7.1,7.3c1.4,8.3,4.4,15.9,11.6,20.9c4.2,2.9,9.1,4.8,13.5,7.5
		c1.4,0.9,3,2.9,3.1,4.5c0.3,5.2,0,10.5,0,15.7c0,4.2-0.1,8.5,0.5,12.6c0.2,1.3,2.3,2.9,3.8,3.4c1.1,0.3,3.2-0.7,4-1.8
		c0.8-1.2,0.9-3.1,0.9-4.7c0.3-8.3,0.6-16.7,0.7-25c0-2.2,0.4-3.8,2.9-4.5s4.8-1.9,7.2-2.9c10.8-4.4,16.5-12.9,18.9-24
		c1.5-7.3,1.4-7.3,9-8.2c3.4-0.4,4.5-2,3.9-5.4C108.8,146.6,106.8,146.2,104.4,146.2z"/>
	<path d="M40.6,103.6c0.1,5.1-0.3,10.3-0.5,15.4c-0.1,2.8,2.2,5.9,4.7,5.8c3.1-0.1,4.6-2,4.6-5.2c0.1-5,0.4-9.9,0.5-14.9
		c0.1-5-0.5-5.6-5-5.6C41.7,98.5,40.5,100,40.6,103.6z"/>
	<path d="M82.8,99.8c-2.1,0.2-4.9-1-4.8,3.2c0.1,6.9-0.4,13.8-0.6,20.7c7.8,2.4,9.6,1,9.6-7.7c0-4.2-0.1-8.5,0.1-12.7
		C87.2,100,85.4,99.6,82.8,99.8z"/>
	<path d="M77.4,123.7c-0.1,0-0.1,0-0.1,0S77.4,123.8,77.4,123.7z"/>
</g>
</svg>
