<?xml version="1.0" encoding="utf-8"?>
<!-- Generator: Adobe Illustrator 21.0.0, SVG Export Plug-In . SVG Version: 6.00 Build 0)  -->
<svg version="1.1" id="Layer_1" xmlns="http://www.w3.org/2000/svg" xmlns:xlink="http://www.w3.org/1999/xlink" x="0px" y="0px"
	 viewBox="0 0 697.3 196" style="enable-background:new 0 0 697.3 196;" xml:space="preserve">
<g>
	<path d="M122.8,4.4c-15.8-1.5-31,0.9-45.7,6.7c-24.3,9.7-43.4,25.7-57,48c-13,21.1-18.8,44-14.1,68.7c3.9,20.7,14.7,37.1,32.7,48.3
		c18.6,11.6,38.9,13.9,60.1,10.2c16.7-2.9,31.7-9.9,45.4-19.8c2.5-1.8,4.9-3.8,7.3-5.7c-0.1-0.1-0.1-0.3-0.2-0.4c-0.6,0-1.2,0-1.9,0
		c-27.2,0-54.4,0-81.7,0c-3.6,0-4.7-1.3-4-4.9c3.6-19,7.1-38,10.6-57c4.2-22.4,8.4-44.9,12.6-67.3c0.6-3.2,2.2-4.5,5.4-4.5
		c10.9,0,21.8,0,32.7,0c3.5,0,4.8,1.8,4.2,5.2c-1.2,6.5-2.4,13-3.7,19.6c-3.8,20.4-7.6,40.7-11.4,61.1c-1.6,8.3-3.1,16.7-4.7,25.2
		c0.5,0,0.7,0.1,0.9,0.1c20.2,0,40.3,0,60.5,0c0.6,0,1.6-0.5,1.9-1.1c2.6-4.3,5.4-8.6,7.6-13.1c8.9-18.2,12.7-37.4,9.4-57.6
		C184.4,32.8,158.8,7.9,122.8,4.4z"/>
	<path d="M561.8,106.2c-0.7-1.3-1.4-2.5-2.2-4.1c0.9-0.2,1.6-0.3,2.3-0.6c3.5-1.3,7.2-2.2,10.4-3.9c7.3-4.1,10-11,10.8-18.9
		c0.8-8.1-2.3-14.2-9.4-18.2c-3.8-2.2-7.9-3.6-12.2-4c-6.8-0.7-13.6-1.2-20.4-1.3c-7.5-0.1-15,0.3-22.5,0.6
		c-3.1,0.1-3.7,0.7-4.2,3.5c-4.7,25.2-9.3,50.4-14,75.5c-0.4,2.2,0.2,3,2.5,3c6.4,0,12.8,0,19.2,0c2.7,0,3.4-0.7,3.9-3.4
		c1.7-9.2,3.5-18.4,5.1-27.6c0.3-1.6,0.8-2.1,2.3-1.9c0.4,0.1,0.8,0.1,1.2,0c1.9-0.3,2.9,0.6,3.7,2.3c4.4,9.3,8.9,18.4,13.3,27.7
		c1,2.1,2.5,3,4.8,3c6.4-0.1,12.7,0,19.1,0c2.8,0,3.2-0.8,1.9-3.2C572.2,125.2,567,115.7,561.8,106.2z M559.1,80.5
		c-1.2,7.5-5.7,12-12.8,14c-4.2,1.2-8.4,1.5-13.1,1.3c1.8-9.9,3.6-19.5,5.4-29.3c5.2-0.3,10.4-0.5,15.2,1.8
		C558.3,70.4,560,74.8,559.1,80.5z"/>
	<path d="M392.3,55.4c-19.7,0-39.4,0-59.1,0c-3.5,0-4.3,0.7-4.9,4.1c-3.2,17.3-6.4,34.6-9.6,51.8c-1.4,7.8-2.9,15.6-4.3,23.3
		c-0.5,2.5,0.1,3.2,2.5,3.2c20.6,0,41.3,0,61.9,0c1.9,0,2.8-0.7,3.2-2.5c0.5-2.6,1-5.1,1.4-7.7c0.6-3,0-3.7-3-3.7
		c-11.8,0-23.7,0-35.5,0c-0.7,0-1.4,0-2.3,0c1.4-7.4,2.7-14.5,4.1-21.8c0.9,0,1.6,0,2.3,0c9.9,0,19.8,0,29.7,0
		c3.1,0,3.8-0.5,4.3-3.6c0.4-2.1,0.8-4.2,1.2-6.3c0.5-2.6-0.1-3.3-2.7-3.3c-10.1,0-20.3,0-30.4,0c-0.6,0-1.2,0-2,0
		c1.1-6.2,2.3-12.1,3.3-18.1c0.3-1.6,0.9-1.9,2.4-1.9c11.9,0,23.9,0,35.8,0c2.4,0,3.2-0.7,3.7-3c0.4-2.2,0.9-4.4,1.3-6.7
		C396.1,56,395.6,55.4,392.3,55.4z"/>
	<path d="M465.5,58.5c-0.6-2.3-1.5-3.1-4-3.1c-4.3,0-8.6,0.1-12.9,0c-2.3,0-3.9,0.8-5.1,2.9c-15.5,25.6-31.1,51.1-46.7,76.7
		c-1.2,1.9-0.6,3,1.6,3c4.1,0,8.3-0.1,12.4,0c2.1,0,3.5-0.8,4.6-2.6c3.3-5.6,6.6-11.1,9.9-16.7c0.6-1,1.2-1.4,2.3-1.4
		c9,0.1,18.1,0.1,27.1,0c1.3,0,1.7,0.5,2,1.6c1.3,5.4,2.6,10.8,3.9,16.1c0.5,2.1,1.5,2.8,3.6,2.9c3.1,0,6.3,0,9.4,0s6.2,0,9.3,0
		c2.7,0,3.2-0.7,2.6-3.3C478.8,109.2,472.1,83.9,465.5,58.5z M432.3,106.5c5-8.5,9.8-16.9,15-25.7c2.1,8.9,4.2,17.2,6.2,25.7
		C446.4,106.5,439.6,106.5,432.3,106.5z"/>
	<path d="M297.1,124c-11.3,0-22.5,0-33.8,0c-0.7,0-1.4,0-2.1,0c0-0.4,0-0.7,0.1-0.9c4-21.4,8-42.8,12-64.2c0.5-2.5-0.3-3.5-2.9-3.5
		c-6.5,0-12.9,0-19.4,0c-2.5,0-3.4,0.8-3.8,3.1c-4.7,25.4-9.5,50.8-14.2,76.2c-0.4,2.3,0.2,3.1,2.6,3.1c19.9,0,39.8,0,59.6,0
		c2.3,0,3.3-0.8,3.7-3.1c0.4-2.3,0.9-4.7,1.3-7C300.8,124.7,300.3,124,297.1,124z"/>
	<path d="M689,160.4c-1.3,6.8-2.5,13.5-3.9,20.7c-1.3-2.2-2.4-3.9-3.5-5.6c-2.9-4.7-5.9-9.4-8.7-14.1c-1-1.7-2.6-1-3.9-1
		c-0.4,0-0.9,1.1-1,1.8c-1.1,5.4-2.1,10.7-3.1,16.1c-0.6,3.1-1.1,6.1-1.6,9.2c3.2,0.5,3.2,0.5,3.7-2.3c1.2-6.3,2.4-12.7,3.6-19.5
		c0.6,0.8,0.9,1.3,1.2,1.8c3.9,6.2,7.8,12.4,11.5,18.7c0.8,1.4,1.9,1.8,3.1,1.3c0.5-0.2,0.9-1.3,1.1-2c1.2-5.9,2.3-11.9,3.4-17.8
		c0.4-2.4,0.9-4.9,1.3-7.4C691,160.4,690,160.4,689,160.4z"/>
	<path d="M421,159.7c-8.9,0.9-15.5,8.2-15.6,17.2c-0.1,6.5,4.4,11.2,10.9,11.3c9.4,0.2,17.3-7.6,17.3-17.2
		C433.7,163.6,428.5,158.9,421,159.7z M425.5,181.8c-2.4,2.8-5.5,4.4-9.2,3.8c-3.2-0.5-5.3-2.4-5.9-5.5c-1.1-5.8,0.2-11,4.5-15.2
		c2.3-2.3,5.2-3.3,8.5-2.7c3.9,0.7,6,3.8,6,8.7C429.1,174.7,428.2,178.6,425.5,181.8z"/>
	<path d="M633.5,159.9c-9.4-1.3-17.9,5.2-19.1,14.8c-1,8.2,3.5,13.6,11.3,13.7c9.8,0,18-9.5,16.6-19.2
		C641.7,164,638.4,160.6,633.5,159.9z M634.3,181.8c-2.4,2.8-5.5,4.4-9.3,3.8c-3.2-0.5-5.3-2.4-5.8-5.5c-1.1-5.7,0.2-10.9,4.4-15.1
		c2.3-2.4,5.3-3.5,8.6-2.8c4,0.8,6,3.9,5.9,9.2C637.9,174.8,637,178.7,634.3,181.8z"/>
	<path d="M289.8,159.9c-10.2-1.5-19.2,6.4-19.3,17c-0.1,6.7,4.3,11.3,11,11.4c10.3,0.2,18.6-9.4,17-19.7
		C297.8,163.9,294.5,160.6,289.8,159.9z M291.6,180.3c-1.8,2.8-4.3,4.7-7.7,5.3c-4.5,0.8-8.3-2-8.8-6.5c-0.5-4.2,0.4-8.1,2.6-11.7
		c1.8-2.9,4.4-4.8,7.9-5.2c5.1-0.7,8.7,2.8,8.7,8.7C294.2,174,293.6,177.3,291.6,180.3z"/>
	<path d="M343.1,164.8c-0.7-2.6-2.9-4.3-6.4-4.5c-3.1-0.2-6.2,0-9.2,0c-1.2,0-1.7,0.5-1.9,1.7c-1,5.5-2,11-3,16.5
		c-0.6,3-1.1,6-1.6,9.2c0.7,0.1,1.1,0.1,1.6,0.2c1.8,0.3,2.7-0.2,3-2.3c0.3-2.8,1-5.6,1.5-8.4c0.1-0.5,0.4-1.4,0.6-1.4
		c0.8,0,1.6,0.2,2.3,0.5c0.4,0.2,0.7,0.9,1,1.4c1.6,3,3.1,6,4.7,9c0.2,0.5,0.7,1.1,1.1,1.1c1.3,0.1,2.6,0.1,4.2,0.1
		c-2.3-4.3-4.5-8.3-6.6-12.3c2-0.9,3.9-1.5,5.5-2.6C342.5,171.1,343.8,167.7,343.1,164.8z M333.2,173.2c-1.7,0.4-3.5,0.4-5.7,0.6
		c0.7-3.8,1.3-7.2,2-10.6c0.1-0.3,0.6-0.8,0.9-0.8c1.8,0,3.6,0,5.4,0.3c2.1,0.4,3,1.8,2.9,3.9C338.6,170,336.6,172.5,333.2,173.2z"
		/>
	<path d="M476.6,164.7c-0.9-3.1-3.4-4.2-6.3-4.4c-3.2-0.2-6.4,0-9.6,0c-1.2,0-1.4,0.7-1.6,1.6c-1,5.5-2,11-3.1,16.5
		c-0.6,3-1.1,6-1.6,9c0.3,0.2,0.4,0.3,0.5,0.3c0.3,0,0.7,0.1,1,0.1c2.5,0.1,2.5,0.1,3-2.4c0.5-2.7,1-5.5,1.6-8.2
		c0.1-0.6,0.5-1.5,0.8-1.5c0.7,0,1.6,0.2,2.2,0.6c0.4,0.3,0.7,0.9,0.9,1.4c1.5,2.9,3,5.9,4.6,8.8c0.2,0.5,0.7,1.1,1.1,1.1
		c1.3,0.1,2.6,0.1,4.3,0.1c-2.3-4.3-4.5-8.4-6.6-12.3c2-0.9,3.9-1.6,5.6-2.7C476.2,171,477.5,167.5,476.6,164.7z M466.9,173.2
		c-1.8,0.4-3.7,0.4-5.8,0.6c0.7-3.8,1.3-7.3,2-10.8c0.1-0.3,0.6-0.6,0.9-0.6c1.9,0.1,3.7,0.1,5.5,0.4c1.8,0.4,2.6,1.7,2.7,3.6
		C472.3,169.8,470.3,172.4,466.9,173.2z"/>
	<path d="M514,161.5c-0.2-1-0.7-1.3-1.7-1.3c-1.2,0-1.8,0.5-2.3,1.4c-5,8.1-10,16.2-15,24.4c-0.3,0.5-0.5,0.9-0.8,1.5
		c3.1,0.5,3.1,0.5,4.6-1.9c1.3-2.1,2.5-4.2,3.8-6.3c0.3-0.5,0.9-1,1.4-1c3.2-0.1,6.4,0,9.7,0c0.6,2.7,1.3,5.4,1.8,8.1
		c0.2,1,0.7,1.5,1.8,1.4c1-0.1,2,0,3.1,0c0-0.5,0-0.6,0-0.8C518.2,178.5,516.1,170,514,161.5z M504.6,175.9c2-3.5,4-6.8,6.2-10.5
		c0.8,3.8,1.5,7.1,2.3,10.5C510.3,175.9,507.6,175.9,504.6,175.9z"/>
	<path d="M382.3,160.4c-3.2-0.2-6.5,0-9.8-0.1c-1.3,0-1.7,0.6-1.9,1.7c-1.1,6.1-2.3,12.2-3.4,18.4c-0.4,2.4-0.8,4.7-1.3,7.2
		c0.8,0,1.4,0,1.9,0.1c1.9,0.4,2.5-0.5,2.8-2.3c0.4-3.1,1.1-6.2,1.7-9.4c1.6,0,2.9,0.2,4.2,0c2.1-0.3,4.3-0.7,6.2-1.5
		c1.5-0.6,2.8-1.6,3.9-2.8c1.9-2.1,2.7-4.7,1.7-7.4C387.4,161.5,384.9,160.5,382.3,160.4z M384.2,168c-0.6,2.7-2.1,4.6-4.8,5.2
		c-2,0.5-4.2,0.6-6.6,0.9c0.8-4.3,1.5-7.9,2.2-11.9c2,0.1,4,0.1,5.9,0.4C383.7,163.2,384.7,165.2,384.2,168z"/>
	<path d="M245.4,160.4c-10.1-3.2-20.6,4.9-20.9,15.9c-0.2,7.5,4,11.9,11.6,12c3.6,0,7.6-1.2,9.4-3.1c0.4-0.4,0.5-1.2,0.7-1.8
		c-0.6,0-1.2-0.1-1.7,0.1c-1.5,0.5-3,1.3-4.6,1.7c-5.3,1.2-9.6-1.6-10.5-7c-0.3-1.8-0.2-3.7,0.1-5.5c0.8-4.3,2.9-7.9,7.1-9.8
		c3.8-1.8,7.9-1,9.6,2.7c0.6,1.4,1.8,1.6,3.1,0.9c1.3-0.8,1.6-2.1,0.6-3.1C248.6,162.2,247,160.9,245.4,160.4z"/>
	<path d="M561,160.3c-5.8,0-11.6,0.1-17.5,0c-1.9,0-2.1,0.9-2,2.5c2.7,0,5.3,0,8.1,0c-1.5,8.4-3,16.6-4.6,24.9c0.8,0,1.4,0,2,0.1
		c1.7,0.3,2.4-0.4,2.7-2.1c0.6-4.1,1.4-8.1,2.2-12.2c0.7-3.5,1.3-7,2-10.6c2.3,0,4.5-0.1,6.6,0c1.8,0.1,2.2-0.8,2-2.4
		C562,160.4,561.5,160.3,561,160.3z"/>
	<path d="M588.8,160.3c-1.6-0.2-2.2,0.4-2.4,2c-0.9,5.4-2,10.8-3,16.1c-0.6,3-1.1,6-1.6,9.2c0.8,0,1.4,0,1.9,0.1
		c1.7,0.2,2.5-0.3,2.7-2.1c0.7-4.5,1.6-9,2.5-13.6c0.7-3.8,1.4-7.6,2.1-11.8C590.2,160.3,589.5,160.4,588.8,160.3z"/>
	<path d="M595.3,122.8c-4.6,0-8.1,3.3-8.1,7.8c0,4.6,3.4,8.1,8,8.1s8.2-3.5,8.1-8C603.3,126.3,599.7,122.8,595.3,122.8z
		 M595.2,137.4c-3.7,0-6.6-2.9-6.5-6.7c0.1-3.7,2.9-6.6,6.6-6.5c3.7,0,6.4,2.9,6.4,6.7C601.6,134.5,598.9,137.3,595.2,137.4z"/>
	<path d="M596.6,130.7L596.6,130.7c1-0.4,1.8-1.2,1.8-2.5c0-0.7-0.3-1.4-0.8-1.8c-0.6-0.5-1.5-0.8-2.8-0.8c-0.9,0-1.8,0.1-2.4,0.2
		v9.5h1.2v-4.2h1.2c1.1,0,1.6,0.5,1.9,1.9c0.3,1.2,0.5,2,0.6,2.3h1.3c-0.2-0.4-0.4-1.3-0.7-2.6C597.8,131.6,597.3,131,596.6,130.7z
		 M595,130.2h-1.3v-3.5c0.2-0.1,0.6-0.1,1.2-0.1c1.3,0,2.2,0.6,2.2,1.8C597.2,129.4,596.3,130.2,595,130.2z"/>
</g>
</svg>
