<?xml version="1.0" encoding="utf-8"?>
<!-- Generator: Adobe Illustrator 21.0.0, SVG Export Plug-In . SVG Version: 6.00 Build 0)  -->
<svg version="1.1" id="Layer_1" xmlns="http://www.w3.org/2000/svg" xmlns:xlink="http://www.w3.org/1999/xlink" x="0px" y="0px"
	 viewBox="0 0 548 541" style="enable-background:new 0 0 548 541;" xml:space="preserve">
<path d="M427.2,454.3c-6.6,5.2-13,10.7-19.8,15.6c-34,24.7-71.1,43.1-112,53.3c-50.5,12.5-100.8,12.9-149.9-5.5
	C71.8,490.2,26.9,437.1,11.4,360.3c-11.7-57.9-1.8-113.6,23.8-166.2C76,110,141.1,51.8,229.6,21.3c59.1-20.4,119.1-22.5,178,1
	c68.4,27.2,111.1,77.9,127.1,149.6c15.1,67.5,0.6,130.8-32.1,190.7c-4.4,8-9.4,15.7-14.4,23.4c-1,1.5-3.4,2.8-5.1,2.8
	c-57.7,0.1-115.3,0.1-173,0.1c-0.6,0-1.3-0.1-2.6-0.3c1.8-9.8,3.5-19.3,5.3-28.9c11.2-60.2,22.4-120.4,33.6-180.6
	c5.8-31.1,11.6-62.1,17.5-93.2c1.8-9.6-2.2-14.7-12.1-14.7c-31-0.1-62-0.1-93,0c-9.6,0-14.1,3.7-15.9,13.1
	c-11.3,60.2-22.5,120.4-33.8,180.5c-10.2,54.8-20.5,109.6-30.7,164.3c-0.7,3.8-1.4,7.5-2.1,11.3c-1.6,8.8,1.9,12.9,10.9,12.9
	c44.5,0,89,0,133.5,0c33.8,0,67.7,0,101.5,0c1.6,0,3.2,0,4.7,0C426.9,453.6,427,454,427.2,454.3z"/>
</svg>
