<?xml version="1.0" encoding="utf-8"?>
<!-- Generator: Adobe Illustrator 21.0.0, SVG Export Plug-In . SVG Version: 6.00 Build 0)  -->
<svg version="1.1" id="Layer_1" xmlns="http://www.w3.org/2000/svg" xmlns:xlink="http://www.w3.org/1999/xlink" x="0px" y="0px"
	 viewBox="0 0 237 264" style="enable-background:new 0 0 237 264;" xml:space="preserve">
<style type="text/css">
	.st0{fill:none;}
</style>
<g>
	<path class="st0" d="M59.5,48.6c-4.1-0.1-7.7,3.3-7.6,7.3c0,3.6,3.8,7.4,7.4,7.4c3.7,0,7-3.3,7-7.1C66.2,51.8,63.5,48.7,59.5,48.6z
		"/>
	<path class="st0" d="M85.6,83.4c-2.2-2.9-4.5-3.1-6.9-0.3c-0.4,0.4-1,0.7-1.6,1c-1.8,1-2.1,2.3-1,4c0.7,1.1,1.5,2.2,2.2,3.3
		c0-3.6,6-6.9,9.8-5.3c0,0-0.1-0.1-0.1-0.1l0,0h0l0,0l0,0c0,0,0,0,0,0C87.2,85.1,86.4,84.3,85.6,83.4z"/>
	<path class="st0" d="M42.2,212.5c-8.2-0.4-14.7,6.6-14,13.6c0,7.9,5.9,13.8,13.8,13.8c7.5,0,13.8-6,13.8-13.4
		C55.8,218.5,50,212.9,42.2,212.5z M41.9,238.2c-6.9,0-11.9-5.1-11.9-12.2c0-8.8,5.8-11.8,12-12.4c6.3-0.7,12.1,5.9,12.1,12.7
		C54.1,232.6,48.4,238.2,41.9,238.2z"/>
	<path class="st0" d="M41.5,220.2c-3,0-5.7,2.6-5.7,5.6c-0.1,3.6,2.6,6.4,6.2,6.4c3.2,0,6.8-3.1,6.9-6
		C48.9,223.2,45.3,220.2,41.5,220.2z"/>
	<path class="st0" d="M88.2,86.1C88.2,86.1,88.1,86,88.2,86.1L88.2,86.1z"/>
	<path class="st0" d="M135.9,138.5c-15.1,0.7-23.1,11-23,23c0.1,12.6,8.1,22.8,23.3,23.1c12.4,0.3,23.5-11,22.7-23.2
		C160.1,150.3,148,137.9,135.9,138.5z M136.1,173.4c-6.1,0.4-12.5-5.7-12.3-11.8c0.2-5.1,4.7-12.9,12.1-11.8
		c7.1,0,11.8,4.7,11.9,11.8C147.9,168.4,142.8,173,136.1,173.4z"/>
	<path class="st0" d="M136.3,102.6c-31.8,0.8-60.6,25.5-58.9,62.2c1.4,29.9,26.4,55.4,59.2,55.3c29.9-0.1,60.5-24.9,57.6-63.6
		C192.1,127.3,168,103.8,136.3,102.6z M135.4,217.5c-30.4,0.1-55.7-24.9-55.5-55.9c-0.2-31.5,25.7-55.8,54.9-56.1
		c33.3-0.3,57.6,25.5,57.4,56.1C191.9,193.1,167.6,217.4,135.4,217.5z"/>
	<path class="st0" d="M86.3,56c0.2-14.8-12.3-27.6-26.8-27C42.9,28.5,32.3,41.1,32,55.3c-0.3,15.2,10.4,27.3,27.6,27.5
		C73.8,83,86,71.7,86.3,56z M58.8,65.8c-5,0-10.2-5-9.7-10c0.5-5.4,3.5-9.8,10.3-9.6c5.1,0,10.1,4.9,10.1,9.9
		C69.4,61.1,64.2,65.8,58.8,65.8z"/>
	<path d="M210.6,171.5c0.2-2.8,1.7-3.6,4.5-3.6c4.5-0.1,9-0.8,13.6-1.3c0-3.2,0.1-5.6,0-8c0-0.7-0.5-2-1-2.1
		c-3.7-0.8-7.4-1.9-11-1.8c-4.7,0.2-5.3,0-6.7-6.7c-0.8-3.9,2-4.4,4.5-4.9c4.5-0.8,7.8-3.4,10.6-6.2c-0.5-2.2-0.7-4.1-1.4-5.8
		c-0.4-1.1-1.6-2.8-2.3-2.8c-3,0.1-6.2,0.4-9.1,1.3c-6.7,1.9-6.7,2.1-9.6-4.1c-0.1-0.2-0.2-0.5-0.3-0.7c-1.3-1.8-0.4-2.6,1.1-3.8
		c3.1-2.5,6-5.3,8.8-8.3c0.5-0.6,0.4-2.2,0-3.1c-0.5-1.2-1.6-2.2-2.2-3.4c-1.1-2.5-2.8-2.5-4.9-1.4c-4.1,2.1-8.1,4.3-11.9,6.3
		c-2.1-1.9-4.8-4.1-7.6-6.6c1-1.1,2.1-1.8,2.6-2.9c1.9-3.7,4.3-7.3,4.9-11.2c0.2-1.5-3.7-3.6-5.7-5.5c-0.3-0.2-0.7-0.3-1.6-0.7
		c-3.8,3.8-7.6,7.7-11.8,12c-1.7-0.8-4.1-1.8-6.2-3.3c-0.8-0.5-1.4-2.5-1-3.2c2.5-3.9,1.8-8.2,1.7-12.4c0-1-0.9-2.3-1.8-2.8
		c-4.8-2.9-7.4-2.2-9.9,2.9c-1.7,3.3-3,6.8-4.5,10.2c-2.9-0.5-5.8-1.1-8.5-1.6c-0.6-3.9-1.1-8-1.8-11.9c-0.4-2.3-1.4-4.4-4.3-4.1
		c-2.8,0.3-6.6-1.5-7.4,3.3c-0.7,4.2-1.6,8.4-2.4,12.7c-2.5,0.6-5.5,1.2-7.8,1.7c-2.2-4.2-4.2-8.2-6.3-12.2
		c-0.9-1.7-1.6-3.8-4.4-2.5c-2.6,1.2-6.2,1.1-5.7,5.5c0.5,4.5,0.9,8.9,1.4,14.3c-2,1-5,2.4-7.2,3.5c-3.6-3.8-6.7-7-9.8-10.3
		c-3.7-1.6-9.8,1.7-9.8,5.3c-0.7-1.1-1.5-2.2-2.2-3.3c-1.1-1.7-0.8-3,1-4c0.5-0.3,1.2-0.5,1.6-1c2.4-2.8,4.7-2.6,6.9,0.3
		c0.7,0.9,1.6,1.7,2.4,2.6c2.3,0.6,4.6,1.1,6.8,1.8c1.7,0.6,3.2,1.2,4.4-0.9c1.3-2.2,3.8-4.3,1.4-6.9c-3-3.4-6.4-6.5-9.7-9.7
		c-0.7-0.6-1-2.1-0.5-3.3c1-2.4,1.1-6.4,5.2-5c5.5,1.9,9.8-0.8,14.6-2.7c-0.3-2.5,0.2-6.3-0.9-6.8c-3.5-1.6-6.9-4.5-11.3-3.3
		c-5.6,1.5-6.2,1.1-7.5-4.5c-0.3-1.2-0.3-2.4-0.4-3.6c1.5-0.8,3-1.5,4.4-2.3c7.4-3.9,8.4-9.8,2.8-15.7c-2.7,0.9-5.6,1.4-8,2.8
		c-2.5,1.4-4.6,3.6-7.2,5.7c-2.3-2-4.6-3.9-6.9-5.8c0.7-1.3,1-2.3,1.6-3.1c3.3-3.9,1.8-8.4,1.1-12.4c-0.2-1.4-3.9-2.3-6.1-3.4
		c-0.3-0.2-0.7-0.1-2-0.3c-2.3,5.1-4.7,10.4-7.1,15.6c-1.5,0.8-3.9,0.9-6.2,0.7c-0.8-0.1-2.1-1-2.1-1.6c0-4.8-2.8-8.3-5.4-11.9
		c-0.7-1-2.1-2.6-2.8-2.4c-2.2,0.6-5.7,1.7-5.9,3.1c-0.6,3.9-1,8.7,0.7,12c2.1,4,1,5.3-2.2,7c-1.1,0.6-1.9,1.5-3.3,2.7
		c-3.4-5.8-9.2-7-15-8.5c-0.9,1.1-1.7,2.4-2.8,3.4c-2.1,1.8-2,3.1-0.4,5.6c2.8,4.2,6.3,7.1,11,8.7c-0.8,2.8-1.3,5.4-2.3,7.7
		c-0.3,0.7-1.9,1.5-2.6,1.2c-6-2.2-11,0.6-16.9,3.2c0.8,2.4,1,5.9,2.6,6.7c4,2.2,8.4,4.2,13.4,2.4c0.9-0.3,2.9,0.3,3.4,1.1
		c1,1.6,1.4,3.6,1.7,5.6c0.1,0.8-0.4,2.5-1,2.6c-4.4,1.3-6.6,4.8-9.1,8.3c-1.2,1.7-2.4,3-0.6,4.7c1.8,1.7,2.7,4.9,6.5,3.5
		c3.6-1.3,7-2.5,9.4-5.6c1.4-1.9,3-2,4.7-0.3c1,0.9,2.1,1.8,3.3,2.4c2,1,2.1,2.5,0.9,3.9c-3.2,3.8-2,8.4-1.7,12.5
		c0.1,1.3,3.3,2.5,5.2,3.4c0.7,0.3,2.4-0.3,2.9-1c3-4,6.8-7.6,6-13.3c3.4,0,6.4,0,8.3,0c2.3,4.8,4.2,9,6.5,12.9
		c0.5,0.9,2.6,1.7,3.7,1.4c2-0.5,5-1.6,5.3-2.9c0.8-3.2,0.2-6.7,0.2-10.1c1.1,2.7,2.1,5.5,3.5,8c1,1.9,3.8,3.7,3.5,5.1
		c-0.4,2-2.9,3.5-4.5,5.2c-0.7,0.7-1.2,1.5-1.2,1.5c-5.6-2.8-10.6-5.4-15.7-8c-1.2,1.8-1.9,3.2-2.9,4.2c-2.9,3-1.8,5.6,0.8,7.9
		c2.8,2.6,5.7,5,8.8,7.8c-0.8,1.7-1.9,3.7-2.7,5.7c-1,2.5-2.5,2.8-4.9,2.1c-3.7-1.1-7.6-1.9-11.4-2.5c-0.7-0.1-2,0.6-2.4,1.3
		c-3.1,5.4-2.5,8,3.1,11.5c1.7,1.1,3.8,1.7,5.8,2.3c4.6,1.5,4.6,1.5,3.7,6.1c-0.3,1.7-0.8,3.3-1.3,5.3c-1.7,0-3.4-0.2-5.1,0
		c-3.1,0.3-6.4,0.4-9.3,1.4c-4.7,1.6-1.2,5.8-2.2,8.7c-0.1,0.3,0.2,0.7,0.5,1.8c5.3,0.6,10.9,1.3,16.4,2c0.6,3.1,1.2,6.2,1.6,8.4
		c-4.9,2.7-9.4,5.1-13.7,7.7c-0.7,0.4-1.4,1.9-1.2,2.5c0.9,2.5,2.2,4.9,3.5,7.4c0.1,0.2,0.9,0,1.4-0.1c4.7-0.9,9.3-1.9,14.5-2.9
		c1.2,2.6,2.7,5.6,4.2,8.7c-1.7,1-3.3,1.6-4.3,2.8c-2.6,2.8-5.3,5.6-7.2,8.8c-0.5,0.8,1.8,3.1,2.7,4.9c1,2.2,2.5,2.5,4.5,1.5
		c4.2-2.1,8.4-4,13.7-6.6c1,1.2,2.9,3.1,4.4,5.4c0.6,0.9,0.5,2.7,0,3.7c-2.2,4.1-4.8,8.1-7.2,12.2c2.2,1.5,3.8,2.2,4.8,3.4
		c2.2,2.3,4.5,1.8,6.4,0c3.2-3,6.1-6.3,9.5-9.8c2.4,1.3,5.3,2.9,7.1,4c-0.5,5.2-0.9,9.5-1.4,13.7c-0.6,4.5,2.9,4.6,5.8,5.7
		c3.1,1.2,4-1.4,5-3.1c2-3.6,3.6-7.5,5.5-11.4c2.6,0.6,5.5,1.2,7.8,1.7c0.9,4.7,1.6,9,2.8,13.1c0.4,1.2,2.3,2.8,3.5,2.8
		c2.5,0.1,5.9,1.6,7.2-2.1c1.2-3.6,3.9-7.1,1.9-11.3c-0.3-0.6,0.1-1.6,0.2-2.4c3.2-0.6,6.2-1.2,9.6-1.8c0.3,1,0.3,2,0.7,2.8
		c2,3.7,3.9,7.7,6.4,11.1c1.6,2.2,8.5-0.4,8.5-3.1c0-3.6-0.1-7.2-0.9-10.7c-1-4.2-0.6-5.6,3.4-7.2c1.3-0.5,2.6-1.1,3-1.3
		c4.2,4.2,8.1,8.1,12,12.1c1.8-1.2,3-2.2,4.3-2.9c3.6-1.9,3.8-4.3,1.8-7.6c-2-3.3-3.7-6.8-5.8-10.6c0.2-0.2,0.9-1.1,1.6-1.9
		c4.8-4.8,4.7-4.6,10.4-0.6c2.7,1.9,6,3.2,9.2,3.6c1.1,0.2,2.7-3.1,4.1-4.7c0.5-0.6,1.2-1,2-1.7c-2.9-4.3-5.2-8.6-10.1-10.7
		c-0.8-0.4-1.8-2.2-1.6-2.9c0.9-2.6,2.4-5.1,3.4-7.3c4.8,0.9,9.1,1.6,13.4,2.6c1.8,0.4,3.9,1.3,4.2-1.1c0.3-2.8,3.8-5.8,0.7-8.4
		c-2.8-2.3-6.2-3.9-9.7-5.1c-4.2-1.5-4.6-1.7-3.6-5.9C210.5,173,210.5,172.3,210.6,171.5z M59.6,82.8C42.4,82.7,31.8,70.5,32,55.3
		c0.3-14.3,10.9-26.8,27.5-26.4c14.4-0.6,26.9,12.2,26.8,27C86,71.7,73.8,83,59.6,82.8z M136.6,220.1c-32.8,0.2-57.8-25.4-59.2-55.3
		c-1.7-36.7,27.1-61.4,58.9-62.2c31.7,1.2,55.8,24.7,57.9,53.8C197.1,195.2,166.5,220,136.6,220.1z"/>
	<path d="M88.1,85.9L88.1,85.9L88.1,85.9L88.1,85.9c0,0,0.1,0.1,0.1,0.1c0,0,0,0,0,0L88.1,85.9c0.1,0.1,0.1,0.1,0.1,0.1
		C88.1,86,88.1,86,88.1,85.9C88.1,85.9,88.1,85.9,88.1,85.9L88.1,85.9z"/>
	<path d="M73.4,221.7c-5-2.7-10.1-2.5-15.1-0.7c-3.8-6.3-4.1-6.7-0.7-9.3c3.2-2.5,2.3-6,3.6-8.9c2.3-5.2-2.8-5.2-5-7.3
		c-0.1-0.1-0.5-0.1-0.9-0.1c-4.3,3.7-9,7.2-9.6,13.6c-2.2,0-4,0.2-5.7-0.1c-1-0.2-2.6-1.1-2.6-1.8c-0.3-5-4.4-7.3-7.3-10.4
		c-1.5-1.6-8.1,0.1-7.9,2.1c0.3,3.7,0.5,8.2,2.7,10.8c3,3.5,4.4,6.1,1.5,10c-0.3,0.3-0.3,0.9-0.6,2c-5.8-3.4-11.3-2.3-16.4,1.1
		c-1,0.7-1.8,2.4-1.8,3.6c0,1.3,0.7,3.4,1.6,3.8c4.3,1.6,8.5,4.3,13.6,1.8c3.3-1.6,4.1,2,5.2,3.9c0.5,0.8,0,3-0.9,3.6
		c-3.2,2.6-3.5,6.2-4.5,9.8c-0.9,3.5-0.5,5.8,3.2,6.7c1.1,0.3,2.7,1.2,3.2,0.8c4.1-3.8,9.2-7.1,9-13.6c1.2-0.1,2,0,2.7-0.1
		c3.6-0.6,5.6,0.8,6.1,4.5c0.4,3.4,3.4,5,5.5,7.1c1,1,2.2,1.8,3.6,2.8c1.2-0.7,2.5-1.6,3.8-2.4c0.7-0.5,1.4-1,2-1.4
		c-2.3-9.9-2.3-9.9-7.2-15.5c1.1-2.1,2.3-4.2,3.7-6.9c4.8,2.1,9.4,2.3,13.8-0.2c1.3-0.8,3-1.8,3.3-3.1
		C76,225.6,76.3,223.2,73.4,221.7z M42,239.9c-7.9,0-13.8-5.9-13.8-13.8c-0.7-7,5.8-14,14-13.6c7.8,0.4,13.6,6,13.6,14
		C55.8,233.8,49.5,239.9,42,239.9z"/>
	<path d="M134.8,105.5c-29.2,0.3-55.2,24.6-54.9,56.1c-0.1,31,25.2,56,55.5,55.9c32.2-0.1,56.5-24.4,56.8-55.9
		C192.4,131,168.1,105.1,134.8,105.5z M136.2,184.6c-15.2-0.3-23.2-10.6-23.3-23.1c-0.1-11.9,7.9-22.2,23-23
		c12.1-0.6,24.3,11.9,23,22.9C159.7,173.5,148.5,184.8,136.2,184.6z"/>
	<path d="M59.4,46.1c-6.8-0.2-9.8,4.2-10.3,9.6c-0.5,5,4.7,10,9.7,10c5.4,0,10.6-4.7,10.6-9.8C69.5,51.1,64.5,46.2,59.4,46.1z
		 M59.2,63.3c-3.6,0-7.3-3.8-7.4-7.4c0-4,3.5-7.4,7.6-7.3c4,0.1,6.7,3.2,6.7,7.6C66.1,60,62.8,63.3,59.2,63.3z"/>
	<path d="M42,213.7c-6.2,0.6-12,3.6-12,12.4c0,7.1,4.9,12.1,11.9,12.2c6.5,0,12.2-5.6,12.2-11.9C54.1,219.5,48.3,213,42,213.7z
		 M41.9,232.2c-3.5,0-6.2-2.8-6.2-6.4c0.1-3,2.8-5.7,5.7-5.6c3.8,0.1,7.4,3,7.3,6C48.7,229.1,45.1,232.2,41.9,232.2z"/>
	<path d="M135.9,149.8c-7.3-1.1-11.9,6.7-12.1,11.8c-0.2,6.1,6.3,12.2,12.3,11.8c6.6-0.4,11.7-5.1,11.6-11.9
		C147.7,154.5,143,149.8,135.9,149.8z"/>
</g>
</svg>
