<?xml version="1.0" encoding="utf-8"?>
<!-- Generator: Adobe Illustrator 21.0.0, SVG Export Plug-In . SVG Version: 6.00 Build 0)  -->
<svg version="1.1" id="Layer_1" xmlns="http://www.w3.org/2000/svg" xmlns:xlink="http://www.w3.org/1999/xlink" x="0px" y="0px"
	 viewBox="0 0 181.2 171.2" style="enable-background:new 0 0 181.2 171.2;" xml:space="preserve">
<path d="M54.3,83.7c0-8.9,0-17.4,0-25.8c0-4.1-0.1-8.3,0.1-12.4c0.1-2.7-0.6-3.9-3.5-4.5c-10.4-2.3-17-11.4-16.3-22
	c0.6-8.5,7.5-16.4,16.2-18.5c8.6-2.1,17.7,2.1,22.6,10.4c4.3,7.3,3.2,17-2.5,23.4c-3.3,3.6-7.2,6-12,7.1c-1.1,0.3-2.7,1.7-2.7,2.5
	C55.9,56.7,56,69.4,56,82.2c0,0.4,0.2,0.7,0.4,1.3c1,0.1,2.1,0.2,3.2,0.2c18.6,0,37.2,0,55.9,0c4,0,8.5-4.6,8.5-8.6
	c0-9.7-0.1-19.5,0.1-29.2c0.1-3-0.8-4.3-3.9-5c-10.5-2.4-17.7-13.4-15.7-23.5c2.3-11,12.5-18.4,23.8-17c10,1.2,18.2,11.5,17.5,21.9
	c-0.6,8.8-7,16.6-15.9,18.6c-3.2,0.7-4.2,2.1-4.1,5.3c0.2,9.5,0.1,19,0,28.5c0,2.2,0.3,4,2.6,4.7c0.3,0.1,0.8,0.3,0.9,0.6
	c2.3,4.8,6.7,3.7,10.6,3.8c6.5,0,13,0,19.5,0c2.7,0,5.1,0.2,3.1,4c-0.4,0.8-0.3,1.9-0.3,2.9c0,11.7,0,23.5-0.1,35.2
	c0,2.6,0.6,3.9,3.5,4.6c9.5,2.3,16.1,11.9,15.3,21.7c-0.8,9.6-8.7,17.9-17.9,18.8c-10.5,1-20-5.2-22.7-14.9c-3.1-11,4-23,15.3-25.7
	c1.6-0.4,3.1-0.7,4.8-1c0-13.9,0-27.6,0-41.8c-3.6,0-7.1,0-10.5,0c-4.7,0-9.5,0-14.2,0c-2.4,0-4.4,0.1-6.3,2.2
	c-2.3,2.6-5.6,2.1-8.4-0.1c-1.3-1-3.2-1.9-4.8-2c-7.6-0.2-15.2-0.1-23.3-0.1c-0.1,1.3-0.2,2.5-0.2,3.7c0,11.5,0.1,23,0,34.5
	c0,2.7,0.5,4.1,3.6,4.9c10.3,2.7,16.6,13.1,14.8,23.7c-1.3,7.8-9.6,17.9-22.5,16.8c-9.5-0.8-18.1-9.5-18.8-19.7
	c-0.6-9.5,6.8-19.2,16.7-21.1c3.7-0.7,4.6-2.2,4.5-5.6c-0.2-11.1-0.1-22.2,0-33.4c0-2.8-0.7-3.9-3.8-3.9c-20.2,0.1-40.5,0.1-60.7,0
	c-2.9,0-3.6,1.1-3.5,3.7c0.1,11.6,0.1,23.2,0,34.9c0,2.7,0.8,3.8,3.5,4.6c10.3,2.9,16.9,13.8,14.8,23.4
	c-2.6,11.6-12.5,18.6-24.1,16.8c-10-1.5-17.8-11.6-17.1-22.2c0.5-8.6,7.7-16.7,16.7-18.4c3.4-0.6,4.4-1.9,4.4-5.3
	c-0.3-12.9-0.3-25.7-0.5-38.6c0-2.7,1.7-2.7,3.5-2.7c8.5,0,17,0,25.5,0C50.9,83.7,52.3,83.7,54.3,83.7z M74.2,20.5
	C74,9.5,65.7,1.6,54.7,1.7C44.1,1.8,36,10.5,36.2,21.5c0.2,10.6,8.9,18.8,19.5,18.4C66.6,39.5,74.4,31.3,74.2,20.5z M20.8,131.6
	c-11,0-19.2,8.1-19.2,19.1c-0.1,10.3,8.4,18.9,18.7,18.9c11.2,0.1,19.7-8.3,19.6-19.2C39.8,139.6,31.6,131.6,20.8,131.6z
	 M179.4,150.7c0-11.1-7.7-19.1-18.5-19.1c-11.3,0-19.3,7.7-19.3,18.7c0,11.3,8,19.2,19.3,19.2C171.4,169.6,179.4,161.5,179.4,150.7z
	 M90.6,131.6c-11.1,0-19,8.2-18.9,19.2c0.2,10.9,8.2,18.7,19.1,18.7c10.9,0,19-8.3,18.9-19.3C109.6,139.4,101.5,131.6,90.6,131.6z"
	/>
</svg>
