<?xml version="1.0" encoding="utf-8"?>
<!-- Generator: Adobe Illustrator 21.0.0, SVG Export Plug-In . SVG Version: 6.00 Build 0)  -->
<svg version="1.1" id="Layer_1" xmlns="http://www.w3.org/2000/svg" xmlns:xlink="http://www.w3.org/1999/xlink" x="0px" y="0px"
	 viewBox="0 0 254.7 125.3" style="enable-background:new 0 0 254.7 125.3;" xml:space="preserve">
<style type="text/css">
	.st0{fill:none;}
</style>
<g>
	<path class="st0" d="M49.1,89.8c-6.6,0-13.2,0-19.8,0c-10.4,0-10.4,0-10.4,10.3c0,4,0,8.1,0,12.2c11.5,0,22.3,0,33.7,0
		c0-7,0-13.6-0.1-20.2C52.5,89.7,50.8,89.8,49.1,89.8z"/>
	<path class="st0" d="M131.5,58.9c0-0.4,0-0.7,0-1.1c-0.1-8.3-5.8-12.4-13.6-9.9c-0.7,0.2-1.5,1.1-1.5,1.7c-0.1,7-0.1,14.1-0.1,21.1
		C127.9,73.1,131.6,70.1,131.5,58.9z"/>
	<path class="st0" d="M163.3,55.2c2.2-0.2,3.5-1.4,3.6-3.9c0-2.6-1.4-3.6-3.7-3.7c-1,0-2-0.2-3-0.3c-7-0.8-7.9,0.2-6.4,7.9
		C157.1,55.2,160.2,55.4,163.3,55.2z"/>
	<path class="st0" d="M216.2,37.9c9.5,0.1,19,0.1,28.5,0c0.8,0,2.4-1.2,2.4-1.9c0.2-6.8,0.1-13.7,0.1-20.7c-11.4,0-22.3,0-33.6,0
		c0,7-0.1,13.9,0.1,20.8C213.7,36.7,215.3,37.9,216.2,37.9z"/>
	<path class="st0" d="M41.1,51.6c-9.4-0.2-18.9-0.1-28.4,0c-0.9,0-2.5,1.2-2.5,1.9C10,60.3,10.1,67.1,10.1,74c11.4,0,22.2,0,33.6,0
		c0-7,0.1-13.6-0.1-20.2C43.6,53,42,51.6,41.1,51.6z"/>
	<path class="st0" d="M153.5,61.7c0,3.4,0,6.2,0,9.5c3.8,0,7.1,0,10.5,0c2.5-0.1,3.9-1.4,4.2-3.9c0.3-2.7-0.8-4.6-3.4-4.9
		C161.1,62,157.4,61.9,153.5,61.7z"/>
	<path class="st0" d="M204.9,121.9c9.4-0.1,18.7,0,28.1-0.1c0.9,0,2.6-1.1,2.6-1.7c0.2-6.9,0.1-13.8,0.1-21c-10.4,0-20.3,0-30.1,0
		c-1,0.1-2,0.1-3.5,0.2c0,7,0,13.6,0,20.1C202.1,121.5,203.1,121.9,204.9,121.9z"/>
	<path class="st0" d="M65.4,119.9c40.2,0,80.2,0,120.2,0c0-38.2,0-76.1,0-114.2c-40.2,0-80.1,0-120.2,0
		C65.4,43.8,65.4,81.7,65.4,119.9z M148.8,41.2c4.8,0.1,9.7,0,14.6,0c4.5-0.1,8.5,1.2,10.3,5.8c1.7,4.3,0.4,8.1-3.4,11.1
		c5.4,4.1,7,7.6,5.6,11.9c-1.8,5.6-5.2,7.9-11.7,7.9c-5.7,0-11.5-0.1-17.2-0.1c-0.3,0-0.6-0.2-1.2-0.4c-0.1-1-0.3-1.9-0.3-2.9
		c0-10,0.1-20-0.1-29.8C145.4,42.1,146.1,41.1,148.8,41.2z M108.4,59.4c0-5,0.1-10,0-15c-0.1-2.4,0.7-3.4,3.2-3.3
		c3.9,0.1,7.7,0,11.6,0c9.1,0.1,14.4,4,15.7,13.1c0.7,4.4,0.2,9.2-0.8,13.6c-1.4,6.2-6.9,9.9-13.3,10c-4.2,0.1-8.5-0.1-12.7,0.1
		c-3.1,0.1-3.8-1.2-3.8-3.9C108.5,69.1,108.4,64.3,108.4,59.4z M74.7,43.9c0-0.9,1.6-2.6,2.5-2.6c5.4-0.2,10.8-0.3,16.1,0
		c6.1,0.4,9.7,4.7,9.7,11.1c0.1,6.2-4.1,11-10,11.4c-3.3,0.2-6.6,0-10.5,0c0,4.1-0.2,7.5,0,10.8c0.1,2.9-1.3,3.4-3.7,3.2
		c-2.1-0.1-4.4,0.5-4.3-2.8C74.7,64.6,74.5,54.3,74.7,43.9z"/>
	<path class="st0" d="M248.5,55.8c-9.5-0.2-19-0.1-28.5,0c-0.9,0-2.5,1.2-2.5,1.9c-0.2,6.9-0.1,13.7-0.1,20.8
		c10.9,0,21.3,0,31.6-0.1c0.7,0,2-1.5,2-2.3c0.2-5.9,0.2-11.7,0-17.6C251,57.5,249.4,55.8,248.5,55.8z"/>
	<path class="st0" d="M82.5,57.4c2.9,0,5.6,0.3,8.1-0.1c2.6-0.4,4.3-2.1,4.2-4.9c-0.1-2.8-1.6-4.2-4.4-4.6c-7.7-1-8.2-0.6-8.1,7.2
		C82.3,55.6,82.4,56.2,82.5,57.4z"/>
	<path d="M252.9,58.2c0.1-3-0.8-4.3-4-4.3c-9.1,0.1-18.2,0-27.4,0.1c-5.7,0-5.8,0-5.8,5.8c0,2.9-1.1,3.6-3.8,3.5
		c-4.6-0.2-9.2,0-13.9,0c-2.8,0-5.6,0-8.4,0c0-9.9,0-19.1,0-28.4c6.1,0,12,0,17.9,0c2.3,0,4.2-0.1,4.6,3c0.1,0.6,1.9,1.5,2.9,1.5
		c10.1,0.1,20.2,0,30.4,0.1c2.6,0,3.5-1.1,3.5-3.6c-0.1-6.2-0.1-12.5,0-18.7c0.1-2.8-0.9-3.7-3.7-3.7c-8.1,0.1-16.2,0-24.4,0
		c-8.8,0-8.8,0-9,8.8c0,0.2,0,0.5,0,0.7c0.1,2-0.7,3-2.8,3c-6.4-0.1-12.7,0-19.5,0c0-7.1-0.1-13.7,0-20.3c0-2.7-1.1-3.7-3.8-3.7
		c-40,0-80,0.1-120,0c-3.2,0-4.2,1.3-4.1,4.3c0.1,4.4-0.1,8.7,0.1,13.1c0.1,2.5-0.7,3.6-3.4,3.5c-4.6-0.2-9.2,0-13.9,0
		c-5.4,0-5.6,0-5.4-5.5c0.1-2.9-0.8-4-3.8-3.9c-9.7,0.2-19.5,0.1-29.2,0c-2.9,0-4,0.7-3.9,3.8c0.2,6.1,0.2,12.2,0,18.4
		C2,38.6,3,39.7,6,39.6c9.6-0.1,19.2-0.2,28.9,0c3.3,0.1,4.6-1,4.2-4.3c-0.3-2.1,0.1-3.7,2.9-3.6c5.7,0.1,11.5,0.1,17.2,0
		c1.9,0,2.7,0.8,2.6,2.7c-0.1,3.5,0,7,0,10.5c0,4.6,0,9.2,0,14.1c-4,0-7.3,0-10.7,0c-5.5,0-5.5,0-5.7-5.4c-0.1-2,0-3.8-2.9-3.8
		c-10.4,0.1-20.7,0-31.1,0c-2.1,0-2.9,0.9-2.9,3c0.1,6.6,0.1,13.2,0,19.9c0,2.6,1.1,3.1,3.4,3.1c9-0.1,18,0,27,0c2,0,3.9,0,6.2,0
		c0.1-2,0-3.7,0.4-5.2c0.2-0.9,1.3-2.3,2-2.3c4.6-0.2,9.2-0.1,14-0.1c0,9.7,0,19,0,28.4c-2.4,0-4.5,0-7,0c0-1.5-0.1-2.8,0-4
		c0.4-3.5-1.1-4.5-4.5-4.5c-9.6,0.2-19.2,0.2-28.9,0c-3,0-4,1.1-3.9,4c0.1,6.1,0.1,12.2,0,18.4c-0.1,2.8,1.1,3.6,3.8,3.6
		c9.1-0.1,18.2,0,27.4,0c5.7,0,5.8,0,6.1-5.7c0.2-3.1,2.1-2.4,3.9-2.6c1.9-0.1,3.5,0.1,3.4,2.7c-0.1,3.7,0.1,7.5-0.1,11.2
		c-0.1,2.9,1,4,3.9,3.9c6.5-0.1,13,0,19.5,0c33.2,0,66.5,0,99.7,0.1c3.5,0,5.2-1,4.7-4.6c-0.2-1.3,0.1-2.6,0.2-4.3
		c1.7,0,3.1,0,4.4,0c6,0,6.1,0,6.4,6c0.1,2.4,1.2,2.9,3.3,2.9c10,0,20-0.1,30,0c2.6,0,3.6-1,3.5-3.5c-0.1-6.4-0.1-12.7,0-19.1
		c0-2.6-0.9-3.5-3.5-3.4c-8.4,0.1-16.7,0-25.1,0c-2.6,0-5.2,0-7.7,0c-0.2,1-0.4,1.5-0.4,2c-0.4,6.3-0.4,6.3-6.6,6.3
		c-0.5,0-1,0-1.5,0c-2.2,0.2-3.1-0.7-3-3c0.1-7.4,0-14.7,0-22.1c0-2.7,0-5.4,0-8.2c9,0,17.4,0,26,0c0.1,1.3,0.3,2.3,0.2,3.2
		c-0.4,3.5,1,4.6,4.5,4.5c9.6-0.2,19.2-0.2,28.9,0c2.9,0,4-1,3.9-3.9C252.7,70.2,252.7,64.2,252.9,58.2z M213.6,15.3
		c11.3,0,22.2,0,33.6,0c0,7,0.1,13.9-0.1,20.7c0,0.7-1.6,1.9-2.4,1.9c-9.5,0.1-19,0.1-28.5,0c-0.9,0-2.5-1.2-2.5-1.8
		C213.5,29.2,213.6,22.3,213.6,15.3z M43.7,74c-11.4,0-22.2,0-33.6,0c0-6.9-0.1-13.7,0.1-20.5c0-0.7,1.6-1.9,2.5-1.9
		c9.5-0.1,19-0.2,28.4,0c0.9,0,2.5,1.4,2.5,2.2C43.8,60.4,43.7,67,43.7,74z M18.9,112.3c0-4.1,0-8.2,0-12.2c0-10.3,0-10.3,10.4-10.3
		c6.6,0,13.2,0,19.8,0c1.7,0,3.4-0.1,3.4,2.3c0.1,6.6,0.1,13.2,0.1,20.2C41.2,112.3,30.4,112.3,18.9,112.3z M185.6,119.9
		c-40,0-80,0-120.2,0c0-38.2,0-76.1,0-114.2c40.1,0,80,0,120.2,0C185.6,43.8,185.6,81.7,185.6,119.9z M202.1,99.3
		c1.5-0.1,2.5-0.1,3.5-0.2c9.8,0,19.7,0,30.1,0c0,7.2,0.1,14.1-0.1,21c0,0.6-1.7,1.7-2.6,1.7c-9.4,0.1-18.7,0-28.1,0.1
		c-1.8,0-2.8-0.4-2.8-2.5C202.1,112.9,202.1,106.3,202.1,99.3z M251,76.1c0,0.8-1.3,2.3-2,2.3c-10.3,0.1-20.7,0.1-31.6,0.1
		c0-7.1-0.1-13.9,0.1-20.8c0-0.7,1.6-1.9,2.5-1.9c9.5-0.1,19-0.2,28.5,0c0.9,0,2.5,1.7,2.5,2.7C251.2,64.4,251.2,70.2,251,76.1z"/>
	<path d="M145.5,74.5c0,1,0.2,1.9,0.3,2.9c0.6,0.2,0.9,0.4,1.2,0.4c5.7,0,11.5,0.1,17.2,0.1c6.5,0,9.9-2.3,11.7-7.9
		c1.4-4.3-0.2-7.8-5.6-11.9c3.8-3,5.1-6.8,3.4-11.1c-1.8-4.6-5.8-5.9-10.3-5.8c-4.9,0-9.8,0.1-14.6,0c-2.7-0.1-3.4,0.9-3.4,3.5
		C145.6,54.5,145.5,64.5,145.5,74.5z M168.2,67.3c-0.3,2.5-1.7,3.8-4.2,3.9c-3.4,0-6.7,0-10.5,0c0-3.3,0-6.1,0-9.5
		c3.9,0.2,7.6,0.3,11.3,0.7C167.4,62.7,168.5,64.6,168.2,67.3z M160.2,47.3c1,0.1,2,0.3,3,0.3c2.3,0.1,3.7,1.1,3.7,3.7
		c-0.1,2.5-1.4,3.7-3.6,3.9c-3.1,0.2-6.2,0-9.5,0C152.3,47.5,153.2,46.5,160.2,47.3z"/>
	<path d="M112.1,77.9c4.2-0.2,8.5,0,12.7-0.1c6.4-0.1,11.9-3.8,13.3-10c1-4.4,1.5-9.2,0.8-13.6c-1.3-9.1-6.6-13-15.7-13.1
		c-3.9,0-7.7,0.1-11.6,0c-2.5-0.1-3.3,0.9-3.2,3.3c0.1,5,0,10,0,15c0,4.9,0.1,9.7-0.1,14.6C108.3,76.7,109,78,112.1,77.9z
		 M116.4,49.6c0-0.6,0.8-1.5,1.5-1.7c7.8-2.5,13.5,1.6,13.6,9.9c0,0.4,0,0.7,0,1.1c0.1,11.2-3.6,14.2-15.2,11.8
		C116.3,63.7,116.3,56.6,116.4,49.6z"/>
	<path d="M78.8,77.8c2.4,0.2,3.8-0.3,3.7-3.2c-0.2-3.3,0-6.7,0-10.8c3.9,0,7.2,0.2,10.5,0c5.9-0.4,10.1-5.2,10-11.4
		c0-6.4-3.6-10.7-9.7-11.1c-5.3-0.3-10.7-0.2-16.1,0c-0.9,0-2.5,1.7-2.5,2.6c-0.2,10.4,0,20.7-0.2,31.1
		C74.4,78.3,76.7,77.7,78.8,77.8z M90.4,47.8c2.8,0.4,4.3,1.8,4.4,4.6c0.1,2.8-1.6,4.5-4.2,4.9c-2.5,0.4-5.2,0.1-8.1,0.1
		c-0.1-1.2-0.2-1.8-0.2-2.4C82.2,47.2,82.7,46.8,90.4,47.8z"/>
</g>
</svg>
