<?xml version="1.0" encoding="utf-8"?>
<!-- Generator: Adobe Illustrator 21.0.0, SVG Export Plug-In . SVG Version: 6.00 Build 0)  -->
<svg version="1.1" id="Layer_1" xmlns="http://www.w3.org/2000/svg" xmlns:xlink="http://www.w3.org/1999/xlink" x="0px" y="0px"
	 viewBox="0 0 250.9 121.7" style="enable-background:new 0 0 250.9 121.7;" xml:space="preserve">
<style type="text/css">
	.st0{fill:none;}
</style>
<g>
	<path class="st0" d="M151.4,59.6c0,3.4,0,6.2,0,9.5c3.8,0,7.2,0,10.5,0c2.5,0,3.9-1.4,4.2-3.9c0.3-2.7-0.8-4.6-3.4-4.9
		C159.1,59.9,155.4,59.9,151.4,59.6z"/>
	<path class="st0" d="M161.2,53.2c2.2-0.1,3.6-1.4,3.6-3.9c0.1-2.6-1.3-3.5-3.7-3.7c-1,0-2-0.2-3-0.3c-7.1-0.8-8,0.2-6.5,7.9
		C155,53.3,158.1,53.4,161.2,53.2z"/>
	<path class="st0" d="M129.5,56.8c0-0.4,0-0.7,0-1.1c-0.2-8.3-5.8-12.4-13.6-9.9c-0.6,0.2-1.5,1.1-1.5,1.7
		c-0.1,7.1-0.1,14.1-0.1,21.1C125.9,71,129.6,68,129.5,56.8z"/>
	<path class="st0" d="M214.2,35.8c9.5,0.1,19,0.1,28.5,0c0.9,0,2.4-1.2,2.4-1.9c0.2-6.8,0.1-13.6,0.1-20.7c-11.4,0-22.3,0-33.6,0
		c0,7-0.1,13.9,0.1,20.7C211.7,34.6,213.3,35.8,214.2,35.8z"/>
	<path class="st0" d="M47.2,87.8c-6.6,0-13.2,0-19.8,0C17,87.8,17,87.8,17,98.1c0,4,0,8.1,0,12.2c11.5,0,22.3,0,33.7,0
		c0-7,0-13.6,0-20.2C50.6,87.7,48.9,87.8,47.2,87.8z"/>
	<path class="st0" d="M39.1,49.6c-9.5-0.2-19-0.1-28.4,0c-0.9,0-2.4,1.2-2.5,1.9C8,58.3,8.1,65.1,8.1,72c11.4,0,22.2,0,33.6,0
		c0-7,0.1-13.6-0.1-20.2C41.5,51.1,40,49.6,39.1,49.6z"/>
	<path class="st0" d="M202.9,119.9c9.4,0,18.7,0,28.1-0.1c0.9,0,2.6-1.1,2.6-1.7c0.2-6.9,0.1-13.9,0.1-21c-10.4,0-20.2,0-30.1,0
		c-1,0-2,0.1-3.5,0.2c0,7,0,13.6,0,20.2C200.1,119.5,201.1,120,202.9,119.9z"/>
	<path class="st0" d="M63.4,117.9c40.2,0,80.2,0,120.2,0c0-38.2,0-76.1,0-114.2c-40.2,0-80.1,0-120.2,0
		C63.4,41.8,63.4,79.7,63.4,117.9z M146.9,39c4.9,0.2,9.7,0.1,14.6,0c4.6,0,8.5,1.3,10.3,5.8c1.7,4.3,0.4,8.1-3.4,11.1
		c5.4,4.1,7,7.6,5.6,11.9c-1.8,5.5-5.2,7.8-11.7,7.9c-5.7,0-11.5,0-17.2-0.1c-0.3,0-0.7-0.2-1.2-0.4c-0.1-0.9-0.3-1.9-0.3-2.9
		c0-10,0.1-20,0-30C143.4,39.9,144.2,38.9,146.9,39z M106.4,57.3C106.4,57.3,106.4,57.3,106.4,57.3c0-5,0.1-10,0-15
		c-0.1-2.4,0.8-3.4,3.2-3.3c3.9,0.1,7.7,0,11.6,0c9.2,0,14.4,4,15.7,13.1c0.7,4.4,0.2,9.3-0.8,13.6c-1.5,6.2-6.9,9.9-13.3,10
		c-4.2,0.1-8.5-0.1-12.7,0.1c-3.1,0.2-3.8-1.1-3.7-3.9C106.6,67.1,106.4,62.2,106.4,57.3z M72.6,41.8c0-0.9,1.6-2.5,2.5-2.6
		c5.4-0.2,10.7-0.3,16.1,0c6.1,0.4,9.7,4.7,9.7,11.1c0,6.2-4.1,11-10,11.4c-3.3,0.2-6.7,0-10.5,0c0,4.1-0.1,7.5,0,10.8
		c0.2,2.9-1.3,3.4-3.7,3.2c-2.1-0.1-4.3,0.5-4.3-3C72.6,62.5,72.4,52.1,72.6,41.8z"/>
	<path class="st0" d="M246.5,53.8c-9.5-0.2-19-0.2-28.5,0c-0.9,0-2.5,1.2-2.5,1.9c-0.2,6.8-0.1,13.6-0.1,20.8
		c10.9,0,21.3,0,31.6-0.1c0.7,0,2-1.5,2-2.3c0.2-5.9,0.2-11.7,0-17.6C249,55.5,247.4,53.8,246.5,53.8z"/>
	<path class="st0" d="M80.6,55.3c2.9,0,5.5,0.3,8.1-0.1c2.5-0.4,4.3-2.1,4.2-4.9c-0.1-2.8-1.6-4.2-4.4-4.6c-7.7-1-8.2-0.6-8,7.2
		C80.4,53.6,80.5,54.2,80.6,55.3z"/>
	<path d="M250.9,56.2c0.1-3-0.8-4.3-4-4.3c-9.1,0.1-18.2,0-27.4,0.1c-5.7,0-5.8,0-5.8,5.8c0,2.9-1.1,3.6-3.8,3.5
		c-4.6-0.2-9.2,0-13.9,0c-2.8,0-5.6,0-8.4,0c0-9.9,0-19.1,0-28.4c6.1,0,12,0,17.9,0c2.3,0,4.2-0.1,4.6,3c0.1,0.6,1.9,1.5,2.9,1.5
		c10.1,0.1,20.2,0,30.4,0.1c2.6,0,3.5-1.1,3.5-3.6c-0.1-6.2-0.1-12.5,0-18.7c0.1-2.8-0.9-3.7-3.7-3.7c-8.1,0.1-16.2,0-24.4,0
		c-8.8,0-8.8,0-9,8.8c0,0.2,0,0.5,0,0.7c0.1,2-0.7,3-2.8,3c-6.4-0.1-12.7,0-19.5,0c0-7.1-0.1-13.7,0-20.3c0-2.7-1.1-3.7-3.8-3.7
		c-40,0-80,0.1-120,0c-3.2,0-4.2,1.3-4.1,4.3c0.1,4.4-0.1,8.7,0.1,13.1c0.1,2.5-0.7,3.6-3.4,3.5c-4.6-0.2-9.2,0-13.9,0
		c-5.4,0-5.6,0-5.4-5.5c0.1-2.9-0.8-4-3.8-3.9c-9.7,0.2-19.5,0.1-29.2,0c-2.9,0-4,0.7-3.9,3.8c0.2,6.1,0.2,12.2,0,18.4
		c-0.1,2.9,0.9,4,3.9,3.9c9.6-0.1,19.2-0.2,28.9,0c3.3,0.1,4.6-1,4.2-4.3c-0.3-2.1,0.1-3.7,2.9-3.6c5.7,0.1,11.5,0.1,17.2,0
		c1.9,0,2.7,0.8,2.6,2.7c-0.1,3.5,0,7,0,10.5c0,4.6,0,9.2,0,14.1c-4,0-7.3,0-10.7,0c-5.5,0-5.5,0-5.7-5.4c-0.1-2,0-3.8-2.9-3.8
		c-10.4,0.1-20.7,0-31.1,0c-2.1,0-2.9,0.9-2.9,3c0.1,6.6,0.1,13.2,0,19.9c0,2.6,1.1,3.1,3.4,3.1c9-0.1,18,0,27,0c2,0,3.9,0,6.2,0
		c0.1-2,0-3.7,0.4-5.2c0.2-0.9,1.3-2.3,2-2.3c4.6-0.2,9.2-0.1,14-0.1c0,9.7,0,19,0,28.4c-2.4,0-4.5,0-7,0c0-1.5-0.1-2.8,0-4
		c0.4-3.5-1.1-4.5-4.5-4.5c-9.6,0.2-19.2,0.2-28.9,0c-3,0-4,1.1-3.9,4c0.1,6.1,0.1,12.2,0,18.4c-0.1,2.8,1.1,3.6,3.8,3.6
		c9.1-0.1,18.2,0,27.4,0c5.7,0,5.8,0,6.1-5.7c0.2-3.1,2.1-2.4,3.9-2.6c1.9-0.1,3.5,0.1,3.4,2.7c-0.1,3.7,0.1,7.5-0.1,11.2
		c-0.1,2.9,1,4,3.9,3.9c6.5-0.1,13,0,19.5,0c33.2,0,66.5,0,99.7,0.1c3.5,0,5.2-1,4.7-4.6c-0.2-1.3,0.1-2.6,0.2-4.3
		c1.7,0,3.1,0,4.4,0c6,0,6.1,0,6.4,6c0.1,2.4,1.2,2.9,3.3,2.9c10,0,20-0.1,30,0c2.6,0,3.6-1,3.5-3.5c-0.1-6.4-0.1-12.7,0-19.1
		c0-2.6-0.9-3.5-3.5-3.4c-8.4,0.1-16.7,0-25.1,0c-2.6,0-5.2,0-7.7,0c-0.2,1-0.4,1.5-0.4,2c-0.4,6.3-0.4,6.3-6.6,6.3
		c-0.5,0-1,0-1.5,0c-2.2,0.2-3.1-0.7-3-3c0.1-7.4,0-14.7,0-22.1c0-2.7,0-5.4,0-8.2c9,0,17.4,0,26,0c0.1,1.3,0.3,2.3,0.2,3.2
		c-0.4,3.5,1,4.6,4.5,4.5c9.6-0.2,19.2-0.2,28.9,0c2.9,0,4-1,3.9-3.9C250.7,68.2,250.7,62.2,250.9,56.2z M211.6,13.3
		c11.3,0,22.2,0,33.6,0c0,7,0.1,13.9-0.1,20.7c0,0.7-1.6,1.9-2.4,1.9c-9.5,0.1-19,0.1-28.5,0c-0.9,0-2.5-1.2-2.5-1.8
		C211.5,27.2,211.6,20.3,211.6,13.3z M41.7,72c-11.4,0-22.2,0-33.6,0c0-6.9-0.1-13.7,0.1-20.5c0-0.7,1.6-1.9,2.5-1.9
		c9.5-0.1,19-0.2,28.4,0c0.9,0,2.5,1.4,2.5,2.2C41.8,58.4,41.7,65,41.7,72z M50.6,110.3c-11.4,0-22.2,0-33.7,0c0-4.1,0-8.2,0-12.2
		c0-10.3,0-10.3,10.4-10.3c6.6,0,13.2,0,19.8,0c1.7,0,3.4-0.1,3.4,2.3C50.6,96.7,50.6,103.3,50.6,110.3z M183.6,117.9
		c-40,0-80,0-120.2,0c0-38.2,0-76.1,0-114.2c40.1,0,80,0,120.2,0C183.6,41.8,183.6,79.7,183.6,117.9z M200.1,97.3
		c1.5-0.1,2.5-0.1,3.5-0.2c9.8,0,19.7,0,30.1,0c0,7.2,0.1,14.1-0.1,21c0,0.6-1.7,1.7-2.6,1.7c-9.4,0.1-18.7,0-28.1,0.1
		c-1.8,0-2.8-0.4-2.8-2.5C200.1,110.9,200.1,104.3,200.1,97.3z M249,74.1c0,0.8-1.3,2.3-2,2.3c-10.3,0.1-20.7,0.1-31.6,0.1
		c0-7.1-0.1-13.9,0.1-20.8c0-0.7,1.6-1.9,2.5-1.9c9.5-0.1,19-0.2,28.5,0c0.9,0,2.5,1.7,2.5,2.7C249.2,62.4,249.2,68.2,249,74.1z"/>
	<path d="M143.5,72.5c0,1,0.2,1.9,0.3,2.9c0.6,0.2,0.9,0.4,1.2,0.4c5.7,0,11.5,0.1,17.2,0.1c6.5,0,9.9-2.3,11.7-7.9
		c1.4-4.3-0.2-7.8-5.6-11.9c3.8-3,5.1-6.8,3.4-11.1c-1.8-4.6-5.8-5.9-10.3-5.8c-4.9,0-9.8,0.1-14.6,0c-2.7-0.1-3.4,0.9-3.4,3.5
		C143.6,52.5,143.5,62.5,143.5,72.5z M166.2,65.3c-0.3,2.5-1.7,3.8-4.2,3.9c-3.4,0-6.7,0-10.5,0c0-3.3,0-6.1,0-9.5
		c3.9,0.2,7.6,0.3,11.3,0.7C165.4,60.7,166.5,62.6,166.2,65.3z M158.2,45.3c1,0.1,2,0.3,3,0.3c2.3,0.1,3.7,1.1,3.7,3.7
		c-0.1,2.5-1.4,3.7-3.6,3.9c-3.1,0.2-6.2,0-9.5,0C150.3,45.5,151.2,44.5,158.2,45.3z"/>
	<path d="M110.1,75.9c4.2-0.2,8.5,0,12.7-0.1c6.4-0.1,11.9-3.8,13.3-10c1-4.4,1.5-9.2,0.8-13.6c-1.3-9.1-6.6-13-15.7-13.1
		c-3.9,0-7.7,0.1-11.6,0c-2.5-0.1-3.3,0.9-3.2,3.3c0.1,5,0,10,0,15c0,0,0,0,0,0c0,4.9,0.1,9.7-0.1,14.6
		C106.3,74.7,107,76,110.1,75.9z M114.4,47.6c0-0.6,0.8-1.5,1.5-1.7c7.8-2.5,13.5,1.6,13.6,9.9c0,0.4,0,0.7,0,1.1
		c0.1,11.2-3.6,14.2-15.2,11.8C114.3,61.7,114.3,54.6,114.4,47.6z"/>
	<path d="M76.8,75.8c2.4,0.2,3.8-0.3,3.7-3.2c-0.2-3.3,0-6.7,0-10.8c3.9,0,7.2,0.2,10.5,0c5.9-0.4,10.1-5.2,10-11.4
		c0-6.4-3.6-10.7-9.7-11.1c-5.3-0.3-10.7-0.2-16.1,0c-0.9,0-2.5,1.7-2.5,2.6c-0.2,10.4,0,20.7-0.2,31.1
		C72.4,76.3,74.7,75.7,76.8,75.8z M88.4,45.8c2.8,0.4,4.3,1.8,4.4,4.6c0.1,2.8-1.6,4.5-4.2,4.9c-2.5,0.4-5.2,0.1-8.1,0.1
		c-0.1-1.2-0.2-1.8-0.2-2.4C80.2,45.2,80.7,44.8,88.4,45.8z"/>
</g>
</svg>
