<?xml version="1.0" encoding="utf-8"?>
<!-- Generator: Adobe Illustrator 21.0.0, SVG Export Plug-In . SVG Version: 6.00 Build 0)  -->
<svg version="1.1" id="Layer_1" xmlns="http://www.w3.org/2000/svg" xmlns:xlink="http://www.w3.org/1999/xlink" x="0px" y="0px"
	 viewBox="0 0 166.3 202.3" style="enable-background:new 0 0 166.3 202.3;" xml:space="preserve">
<path d="M112.9,126.6c1.1-5.9,2.2-11.7,3.3-17.6c2.3-12.8,4.4-25.5,7-38.3c1.4-7.3,10.5-13.7,18.3-14.5c13.8-1.4,28.1,10.3,24.2,30
	c-3,14.9-5,30-7.4,45c-1.3,8.1-2.7,16.2-3.8,24.4c-1.2,8.3-6.9,12.3-13.9,15c-6.1,2.4-12.3,0.8-18.4-0.5
	c-16.1-3.4-32.2-6.9-48.3-10.2c-1.2-0.2-3,0.9-4.1,1.9c-12.3,11.4-24.4,22.9-36.6,34.4c-4.2,4-8.6,7.1-15,5.4
	c-10.6-2.9-14.6-14.5-7.6-23.1c11.8-14.4,23.8-28.6,35.7-42.9c2.4-2.9,4.9-5.7,7.2-8.6c4.2-5.1,9.4-6.7,16-5.8
	c13.6,1.9,27.2,3.5,40.8,5.2C111,126.7,111.7,126.6,112.9,126.6z"/>
<path d="M32.5,90.3C27.1,93.3,22,96,17,98.8c-1.6,0.9-2.9,1.4-4.1-0.6c-4.2-7-8.5-14.1-13-21.5c6.2-3.5,12.1-6.8,18.4-10.4
	c-3.3-5.7-6.4-11.1-9.6-16.6c-0.6-1.1-1.3-2.1-1.9-3.2C3.9,41.1,5,36,10.1,33c4.9-2.9,10.3-1.4,13.3,3.9
	C31.3,50.5,39.2,64.3,47.1,78c4.4,7.6,8.8,15.1,13,22.7c3,5.3,1.4,10.8-3.9,13.7c-4.8,2.6-10.1,0.9-13-4.3
	C39.8,103.7,36.3,97.2,32.5,90.3z"/>
<path d="M163.6,26.1c0,14.1-12,26.1-26,25.9c-13.8-0.1-25.9-12.4-25.6-26.2c0.3-14.7,12.7-25.7,25.8-25.8
	C151.2-0.1,164.1,12.2,163.6,26.1z"/>
<path d="M77,21c12.4-0.3,24.9,8.6,29.2,20.7c4.2,11.9,0.2,26.1-9.5,33.9c-7.7,6.3-16.3,8.7-26.2,6.7c-1.8-0.4-3.8,0.5-5.7,0.8
	c-0.6,0.1-1.2,0.9-1.7,0.8c-4.3-0.6-3.9-5.1-6-7.6c-1-1.3-1.3-2.6,0.6-3.7c3.3-1.8,6.4-4,9.7-5.6c1.1-0.5,2.8-0.1,4.2,0.3
	c7.2,2.1,14.9,0.1,19-5.1c4.8-6.1,5.3-14.5,1.2-21c-4.2-6.6-10.6-8.4-17.9-7.5c-6.2,0.8-12.4,6-13.1,12.7c-0.8,8-7.5,8.7-12.3,12
	c-0.3,0.2-1.8-0.5-2.2-1.2c-1-1.6-1.6-3.4-2.6-5c-1.9-3.1-3-5.8,1.9-7.3c0.9-0.3,1.6-1.8,2-2.9C52.7,29,63.3,21.4,77,21z"/>
</svg>
