<?xml version="1.0" encoding="utf-8"?>
<!-- Generator: Adobe Illustrator 21.0.0, SVG Export Plug-In . SVG Version: 6.00 Build 0)  -->
<svg version="1.1" id="Layer_1" xmlns="http://www.w3.org/2000/svg" xmlns:xlink="http://www.w3.org/1999/xlink" x="0px" y="0px"
	 viewBox="0 0 451 437" style="enable-background:new 0 0 451 437;" xml:space="preserve">
<g>
	<path d="M232.3,411.1c0.1-0.3,0.2-0.6,0.3-0.9c-5.6-2.5-11.2-5-16.8-7.5C216.8,405.7,230,411.6,232.3,411.1z"/>
	<path d="M237.4,412.7c-0.9-0.5-1.8-0.9-2.8-1c-0.3,0-0.6,0-0.9,0c-0.1,0.3-0.2,0.5-0.3,0.8c2.1,0.9,4.2,1.7,6.3,2.6
		c0.1-0.3,0.2-0.6,0.4-0.9c0,0,0,0,0,0c0,0,0-0.1,0-0.1C239.1,413.8,238.3,413.2,237.4,412.7z"/>
	<path d="M228.5,349.9c-0.9,0.3-1.8,0.3-2.7,0.4c-1.1,0.2-1.7,0.7-1.7,1.2c0,0.4,0.4,0.8,1.3,1.1c0.9,0.3,2.4-1.1,3.6-1.6
		c0-0.1-0.1-0.1-0.1-0.2c0,0,0.1,0,0.1,0C228.8,350.5,228.8,350.2,228.5,349.9z"/>
	<path d="M101.2,189.8c0.3,7,4.8,12.5,6.4,19.1c0.8,3.2,2.2,6.3,3.5,9.3c1.3,3.2,2.9,6.3,4.4,9.6c0.2,0.1,0.9,0.1,1.2,0.5
		c0.7,1.1,1.2,2.3,1.7,3.5c2,5.1,4,10.2,6,15.3c1.7,4.1,3.9,8.1,6.4,11.8c1.6,2.4,4.2,4,6.3,6c0.2-0.2,0.5-0.4,0.7-0.6
		c-0.3-3.1-0.5-6.2-0.9-9.3c-1.2-10.3-0.8-20.7-3.2-31c-3-12.7-4.9-25.5,1.1-38.1c1.5-3.2,2.4-6.8,3.6-10.2c0.9-2.6,1.9-5.3,3-7.8
		c0.3-0.8,1.1-1.7,1.8-1.9c1.4-0.4,2.9-0.2,4.4-0.3c-0.1,2.7,1.3,0.9,2.1,0.7c0.8-0.2,1.6-0.4,2.4-0.6c3.8-0.8,7.5-1.6,11.3-2.6
		c2.3-0.6,4.5-1.7,6.8-2.3c1.5-0.4,3.2-0.1,4.8-0.4c3.6-0.7,7.2-1.8,10.8-2.2c4.4-0.5,4.4-0.3,3.9-4.5c-0.6-4.4-1.4-5-5.8-4.4
		c-0.3,0-0.6,0.1-0.8,0.1c-6.1,0.8-12.2,1.2-18.4-0.3c-1.8-0.5-3.9-0.4-5.6,0.1c-2.8,0.8-5.2,0.3-7.7-1c-2.1,1.4-4.2,2.8-6.8,4.6
		c0.9-6.6,1.7-12.7,2.4-18.8c0.2-1.5,0-3.1,0-4.7c0.1-2.3,0-4.6,0.4-6.8c0.4-2,1.7-2,3.4,0c1.6-2.1,2.9-4.2,4.6-6
		c1-1.1,2.3-1.8,3.5-2.7c0.3-0.2,0.8-0.4,0.9-0.6c0.5-2.9,3.2-2.9,5-4c1.4-0.8,2.6-2.1,3.5-3.5c1.1-1.7,1.9-3.7,2.6-5.6
		c0.4-1.1,0.5-2.3,0.8-3.5c0.2-1.1,0.3-2.4,0.8-3.4c1.3-2.6,3.7-5,4-7.7c0.7-5.4,4.5-8.7,7.3-12.7c1.2-1.7,3.3-2.7,5-4
		c3.2-2.5,6.4-4.9,9.7-7.4c0.3-0.1,1.1,0,1.7-0.3c1.7-0.9,3.4-2,5.1-3c0.6-0.4,1.5-0.7,1.9-1.3c1.1-1.5,2.1-3.2,3-4.6
		c1.1,1.1,1.8,2,2.7,2.6c1.8,1,4.1,1.4,5.6,2.8c3,2.8,5.3,6.6,10,7.2c0.5,0.1,0.9,0.6,1.4,1c4,3.5,8.1,6.9,12.2,10.5
		c-0.2,0.3-0.6,0.8-0.8,1.1c2.8,2.1,5.2,4.6,8.2,5.9c5.5,2.4,8.7,7.4,13.5,10.6c0.5,0.3,0.5,1.2,0.9,1.7c0.4,0.6,0.9,1.2,1.5,1.5
		c4,2,8,3.9,11.9,5.9c0.6,0.3,0.8,1.3,1.1,2c1,2.5,1.5,4.9,4.3,6.8c4.1,2.7,8.4,6,7.6,12.2c-0.1,0.9,0.1,2.2,0.7,2.7
		c1.7,1.5,1.6,3.5,2.1,5.4c2,7.2,4.1,14.3,6.5,21.3c1,2.9,3,5.3,4.3,8.1c4.6,9.9,4.5,20.4,4.4,30.9c0,2.2,0.7,4.4,0.5,6.5
		c-1.1,8.3-2.5,16.5-3.5,24.8c-0.6,4.5-0.6,9.1-0.8,13.6c-0.2,3-0.8,6.1-0.4,9c0.5,4.1,1.5,8.3,2.6,12.3c1.7,5.6,1.9,5.7,6,2.6
		c-0.1-0.1-0.2-0.2-0.3-0.2c0,0,0-0.1,0-0.1c0,0,0-0.1,0-0.1c0.2-1.4,0.4-2.9,0.7-4.3c0.5-2.1,0.7-3,1.5-3.3
		c0.6-0.3,1.6-0.2,3.2,0.1c0.9,0.2,1.8,0.2,2.6,0c1.3-0.3,2.4-1,3.3-2.1c0,0,0,0,0,0c0,0,0.1-0.1,0.1-0.1c1.2,2.6,3,0.5,3.8,0
		c0.1-0.1,0.2-0.2,0.3-0.3c0.8-0.8,1.2-2.2,1.9-3.5c0,0,0,0,0,0.1c0-0.1,0.1-0.1,0.1-0.2c0.6,1.6,0.5,3-0.2,4
		c-0.4,0.6-1,1.1-1.8,1.4c-0.6,0.2-1.1,0.4-1.7,0.4c-2.1,0.1-3.9,0.4-5,1.5c-0.8,0.9-1.2,2.3-1.1,4.3c0.1,0.8-0.1,1.9-0.8,2.4
		c-0.5,0.5-1.3,0.7-2.5,0.4c0,1.7,0,3.3,0,4.9c0,0-0.1,0-0.1,0.1c0,0,0,0,0,0c-0.1,0.1-0.2,0.1-0.3,0.2c-0.5-1.1-0.8-2.3-1.5-3.3
		c-0.4-0.7-1-1.2-1.5-1.7c0.6,1.4,1.3,2.9,1.8,4.3c0.4,1.1,0.8,2.2,1.3,3.3c-0.3,0.1-0.6,0.2-1,0.3c-0.7-1.6-1.5-3.2-2.4-5.3
		c-1.1,2.5-1.5,4.4-0.1,6.4c2.2,3.3,2.1,4.7-0.2,7.9c-0.3,0.4-0.2,0.9-0.4,1.3c3.7-2.4,7.6-4.7,9.9-8c3.5-4.9,5.9-10.5,8.7-15.9
		c0.9-1.7,1.7-3.4,2.6-5c0.6-1.3,1.4-2.6,1.8-4c1-3.3,1.7-6.6,2.6-9.9c1.2-4.1,2.6-8.2,3.7-11.7c1.6-0.6,3.3-0.8,4.2-1.8
		c0.7-0.8,0.6-2.5,0.6-3.8s-0.2-2.5-0.3-3.8c0.3-0.1,0.7-0.2,1-0.3c0.4,0.8,1,1.5,1.1,2.3c0.2,1.4,0.1,2.9,0.1,4.5
		c2.5-0.5,2.7-4.6,5.9-1.8c-0.6-2-1.3-3.4-1.5-4.9c-0.2-1.1-0.2-2.9,0.4-3.3c3.8-2.5,3.2-6.8,3.5-10.1c0.6-7.2,0.7-14.5-0.1-21.6
		c-0.8-7.5-3-14.9-4.5-22.3c-0.1-0.5-0.1-1.1-0.1-1.6c0.1-2.2,0.9-4.4,0.4-6.4c-1.5-6.1-1.3-12.1-0.5-18.1c0.6-4.7,1.1-9.5,1.4-14.2
		c0.2-4.1,0.3-8.2-0.2-12.2c-0.7-6-1.9-12-2.9-18c-0.1-0.7-0.4-1.4-0.7-2.1c-1.1-2.1-2.5-4-3.4-6.2c-1.4-3.4-2.1-7.1-3.7-10.4
		c-6-12-14.4-21.9-25.1-30c-3.1-2.3-5.8-5.2-8.7-7.8c-0.6-0.5-1.3-1-1.9-1.5c-2.3-1.7-4.8-3.4-7-5.2c-0.9-0.7-1.2-2.3-2.1-2.8
		c-3.7-2.2-7.6-4-11.4-6.1c-3.1-1.8-6.2-3.2-9.8-4.1c-4.5-1-8.8-3.1-13.2-4.6c-1.3-0.5-2.8-0.8-4.1-0.9c-2.5-0.1-5,0.2-7.5,0.2
		c-0.3,0-0.6-0.5-0.9-0.6c-1.5-0.4-3.2-1.3-4.6-1c-4.7,1.1-9.3,2.8-14.1,3.9c-5.4,1.3-9.6,4-12.7,8.5c-1.5,2.2-2.9,4.5-4.6,7.3
		c-2.1-1.2-4.2-2.7-6.4-3.8c-4.2-2.1-8.4-4.7-12.8-5.9c-5.1-1.4-10.5-1.4-15.8,0c-3.3,0.9-6.6,1.8-9.9,2.4
		c-7.5,1.3-14.8,2.9-21.1,7.5c-3.9,2.8-7.6,6-11.2,9.2c-1.5,1.3-2.9,2.7-4.2,4.3c-3,3.7-5.9,7.5-8.6,11.4
		c-4.7,6.7-9.4,13.8-10.9,21.8c-1.6,8.1-1.8,16.5-2.2,24.7c-0.2,4-0.6,7.9-2.3,11.7c-0.5,1.1-0.4,2.5-0.4,3.8
		c-0.1,1.1,0.1,2.2-0.1,3.2c-0.9,3.8-2.3,7.5-2.9,11.3c-0.5,3.4-0.1,6.9-0.1,10.4c0,1.8,0.3,3.7,0,5.4c-0.8,3.7-2.2,7.2-3.1,10.9
		c-1,3.7-2.7,7.4-2.5,11.1c-0.7,5.6-3.8,11.5-0.5,17.4C101,183.9,101.1,187,101.2,189.8z M322.7,248.8L322.7,248.8L322.7,248.8
		C322.7,248.8,322.7,248.8,322.7,248.8c-0.3,0.8-0.7,1.8-1.1,2.7c-0.4,0-0.7,0-1.1,0h0c-0.2-1.2-0.5-2.4-0.7-3.7
		C320.8,248.1,321.6,248.4,322.7,248.8z M314.8,247.1c0.1-0.4,1-0.7,1.4-0.6c0.6,0.2,1.5,0.7,1.6,1.2c0.1,0.3,0.1,0.6,0.2,0.9
		l0.2,3.6c-0.2-0.2-0.4-0.4-0.6-0.6c-1.2-1-2.1-1.7-2.7-2.4C314.5,248.7,314.6,247.7,314.8,247.1z"/>
	<path d="M249.8,264.8c-2.8-0.2-5.7-0.7-8.4-1.3c-3.9-0.8-7.5-2.6-11.7-1.1c-2.4,0.9-4.9,1.2-7.4-0.5c-1.8-1.2-3.1-0.3-3.4,1.8
		c0,0.2-0.3,0.4-0.4,0.6c-0.8-0.2-1.5-0.4-2.5-0.7c0.6,0.8,1,1.4,1.5,2.1c-2.2,0.5-2.9-0.7-2.9-2.2c0.1-2.6-1.5-2.6-3.4-2.6
		c-3.7,0-7.3-0.1-11-0.1c-0.5,0-0.9,0.1-1.4,0.3c-2.5,1-5.1,2.1-7.6,3.1c-5.2,2-8.5,0.8-11.5-3.8c-0.3-0.4-0.4-1.1-0.7-1.2
		c-1.3-0.5-3.6-1.3-3.8-1c-1.5,2.6-4,5.7-3.6,8.3c0.8,5,4.5,8.3,9.8,9.2c0.8,0.1,1.8,0.3,2.3,0.9c3.8,4,9.3,5,14.1,7.1
		c3.5,1.5,8.2,0.1,12.4,0c0-0.4-0.1-0.8-0.1-1.1c-0.8-0.2-1.6-0.4-2.5-0.6c-3.4-0.7-6.6-1.9-8.9-4.7c-0.8-1-1.2-2.4-1.8-3.7
		c1.2-0.5,2.5-1.3,3.7-1.4c6.3-0.4,12.7-0.6,19.1-0.7c2,0,3.9,0.4,5.9,0.3c4.4-0.1,8.7,2.3,13.2,0.5c0.5-0.2,1.9,0.6,2.1,1.2
		c0.8,2.2-1.7,4.6-4,4c-0.7-0.2-1.4-0.4-1.9-0.6c-0.8,1.5-1.4,2.7-2.2,4.2c8.8-0.3,14.8-4.8,19-12.3c0.6,1,0.8,1.9,1.3,2.2
		c2.6,1.2,5.2-0.1,6-2.8c0.1-0.4,0.3-1,0.6-1.2c2-1.6,2.1-3.3,0.9-5.5c-1.1-2-2.4-3.3-4.8-3.5c-0.1,0.7-0.1,1.2-0.2,1.6
		c-1.4,0-2.8,0-4.1,0C252.8,262.6,252,264.9,249.8,264.8z"/>
	<path d="M283.1,175.9c-8-4-16.1-7.3-25.1-8.4c-2.2-0.3-4.3-1-7.1-1.6c1.2-1,1.7-1.4,2.4-2c-5.6-2.4-16.2,0.1-19.6,4.5
		c-0.5,0.6-0.6,1.4-1,2c-1.1,2.2,0.4,4.2,0.3,6.2c-0.2,5.6,3.4,8.8,7.3,11.3c4.4,2.9,9.7,1.6,14.6,1.2c0.5,0,1-0.6,1.5-0.9
		c-3.5-1.9-6.7-4.1-10.2-5.4c-3.3-1.3-7-1.6-10.6-2.4c0.9-0.8,2-1.1,3-1.2c1.6,0,3.2,0.4,4.8,0.2c4.7-0.6,9.5-1.4,14.2-2.1
		c1-0.1,2.1,0.1,3.1,0.1c0.8,0,1.6,0.1,2.2-0.2c4.8-2.2,9.5-0.5,14.2,0.6c2.6,0.6,5.2,0.7,7.8,1.1c0.1-0.4,0.3-0.7,0.4-1.1
		C284.7,177.3,284,176.3,283.1,175.9z M248.5,176.6c-4,0-5.9-1.7-4.7-4.4c0.5-1,1.9-1.6,2.9-2.4c0,0,0,0,0,0.1c0,0,0,0,0.1-0.1
		c0.5,0.8,1.1,1.6,1.4,2.5c0.5,1.4,0.8,2.9,1.2,4.3C249.1,176.6,248.8,176.6,248.5,176.6z M262.3,175.2c0-0.1,0-0.1,0.1-0.2
		C262.3,175.1,262.3,175.1,262.3,175.2c0.5-1.7,0.9-2.9,1.4-4.4c0.5,0.4,0.9,0.7,1.2,1.1C266.2,173.2,265.5,173.8,262.3,175.2z"/>
	<path d="M290,153.7c-1.9-1.8-4.3-3.1-6.7-4.2c-1.8-0.8-3.8-1-5.8-1.5c0,0.3,0.2,1.3,0.4,2.8c-2.3-0.7-4.5-1.3-6.6-2
		c0.2,0.9,0.4,1.7,0.6,2.6c-4.6-1.5-8.8-2.8-13-4.2c0,0.3,0,0.7,0.1,1c-0.4,0.3-0.8,0.8-1.1,0.7c-4.4-0.7-8.8-1.2-13.1-2.2
		c-2.7-0.6-4.3,0.4-5.5,2.3c-1.4,2.2,1,2.8,1.9,4.1c0.5,0.7,1,1.5,1.7,2.7c13,2.5,26.6,2.5,40.4,0.9c0,0.4,0,0.8,0,1.3
		c-3.1,0.3-6.1,0.6-9.2,0.9c0,0.2,0,0.3,0,0.5c5.2,0,10.4,0,15.7,0c-0.3-0.4-0.8-0.9-1.2-1.4c0.3,0,0.6,0,0.9,0
		C289.6,156.5,290.6,154.3,290,153.7z M285.5,156.3C285.5,156.3,285.4,156.3,285.5,156.3C285.4,156.3,285.4,156.3,285.5,156.3
		c-3-1.2-5.9-2.4-8.9-3.7c0.1-0.3,0.1-0.6,0.2-0.8c0,0,0.1,0,0.1,0c0,0,0-0.1,0-0.1c1.5,0,2.9,0.1,4.6,0.2c0-0.2,0.1-0.8,0.3-2
		c0.1,0.1,0.1,0.1,0.1,0.2c0-0.1,0-0.2,0.1-0.3c1.7,2.1,3,3.7,4.3,5.3C286,155.5,285.8,155.9,285.5,156.3z"/>
	<path d="M195.5,231.8c-1,0.9-1.2,2,0.4,2.6c5,2.1,10,3.8,16.4,3.9c-4.1-2.9-7.4-5.5-10.9-7.8C199.3,229.2,197.2,230.3,195.5,231.8z
		"/>
	<path d="M158,368.2c-5.1-15.6-7.6-31.3-4.5-47.7c0.6-3.1,0.5-6.2,0.7-9.3c-0.3,0-0.6-0.1-0.9-0.1c-0.9,1.6-1.8,3.3-2.7,4.9
		c-3.6,6.7-9.2,11.6-14.6,16.8c-7,6.8-15.1,11.6-24.4,14.3c-3.6,1.1-7.1,2.1-10.6,3.5c-5.1,2-9.9,4.5-15,6.3
		c-11.5,4-23.2,7.8-34.8,11.5c-5.8,1.9-11.6,3.9-17.6,5c-10.3,1.9-20.3,4.3-29.9,8.7c0,13.9,0,27.9,0,41.9c56.2,0,112.4,0,168.6,0
		c-1.8-7.8-3.3-15.7-5.4-23.5C164.3,389.7,161.5,378.8,158,368.2z"/>
	<path d="M442.5,384.9c-13.3-5-26.7-9.8-39.9-15c-16.1-6.4-32-13.5-48.2-19.8c-7.7-3-15.2-6-21.5-11.5c-4.5-3.9-8.7-8.4-13.5-11.9
		c-6.1-4.4-11-9.7-14.8-16.1c-0.4-0.7-1.2-1.2-2.1-2.2c-0.2,1.8-0.3,2.9-0.4,4.1c-2.9-0.1-3.9,1.7-4.2,4.1
		c-0.7,5.8-1.7,11.5-6.4,15.6c-0.6,0.5-0.9,1.3-1.4,2c4.7-3.8,8.1-8.5,9.8-14.2c0.5-1.7,1.4-3.2,2.2-4.9c0.3,0.1,0.6,0.2,0.9,0.2
		c0.2,0.6,0.5,1.2,0.7,1.8c3.2,11.6,2.4,23.1-0.6,34.5c-2.1,8.1-4.6,16.1-7,24.1c-1.3,4.4-2.7,8.8-4,13.3c-1,3.3-1.8,6.6-2.7,9.9
		c-1.2,4.3-2.3,8.7-3.3,12.8c0.2,0.4,1,0.9,1,1.5c0.3,3.6,0.3,7.2,0.5,10.8c52.6,0,105.1,0,157.7,0c0-12.8,0-25.6,0-38.4
		C444.1,385.3,443.3,385.2,442.5,384.9z"/>
	<path d="M241.8,396.2c-2.9-3.8-6.1-7.7-11.4-8.4c-0.5-0.1-1-0.7-1.6-1.1c0.9-0.4,1.6-0.6,2.9-1.2c-1.8-0.6-2.9-1-3.5-1.2
		c-10.4,12.3-18.9,25.3-25.2,39.7c18.4,0,36.7,0,55.1,0c-1.8-3.6-3.3-7.3-5.3-10.7C249.1,407.4,245.8,401.6,241.8,396.2z
		 M232.3,411.1c-2.4,0.5-15.5-5.4-16.5-8.4c5.6,2.5,11.2,5,16.8,7.5C232.5,410.5,232.5,410.8,232.3,411.1z M240,414.3
		c-0.2,0.3-0.3,0.6-0.4,0.9c-2.1-0.9-4.2-1.7-6.3-2.6c0.1-0.3,0.2-0.5,0.3-0.8c0.3-0.1,0.6-0.1,0.9,0c1,0.1,2,0.5,2.8,1
		C238.3,413.2,239.1,413.8,240,414.3C240,414.2,240,414.3,240,414.3C240,414.3,240,414.3,240,414.3z"/>
	<path d="M271.8,318c-0.9-0.6-2.4-0.8-3.5-0.6c-5.7,1.2-11.4,2.6-17.1,4c-1.4,0.3-2.7,0.8-4.1,1.1c-1.8,0.5-3.7,1.3-5.6,1.3
		c-1.6,0-3.3-0.8-4.6-1.7c-2-1.4-3.8-3.2-5.8-4.8c0.2,1.4,0.3,2.6,0.4,3.4c-1.8-1.5-3.6-3.1-5.5-4.7c-2.1-1.8-4.5-1.4-6.9-1.2
		c-0.7,3.8-0.7,4-4.3,3.3c-1.4-0.3-3.1-1.1-3.8-2.2c-0.7-1.2-0.3-3.1-0.4-4.5c-0.9,1-2,2.2-3.1,3.3c-0.2-0.1-0.4-0.3-0.6-0.4
		c0-0.7,0-1.3,0-2c-0.2-0.1-0.4-0.1-0.6-0.2c-0.7,1.5-1.5,3.1-2.4,4.9c-0.7-1-1-1.5-1.3-2.1c-3.2,3.2-11.1,5.3-15.5,2.7
		c-1.2-0.7-2.4-1.5-3.7-1.8c-4.4-1-6.4-4.8-8.6-8c-1.1-1.7-2.2-1.9-3.4-1.4c-0.9,0.3-2,1.6-2.1,2.5c-0.4,3.7-0.2,3.7-4,3.3
		c0.4,0.7,0.7,1.3,1,1.8c-2,1.1-2,1.1-3.8-0.1c-3.8-2.7-4.8-2.3-6.2,2.1c-1,3.3,0.9,5.7,2.2,8.2c3.2,6.6,7.7,12.2,13.6,16.7
		c5.7,4.4,11,9.1,16.6,13.6c2.1,1.7,2.8,1.3,3.4-1.4c0.2-0.9,1.5-2.2,2.3-2.2c3.5-0.2,7-0.3,10.5,0.2c4.8,0.6,9.6,1.6,14.3,2.6
		c4.4,0.9,8.2,0.4,11.5-3c1.5-1.6,3.6-2.9,5.6-3.7c4.4-1.8,9-3.1,13.4-4.8c3.1-1.2,6.2-2.6,9.1-4.3c3-1.7,6.1-3.4,8.8-5.6
		c4.1-3.5,7.9-7.4,11.6-11.2c0.8-0.8,0.9-2.2,1.4-3.3c-1.2,0.1-2.6-0.1-3.6,0.4C275.3,318.9,273.8,319.5,271.8,318z M229,351
		c-1.2,0.5-2.7,1.9-3.6,1.6c-0.9-0.3-1.3-0.7-1.3-1.1c-0.1-0.5,0.6-1,1.7-1.2c0.9-0.1,1.8-0.1,2.7-0.4c0.2,0.3,0.3,0.6,0.5,0.9
		c0,0-0.1,0-0.1,0C229,350.9,229,350.9,229,351z"/>
	<path d="M219.5,374.9c-0.3-1-0.4-2.5-1.1-2.8c-4.6-2.4-9.2-4.6-13.9-6.8c-0.1-0.1-0.3,0.1-1,0.4c4.6,3.5,8.9,6.8,13.3,9.9
		C217.3,376,218.6,375.2,219.5,374.9z"/>
	<path d="M219.5,233.9c4.1,0.3,7.4,0.7,10.7,0.8c1.7,0,2-1,1-2.5C228.6,228.1,223.7,228.5,219.5,233.9z"/>
	<path d="M182.2,168.8c-4.6-0.6-9.4-1-14-0.5c-3.6,0.4-7.2,1.8-10.5,3.5c-3.3,1.7-6.1,4.2-9,6.4c-0.9,0.7-1.4,1.8-2,2.7
		c1.2,0.7,2.3,1.8,3.5,2c1.8,0.3,3.8-0.2,5.7,0c1.9,0.2,3.3,0,4.1-2.1c0.3-0.8,1.7-1.6,2.7-1.7c1.8-0.2,3.6,0.2,5.4,0.4
		c1.9,0.2,3.9,1.2,5.5,0.6c6.5-2.2,12.9-3,20.1-0.4c-0.3-1.1-0.4-1.9-0.8-2.6C190.4,172.9,187.2,169.4,182.2,168.8z M169.8,177.2
		c-1.1-0.9-2.4-1.7-3.2-2.8c0-0.1-0.1-0.1,0-0.2c0-0.5,0.9-1.6,1.2-2.5c0.4,0.3,0.8,0.6,1.2,0.8c0.5,1.3,0.9,2.6,1.4,3.8
		c0,0,0,0.1,0,0.1c0,0,0,0.1,0,0.1C170.2,176.8,170,177,169.8,177.2z M183.6,177.3c0.3-2,0.5-3.4,0.8-5.4c1.7,1.4,2.8,2.3,4.5,3.8
		C186.9,176.3,185.5,176.7,183.6,177.3z"/>
	<path d="M196.3,163.8c-0.7-0.6-1.8-0.6-2.7-0.9c0.2,1,0.1,2.1,0.5,2.8c1.6,2.8,3.5,5.4,5.1,8.2c0.6,1.1,1,2.5,1,3.7
		c0,1.8-0.5,3.5-0.6,5.3c0,0.8,0.5,1.6,0.8,2.4c0.6-0.6,1.6-1.2,1.7-1.9c0.4-2.6,0.6-5.3,0.9-8.8c-0.4-1.5-0.5-4-1.6-5.9
		C200.2,166.8,198.1,165.3,196.3,163.8z"/>
	<path d="M174.7,187.5c5.6,0.1,10.8-1.3,12.4-3.9c-4.2,1.1-8.4,2.1-12.6,3.2C174.5,187,174.6,187.3,174.7,187.5z"/>
</g>
</svg>
