<?xml version="1.0" encoding="utf-8"?>
<!-- Generator: Adobe Illustrator 21.0.0, SVG Export Plug-In . SVG Version: 6.00 Build 0)  -->
<svg version="1.1" id="Layer_1" xmlns="http://www.w3.org/2000/svg" xmlns:xlink="http://www.w3.org/1999/xlink" x="0px" y="0px"
	 viewBox="0 0 277 211" style="enable-background:new 0 0 277 211;" xml:space="preserve">
<g>
	<path d="M209.6,91.8c0.1-0.3-0.1-0.6-0.2-0.8C209.4,91.3,209.6,91.6,209.6,91.8z"/>
	<path d="M267.1,94c0-0.2,0-0.6-0.1-0.9c0-0.5,0-1-0.1-1.5c-0.1-1.7-1.5-3.1-3.3-3.1h-3c-0.9,0-1.8,0.3-2.6-0.3
		c-0.5-0.3-1-0.4-1.6-0.5c-1.5-0.1-3-0.1-4.6-0.2c-0.2,0-0.3,0-0.5-0.1l-2.3-0.3c-0.2,0-0.3-0.1-0.5-0.1l-1.3-0.1
		c-1.9-0.3-4,0.9-5.7-0.5c-0.6-0.5-1.3-0.8-2.1-0.8c-1.1,0-2.3,0-3.4,0c-3.4-0.2-6.8,0.5-10.1-0.7c-0.3-0.1-0.6-0.2-1-0.2
		c-3.4-0.2-6.9,0.6-10.3-0.5c-0.3-0.1-0.6-0.1-0.9-0.2c-0.3,0-0.5,0-0.8,0c-1.6-0.1-3,1.1-3.3,2.7c0,0.1,0,0.1,0,0.2
		c0.1,0.3,0.2,0.5,0,0.7c0-0.1-0.1-0.3-0.1-0.5c0-0.1,0-0.2,0-0.3c-3.5-1.1-7.5-0.4-11.3-0.8c-5.1,0-10.2-0.1-15.3-0.1
		c-2.4,0-4.9-0.6-7.3,0V86c0-0.1,0-0.3,0-0.5c-0.1-0.7-0.3-1.4-0.4-2.1c-4.5-0.2-9-0.4-13.4-0.7c-2.3,0.7-4.5,0.7-6.8,0
		c-7.3,0.2-14.5,0.3-21.8,0.5c-3.2,1.1-6.5,1.1-9.9,0.6c-0.5,0-0.9,0.1-1.4,0.1c-1.9,1.3-4,1-6.1,0.6c-2.7,0.3-5.3,0.5-8,0.8
		c-0.4,0.2-0.7,0.5-1.1,0.7c-0.2,0.4-0.3,0.7-0.5,1.1C100,87,93.9,87.3,88,87c-0.4,0-0.9,0-1.3,0c-1.2,0-2.4,0-3.5,0
		c-7.9-0.1-15.6,0.9-23.4,0.8c0,0.5,0,1,0,1.5c4.4,0.8,9,0.6,13.5,0.6c0.5-0.7,1.8-0.5,2.9-0.5c10.1-0.1,20.2-0.3,30.3-0.4
		c0.2,0.7,0.4,1.3,0.8,1.9c0.1,0,0.2,0.1,0.4,0.1c2-0.1,4-1.1,6.1-0.3c17.6-1.6,35.2-2.7,52.9-1.5c2.8-1.3,5.8-0.2,8.7-0.8
		c0-0.3,0.1-0.5,0.1-0.9c0,0,0.1,0,0.1,0.1c7.4,0.2,14.9,0.3,22.4,0.5c3.6,0,7.3,0,10.9,0.1c0.4-0.1,0.6-0.2,0.7-0.4l0,0
		c0.1,0.9,0.3,1.7-0.7,2.3c0.2,0.2,0.2,0.4,0.3,0.7c0.1,0,0.2,0,0.3,0.1V91c-0.1,0-0.2,0-0.3-0.1c-4-0.9-8.6,0-12.9-0.2
		c-6,0.2-12,0.4-17.9,0.6c-2.8,0.1-5.7-0.4-8.5,0.4c0.1,0.4,0.1,0.7,0.2,1.1c-0.2-0.4-0.2-0.7-0.3-1.1c-0.1-0.5-0.2-1.1-0.3-1.6
		c-0.9,0.3-1.8,0.2-2.7-0.1c-6.5,1-13.2,0.9-19.7,1.3c-2.3,1.5-4.8,1-7.2,0.4c-8.7,0.3-17.4,0.6-26.1,0.8c-2.4,0.9-4.8,1.6-7.3,0.6
		c-0.6,0.2-1,0.5-1.4,0.8c-0.4,0.5-0.7,1.1-0.7,1.9c0,0.1,0,0.2,0,0.2c0.9,0.1,0.9,0.8,0.9,1.4c2.2,3,5,1,7.6,0.8
		c17.4-0.8,34.8-0.7,52.1-2.1c2.4-0.2,3.8-0.8,4.9-2.7c8.7-0.2,17.4-0.3,26.2-0.5c4.3-0.1,8.5-0.3,12.8-0.4c0.1,0,0.1,0,0.2-0.1
		c-0.3,4.2,2.2,4.2,5.6,4.4c11.2,0.6,22.5,1.6,33.7,2.7c6.2,0.6,12.3,1.2,18.4,2.4c0.1-0.2,0.1-0.4,0.2-0.6
		C267,98.9,266.7,96.4,267.1,94z M209.6,91.8c0-0.3-0.2-0.6-0.2-0.8C209.5,91.3,209.7,91.6,209.6,91.8z"/>
	<path d="M86.3,92.4c-0.4,0-0.9-0.1-1.3-0.1c-1.2-0.1-2.5-0.2-3.7-0.2c-7.2-0.7-14.4-0.4-21.6-0.9c-0.9-0.1-1.9-0.1-2.8-0.2
		c0,0.4-0.1,0.9-0.1,1.3l0,0c0-0.4,0.1-0.9,0.1-1.4c0.9,0.1,1.9,0.2,2.8,0.2c0-0.8,0-1.7,0-2.5c0-1-0.1-2-0.1-3
		c-1.2-1.2-2.7-1.6-4.4-1.5c-6.4,0.2-12.8-0.4-19.2,0.6c-2,0.3-4.2,0-6.3-0.1c-4.2,0.6-8.3-0.1-12.5-0.4c-1.8,2.3-4.2,0.9-6.3,1.1
		c-1.7,4-0.5,8.1-0.9,12.2c2.7,0.9,5.4,0.1,8-0.2c11.4-1.1,22.8-0.5,34.2-0.5c3.6,0,6.6-0.1,7.4-3.7l0,0c3.7,0.6,7.4,0.8,11.2,1.1
		c0.6-0.7,1.9-0.4,3-0.3c10.2,0.7,20.3,1.3,30.5,2c0-0.8,0.2-1.4,0.7-1.9C98.8,93.4,92.5,93.2,86.3,92.4z"/>
</g>
</svg>
