<?xml version="1.0" encoding="utf-8"?>
<!-- Generator: Adobe Illustrator 21.0.0, SVG Export Plug-In . SVG Version: 6.00 Build 0)  -->
<svg version="1.1" id="Layer_1" xmlns="http://www.w3.org/2000/svg" xmlns:xlink="http://www.w3.org/1999/xlink" x="0px" y="0px"
	 viewBox="0 0 487 411" style="enable-background:new 0 0 487 411;" xml:space="preserve">
<style type="text/css">
	.st0{stroke:#000000;stroke-width:0;stroke-linecap:round;stroke-linejoin:round;}
</style>
<g>
	<path d="M26.9,111.7c0.1-0.1-0.2-0.1-0.2-0.1C26.6,111.7,26.9,111.7,26.9,111.7z"/>
	<path d="M142.6,119c-5.8-3.6-8.5-7.8-7.5-15.2c0.3-1.9-1.2-4.3-3.1-6.5h-29.4c16,9.8,32,19.6,48,29.4l-0.1-0.1
		c-0.1-0.1-0.1-0.1-0.2-0.1C147.8,123.9,145.6,120.9,142.6,119z"/>
	<path d="M26.8,111.5C26.7,111.5,26.6,111.5,26.8,111.5c-0.1,0-0.1,0-0.2,0.1C26.6,111.6,26.7,111.5,26.8,111.5z"/>
	<path d="M26.5,111.7L26.5,111.7C26.5,111.7,26.5,111.7,26.5,111.7C26.5,111.7,26.5,111.7,26.5,111.7z"/>
	<path d="M8.9,141.1c3-4.9,6-9.8,8.9-14.7c3-4.9,5.9-9.8,8.9-14.8C20.7,121.4,14.8,131.2,8.9,141.1C8.9,141.1,8.9,141.1,8.9,141.1z"
		/>
	<path d="M26.7,111.4c0,0.1-0.1,0.1-0.1,0.2c0,0,0,0,0,0C26.6,111.5,26.7,111.5,26.7,111.4z"/>
	<path d="M26.5,111.7L26.5,111.7C26.5,111.7,26.5,111.7,26.5,111.7C26.5,111.7,26.5,111.7,26.5,111.7
		C26.5,111.7,26.5,111.7,26.5,111.7z"/>
	<path d="M26.8,111.5c0,0,0.1,0,0.1-0.1C26.8,111.4,26.7,111.4,26.8,111.5C26.6,111.5,26.7,111.5,26.8,111.5z"/>
	<line class="st0" x1="265.8" y1="144.6" x2="265.9" y2="144.7"/>
	<path d="M435.3,226.3c-2.1-1.2-7.4-1.1-7.7-0.3c-2.3,6.3-4.8,12.9-5.1,19.5c-0.1,2.9,4.5,6.3,7.3,9.1
		c14.8,14.5,23.3,31.8,24.3,52.6c0.1,2-1,4.1-1.5,6.1c-0.9-0.1-1.8-0.1-2.7-0.2c1.8-18.9-5-34.9-16.6-48.9c-2.6-3.2-6.5-10.1-11.1-4
		c-3.7,4.9-13.5,8.2-6.8,18.6c5.1,8,7.4,17.8,10.9,26.9c5.3,2,10.5,4,16.3,6.1c-14.4,3.2-13.9,3.2-13.6,20
		c0.2,9.7,4.1,12.7,13.2,11.8c5.6-0.6,11.8-1.3,16.7,0.7c7.3,2.9,10.7,0.2,12.6-5.7c2.2-6.4,3.4-13.2,4.9-19.9
		C484.1,285.3,465.3,243,435.3,226.3z"/>
	<path d="M262.6,157c0.9,2.3,3.8,3.9,7.1,7c-1.6-7.9-2.7-13.7-3.9-19.4v0c0-0.1,0-0.1,0-0.2c0.1,0.1,0.1,0.2,0.2,0.4
		c2.8,5.3,5.1,10.9,8.5,15.7c3.3,4.6,7.9,7.8,13.9,5.2c-3.9-5.7-7-10.3-10.2-14.9l0.2,0.2c0-0.1,0-0.1,0-0.2c4.6,1.9,9,3.7,13.6,5.6
		c-1.1-4.6-2-9.3-3.1-14c-0.4-1.6-1.2-3-1.9-4.7c-10.5-0.1-9.6,6.5-8.7,13.1c-2.1-4-4.2-8-7.3-13.7c-2.2,3.3-3.6,5.4-5,7.6
		c0.2-8-1.1-16.3,1.1-23.7c2.2-7.7,0-11.2-5.8-15.1c-4.2-2.8-8.4-5.7-12.5-8.6h-45.9c0.3,0.2,0.5,0.4,0.8,0.6
		C226.9,114,251.8,128.4,262.6,157z"/>
	<path d="M180.3,50.2c-2.4-1.6-5.1-2.7-8.9-4.6c-1.4,6-1.5,11-3.6,15c-4.4,7.9-1.2,12.2,5.5,16.4c10,6.5,19.8,13.5,29.6,20.3h45.9
		C225.9,81.7,203.1,65.8,180.3,50.2z"/>
	<path d="M297.7,179.3c18.5-2,32.9,5.8,47.1,16.2c13.4,9.9,27.5,18.8,39.8,27.1c5.5-3.9,8.7-6.4,12.2-8.5c5.3-3.1,6.5-9.9,1.8-13.2
		c-28.8-20.1-57.7-40-86.6-60.1c-6.1-4.3-8.5-1.8-9.4,4.5c-1.8,11.6-3.6,23.3-18.2,28.3C289,176.7,293.5,179.8,297.7,179.3z"/>
	<path d="M80.8,78.1c5.1,7.1,10.3,6.4,14.9-1c3.2-5.2,7.2-10.6,12.3-13.6c8.1-4.8,17.3-7.6,26.1-11.2c2.8-1.2,5.6-2.4,8.4-3.6
		c-2.6-2-5.1-4-9.6-7.5c2-1.4,4.2-2.5,5.8-4.1c2.4-2.5,5.1-5.2,6.1-8.3c0.4-1.3-3-4.4-5.2-5.7c-8.9-5.1-17.7-10.2-27-14.5
		c-13.2-6.1-21.1-3.5-28.4,9c-10.4,17.7-7.4,36.9-5.6,55.9C78.7,75.1,79.9,76.7,80.8,78.1z"/>
	<path d="M382.4,254.2c5.8,4.1,11.4,8.8,17.7,12c3,1.5,8.7,1.6,11-0.3c3.6-3,5.2-8.2,7.7-12.5c-3.2-1.6-6.3-3.1-9.4-4.7
		c-3.3-1.7-7.4-2.9-9.5-5.6c-13.4-17.6-33.1-27.1-50.3-39.8c-14.1-10.4-14.2-10.2-25.2,3.7c-0.6,0.8-0.9,1.8-2.6,5
		c1.7,0.9,3.3,1.6,4.7,2.6C345.1,227.8,363.8,241,382.4,254.2z"/>
	<path d="M180.2,86c-7.8-5.3-16-9.9-25.7-15.9c-5.1,4.4-10,7.8-13.4,12.3c-0.6,0.8,4,6.9,7.1,9.1c2.8,2,5.6,3.9,8.3,5.8h40
		C191.1,93.5,185.7,89.7,180.2,86z"/>
	<path d="M225.5,128.5c4.7-6.1,2.1-9.7-3.3-13.3c-8.6-5.9-17.1-11.9-25.7-17.9h-40c17.4,12.1,34.9,24,52.3,36.2
		C216.9,139.2,221,134.4,225.5,128.5z"/>
	<path d="M42.5,97.3c-3.8-0.4-8.3,7.8-12.6,12c-0.9,0.8-2,1.5-3,2.1c0,0-0.1,0-0.1,0.1c-0.1,0-0.1,0.1-0.2,0.1c0,0,0,0,0,0
		c0,0-0.1,0-0.1,0v0.1v0v0c0,0,0,0,0,0c0,0,0,0,0,0c-2,0.1-4.7-0.4-5.5,0.7c-5.8,7.5-11.2,15.3-16.3,23.3c-0.4,0.6,2.7,3.4,4.2,5.3
		v0.1c0,0,0,0,0,0.1l0.2-0.1c-0.1,1-0.2,2-0.2,3.1c-0.3,9.7,4.5,15.2,14,16.8c9.1,1.5,10.3-5.3,12.7-11.4c1.3-3.3,4.2-6,6.4-8.9
		c7.9-10.5,15.8-21,24.7-32.7C57.2,103.4,50.1,98,42.5,97.3z M26.9,111.7c0,0-0.3,0-0.2-0.1c-3,4.9-5.9,9.9-8.9,14.8
		c-3,4.9-5.9,9.8-8.9,14.7c0,0,0,0,0,0c5.9-9.9,11.8-19.7,17.8-29.5C26.7,111.6,27,111.6,26.9,111.7z"/>
	<path d="M25.4,104.5c1.4,0.5,2.8,1.1,4.2,1.6c1.5-2.9,2.9-5.8,4.4-8.8h-8.2C25.7,99.7,25.6,102.1,25.4,104.5z"/>
	<path d="M50.1,69.9c10.7-1.7,12.3-9.4,13.3-17.8c0.8-6.9-4-10.9-9.9-7.2c-8.2,5.2-13.4-0.1-19.4-3.6c-1.9-1.1-3.3-2.9-6.9-6
		c-4.8,21.7-0.9,42-1.4,62H34c3.4-6.8,6.8-13.6,10.3-20.3C45.7,74.3,47.9,70.2,50.1,69.9z"/>
	<path d="M309.8,227.4c4.8-7,8-4.9,12.8,0.1c4.6,4.7,10.5,8.3,15.8,12.3c0.9-1.3,1.8-2.6,2.7-3.9c-33.6-23.2-67.3-46.4-100.9-69.6
		c-0.7,0.9-1.4,1.8-2,2.8c7.2,5.4,13.8,12.1,21.8,15.7c6.2,2.8,7.1,5.5,6.7,11.4c-0.2,3.5,1.2,8.5,3.8,10.5
		c9.6,7.6,19.8,14.6,30.2,21.2C302.9,229.1,308.7,228.9,309.8,227.4z"/>
	<path d="M403.3,307.9c-2.8-6.5-8.5-13.6-7.4-19.3c1.9-9.8-3.4-13.3-9.4-19c-3.4,8.3-6.4,13.9-2,23.3c6,12.9,8,27.8,10.9,42
		c1.6,7.9,1.5,16.1,2.2,24.2c5.2-13.2,8.7-26.3,10.7-39.7C408.8,316,405,311.8,403.3,307.9z"/>
	<path d="M421.4,318.3c-1.6,1.5-4.1,2.7-4.6,4.5c-2.4,7.8-4,15.8-6.2,23.7c-5.2,19.3-5.9,38.7-1.5,59c3.6-1.2,6.3-2,6.4-2.1
		c0-13.8-0.4-26.2,0.2-38.6c0.2-4.8,1.5-10.8,4.6-14.1c8-8.3,5.3-17.7,4.7-27C424.9,321.9,422.7,320.1,421.4,318.3z"/>
	<line class="st0" x1="150.7" y1="126.7" x2="150.6" y2="126.6"/>
	<path d="M99.7,95.5c-0.4,0.6-0.7,1.2-1.1,1.8h4.1C101.7,96.7,100.7,96.1,99.7,95.5z"/>
	<path d="M98.6,97.3c-0.4,0.6-0.7,1.2-1.1,1.8c21.9,14.5,43.8,29,65.7,43.5c0.6-0.9,1.2-1.7,1.8-2.6c-4.7-4.5-9.6-8.9-14.3-13.3
		c-16-9.8-32-19.6-48-29.4H98.6z"/>
	<path d="M135.1,103.8c-1,7.4,1.7,11.6,7.5,15.2c3,1.9,5.2,4.9,7.8,7.5c0.1,0,0.1,0,0.2,0.1c4.8,1.9,9.6,3.8,14.4,5.6
		c-0.1-1-0.2-2-0.3-3c4.7-0.8,9.4-1.7,14-2.5c-2-2.5-3.7-5.6-6.3-7.4c-10.7-7.5-21.5-14.7-32.2-22H132
		C133.9,99.5,135.4,101.9,135.1,103.8z"/>
	<path d="M113.1,78.5c-0.9,1.3-1.7,2.6-2.6,3.8c6.2,3.9,12.7,7.5,18.4,12c1,0.8,2.1,1.9,3.1,3h8.1c-0.6-0.4-1.1-0.8-1.7-1.1
		C130,90.4,121.6,84.4,113.1,78.5z"/>
	<path d="M47.1,148.3c10.1-2.6,18-6.5,20.6-16.7c2.6-10,9-16.2,18.5-20.1c3-1.2,5.1-4.7,8.5-8C75.9,98.5,51.9,122.4,47.1,148.3z"/>
	<path d="M357.2,240.4c-2.1,2.2-3.9,3.3-4.6,4.9c-4,9.3,3.3,25.7,13,28.9c1.7,0.6,5.3-0.3,5.9-1.5c2.4-5.4,7.4-13.4,5.4-16.3
		C372.4,250,364.3,245.9,357.2,240.4z"/>
	<path d="M329,194.8c-3-3-5.3-7-8.8-8.8c-5.7-2.9-12-5.1-17.4,1.7c-0.8,1-4.7-0.2-7.1-0.8c-2.3-0.6-4.4-1.6-6.6-2.5
		c-0.7,1.3-1.4,2.5-2.1,3.8c9.3,6,18.2,13.1,28.3,17.3C317.9,206.6,324.3,198.6,329,194.8z"/>
	<path d="M110.6,68.2c8.5,4.1,16.6,11.4,24.2,10.7c5.1-0.4,9.2-11.9,13.8-18.4C135.2,62.6,121.5,52.9,110.6,68.2z"/>
	<path d="M272.9,218.8c16.7,18.4,42.5,23.9,59.3,42.1c1-1.4,1.9-2.7,2.9-4.1c-19.9-13.9-39.7-27.8-59.6-41.7
		C274.7,216.3,273.8,217.6,272.9,218.8z"/>
	<path d="M254.6,189.4c-4,0.2-7,0.8-9.8,0.5c-3.3-0.3-6.8-2.3-9.9-1.8c-3,0.5-6,2.9-8.3,5.1c-0.5,0.5,1.5,5.1,3.2,6.1
		C236.9,203.1,250.2,198,254.6,189.4z"/>
	<path d="M407.5,275.9c-0.7,0.6-1.4,1.1-2.1,1.7c4.7,11.3,9.5,22.6,14.8,35.4c2.4-2.8,4.2-5,6-7.1c-2.6-5.6-4.8-11.2-8-16.1
		C415.1,284.9,411.1,280.5,407.5,275.9z"/>
	<path class="st0" d="M426.2,305.9C426.2,305.9,426.2,306,426.2,305.9"/>
	<path d="M426.3,306.2c0-0.1-0.1-0.2-0.1-0.3L426.3,306.2z"/>
	<path d="M244.9,205.5c0.9,2.3,1.2,6.3,2.6,6.7c5.8,1.6,11.8,2.2,17.8,3.2c0.6-1.8,1.2-3.5,1.9-5.3c-5.4-2.3-10.7-4.8-16.2-6.6
		C249.3,203,246.9,204.8,244.9,205.5z"/>
	<path d="M416.6,215.4c-3.6,3.7-8.1,7-10.3,11.4c-0.6,1.3,5.1,5.8,7.8,8.9c2.7-5.5,5.4-11,8-16.4C420.3,218,418.4,216.7,416.6,215.4
		z"/>
	<path d="M58.1,80.8c3.2,8.6,9.3,5.2,15.8,2.2c-3.2-4.6-3.3-12.6-12.1-9.5C59.8,74.2,57.4,79,58.1,80.8z"/>
	<path d="M339.3,265.9c-1.8,1-3.4,5.9-2.5,7.8c4,8.5,9.7,3.4,16.5,0.6C349.3,268.6,347.4,261.5,339.3,265.9z"/>
	<path d="M198.8,141.3c0.7-1.2,1.4-2.5,2.2-3.7c-7.2-3.5-14.3-7-21.5-10.6C183.7,135.5,190.5,139.6,198.8,141.3z"/>
	<path d="M212.7,161.4c-0.8,2.4,1.3,5.7,2,8.5c2.7-1.8,6.2-3,7.9-5.4c4.7-6.9,0.7-13.3-2.2-19.6
		C217.7,150.4,214.5,155.7,212.7,161.4z"/>
	<path d="M251.4,159.4c0,0,0-0.1,0-0.2c0,0-0.1,0-0.1-0.1c4-9.5-5-29.6-15.2-32.6c-1.6-0.5-4.5,0.3-5.3,1.4
		c-3.7,5.4-7,11.1-10.3,16.8c10.3,4.8,20.5,9.6,30.8,14.5c0,0.1-0.1,0.1-0.1,0.2C251.3,159.4,251.3,159.4,251.4,159.4z"/>
	<path d="M264.5,169.7c-1.4-8.4-6.2-10.8-13.1-10.3C252.4,166.8,256.6,170.1,264.5,169.7z"/>
	<path d="M267.8,174.7c4.5,3.5,8.2,6.5,13.8,10.9C280.5,174.2,277.4,171.9,267.8,174.7z"/>
	<line class="st0" x1="4.7" y1="-7986" x2="4.7" y2="97.3"/>
	<line class="st0" x1="4.7" y1="97.3" x2="4.7" y2="8397"/>
	<line class="st0" x1="156.5" y1="97.3" x2="196.5" y2="97.3"/>
	<line class="st0" x1="4.7" y1="97.3" x2="-7948" y2="97.3"/>
	<line class="st0" x1="25.8" y1="97.3" x2="4.7" y2="97.3"/>
	<line class="st0" x1="34" y1="97.3" x2="98.6" y2="97.3"/>
	<line class="st0" x1="132" y1="97.3" x2="140.2" y2="97.3"/>
	<line class="st0" x1="202.9" y1="97.3" x2="248.8" y2="97.3"/>
	<line class="st0" x1="102.7" y1="97.3" x2="98.6" y2="97.3"/>
	<line class="st0" x1="34" y1="97.3" x2="25.8" y2="97.3"/>
	<line class="st0" x1="102.7" y1="97.3" x2="132" y2="97.3"/>
	<line class="st0" x1="156.5" y1="97.3" x2="140.2" y2="97.3"/>
	<line class="st0" x1="8435" y1="97.3" x2="248.8" y2="97.3"/>
	<line class="st0" x1="202.9" y1="97.3" x2="196.5" y2="97.3"/>
</g>
</svg>
