<?xml version="1.0" encoding="utf-8"?>
<!-- Generator: Adobe Illustrator 21.0.0, SVG Export Plug-In . SVG Version: 6.00 Build 0)  -->
<svg version="1.1" id="Layer_1" xmlns="http://www.w3.org/2000/svg" xmlns:xlink="http://www.w3.org/1999/xlink" x="0px" y="0px"
	 viewBox="0 0 172.5 232" style="enable-background:new 0 0 172.5 232;" xml:space="preserve">
<path d="M26.9,98.6c-1.3-0.1-2.8,0-3.9-0.5s-1.9-1.6-2.8-2.4c1.1-0.9,2.1-2.1,3.3-2.5c1.1-0.3,2.5,0.2,3.6,0.6c2.9,1,5.2,1,7.5-1.9
	c1.9-2.4,3.2-4.4,2.9-7.7c-1-10-2.1-20.1-2.1-30.2c0-9.4,1-18.9,1.9-28.3c0.5-5.1,3.3-9.4,7.8-12.2c2.8-1.8,5.9-3.3,8.7-5.1
	c6.6-4.4,13.9-6,21.7-5.9c9,0.1,17.9,0.3,26.9,0.4c7.5,0.1,13.3,4.7,19.6,7.8c9.4,4.6,13.2,12.2,13,22.5c-0.1,4.7,0.4,9.5,0.8,14.2
	c1.1,10.9,0.5,21.7-1.3,32.5c-0.5,3.2-0.6,7,0.7,9.7c1.7,3.8,5.2,6.2,10,4c0.8-0.4,1.9-0.8,2.5-0.5c1.3,0.7,2.4,1.8,3.6,2.8
	c-1,0.8-1.9,1.8-3,2.2c-1.2,0.5-2.6,0.5-4.9,0.9c5.8,6.1,11,11.6,16.2,17.1c2.8,3,5.7,5.9,8.4,9c1.6,1.8,1.4,9.4,0.1,11.4
	c-1.4,2-3,2.6-4.8,0.4c-0.7-0.9-1.5-1.7-2.2-2.5c-2.5-2.9-5.6-4.9-8.9-7c-5.2-3.3-9.4-8.3-13.9-12.8c-1.6-1.6-2.8-3.5-4.6-5.8
	c-0.2,1.4-0.4,2.3-0.4,3.1c0,8.5-0.2,17,0.1,25.5c0.1,2.4,1.4,5.1,3,7c8.7,10.1,17.7,20,26.6,30c1,1.1,2,2.2,2.9,3.4
	c2.1,2.8,3.8,5.6-0.8,7.8c-0.6,0.3-0.8,1.2-1.1,1.9c-2,4.4-5,5.5-8.8,2.4c-5.9-4.8-11.3-10.2-16.9-15.3c-1.4-1.3-2.6-2.9-4-4.4
	c-0.4,0.1-0.8,0.3-1.2,0.4c0.3,5.2,0.8,10.4,1,15.7c0.1,3.2,0.3,6.5-0.2,9.7c-0.3,2.3-2,3.5-4.4,1.5c-1.9-1.6-3.8-3.1-6.4-4.2
	c1.3,2.1,2.8,4.1,3.9,6.4c0.7,1.6,1.1,3.5,1.2,5.3c0.2,3.8,0.1,7.6,0.7,11.6c0.7-1.3,1.3-2.6,2.1-4.2c2.3,5.5-2.3,14.6-7.6,14.9
	c-16.1,1-32.1,1.8-48.2,2.1c-8.5,0.1-16.9-1.1-25.4-1.9c-4.5-0.4-6.7-3-8-7.2c-2.9-9.4-4.1-19-4-28.7c0-6.3,0.6-12.6,1-19
	c0-0.6-0.1-1.1-0.1-2c-2.7,2.6-5,4.9-7.4,7.1c-4.3,4-8.5,8.1-13.1,11.8c-4.7,3.8-7.3,3-10-2.4c-0.2-0.3-0.3-0.7-0.6-1
	c-4.2-4.6-4.3-4.7-0.2-9.4c6.5-7.4,13.3-14.6,19.8-22c3.5-4,6.9-8.2,10.3-12.4c0.7-0.8,1.3-2,1.3-3c0.1-10,0.1-19.9,0.1-30.3
	c-4.7,5.2-8.9,10-13.3,14.7c-1.4,1.5-3.1,3.4-5,3.8c-4.8,1.2-7.4,4.7-10.4,8c-1.1,1.2-2.9,1.8-4.4,2.7c-0.9-2.2-2.4-4.3-2.6-6.5
	c-0.6-6.8,4.4-10.7,8.6-15c5.5-5.6,10.8-11.3,16.2-17C27.2,99.3,27.1,99,26.9,98.6z M128,88.8c3.1-0.6,3.4-2.7,3.4-5.1
	c0.1-16.5,0.3-33,0-49.5c-0.1-3.2-1.8-6.9-4-9.3c-2.7-2.9-6.6-4.8-10.2-6.7c-2.5-1.4-5.6-1.8-7.8-3.5c-1.8-1.4-4.1-4.6-3.6-6.1
	c1.1-3,4-0.9,6.1-0.1c2.9,1.2,5.6,2.7,8.4,4.1c-6.2-4-12.2-8.3-20.1-8C89.9,5.1,79.7,4.9,69.5,4.8c-7.3,0-12.6,4.3-18.5,7.6
	c3.8-1.4,7.5-3.2,11.3-4.7c0.9-0.4,2.7-0.2,3.2,0.5s0.4,2.7-0.2,3.4c-1.4,1.6-3.2,3-5.1,4.1c-4.7,2.6-9.6,4.8-14.1,7.6
	c-4.1,2.5-6.2,6.6-6.2,11.4c0,16.7,0.2,33.5,0.5,50.2c0,1.5,1.4,3,2.2,4.5c0.3-0.1,0.7-0.3,1-0.4c1.2-5.6,5.7-8,10.4-9.2
	c7.6-1.9,15.3-3.6,23.1-4.2c13.5-1.1,27-0.4,40,4C122,81.2,126.4,83.4,128,88.8z M55.1,160.2c-0.4,0-0.8,0-1.2,0
	c0,6.9,0.1,13.7,0,20.6c-0.1,5.9,0.8,7.2,6.7,8.1c5,0.8,10.1,1.4,15.2,1.8c12,1,24,0.4,35.8-1.9c5.6-1.1,6-2.2,6-7.9
	c0-19,0-38,0.4-56.9c0.1-6.9-0.2-8.8-7.2-9.5c-11.6-1.1-23.4-1.7-35.1-1.7c-6.1,0-12.3,1.5-18.4,2.7c-2.9,0.5-4,2.5-3.8,5.8
	C54.2,134.3,54.6,147.3,55.1,160.2z M53.3,115.2c10.4-5,21.5-4.6,32.4-4.6c11,0,22.2-0.4,32.7,4.8c0.4-1.1,0.8-1.9,1-2.9
	c1.9-6.7,3.5-13.5,5.6-20.1c1-3,0.3-5-2.3-6.1c-3.8-1.6-7.6-3.2-11.6-4c-15.2-3-30.5-3.2-45.8-0.9c-5.1,0.8-10.2,2.4-15.1,4.1
	c-2.5,0.8-5.1,2.6-4.3,5.7C48.2,99.1,50.8,107,53.3,115.2z M53.5,188.6c-0.9,1.6-1.8,3.2-2.7,4.8s-1.9,3.2-2.9,4.8
	c-4,6.3-3,9.4,3.8,12.4c0.9,0.4,1.8,0.8,2.8,1c16.4,4.5,33.1,4.7,49.7,2.6c6.1-0.8,12.1-2.8,17.9-4.9c4-1.5,4.9-5.4,2.8-9
	c-2.4-3.9-4.8-7.8-7.3-11.7C104,194.5,68.5,194.5,53.5,188.6z M125.5,210.7c-26.5,9-52.7,9-79,0.3c-2.8,6.5-1.2,9,5.9,9.7
	c21.7,2.3,43.3,2.6,65,0.1c10-1.2,8.2,0,8.3-9.7C125.6,210.8,125.5,210.6,125.5,210.7z M43.9,97.8c-1.3,3.4-3.1,6.2-3.2,8.9
	c-0.4,10.2-0.2,20.5,0,30.7c0,1.4,0.8,3.3,1.9,4.1c2.2,1.7,4.9,2.8,8,4.5C49.9,129.4,49.7,113.7,43.9,97.8z M128.6,98.4
	c-0.5,0.1-0.9,0.1-1.4,0.2c-5.4,15.1-5.8,30.7-6,46.6c8.5-2.3,9.7-3.8,9.7-11.6c0-7.5,0.3-15-0.1-22.5
	C130.6,106.9,129.4,102.7,128.6,98.4z M42.4,151.1c1.3,2,1.9,3.8,3.1,4.9c2.9,2.7,2.2,4.9-0.6,6.9c-3.6,2.7-4.7,6.3-4.5,10.8
	c0.2,4.7-0.6,9.4-0.9,14.1c-0.1,2.9,0,5.7,0,9.6c4.9-3.7,9.4-5.9,9.8-11.4c0.5-8.3,1-16.7,1.2-25.1c0.2-7,0-7-6.4-9.5
	C43.8,151.2,43.6,151.3,42.4,151.1z M131.6,196.7c0.2-3.3,0.6-6,0.5-8.7c-0.2-3.9-1.3-7.9-1.1-11.8c0.4-6-0.6-11.1-5.8-14.8
	c-1.8-1.3-1.5-2.8-0.1-4.4c1.4-1.6,2.4-3.6,3.9-5.8c-8.1,1.9-8.1,1.9-7.9,9.1c0.3,7.2,0.9,14.5,0.7,21.7
	C121.7,189.1,125.2,193.2,131.6,196.7z M127.6,221.3c-28.1,4.1-55.9,4.2-83.7,0c0.6,2.9,2.9,4,5.6,4.3c24,2.8,48.1,2.9,72.1,0
	C124.4,225.3,126.7,224.4,127.6,221.3z M16.7,185.9c5.8-5.6,11-11.6,17.1-16.4c5.9-4.7,4.6-10.2,4.3-16.7c-1.2,1.1-1.9,1.8-2.6,2.5
	c-6.6,7.5-13.2,14.9-19.8,22.4C12.6,181.3,12.7,181.5,16.7,185.9z M134.2,153.4c-1.3,6.2-2.3,11.6,3.4,16.2
	c6.2,4.9,11.5,10.9,17.2,16.4c4-4.3,4-4.6,0.8-8.3c-2-2.2-3.9-4.5-5.9-6.8C144.5,165,139.3,159.2,134.2,153.4z M26.9,107.3
	c-6.7,7.2-12.9,13.6-18.8,20.3c-1,1.1-0.9,3.3-1.3,4.9c0.4,0.1,0.8,0.2,1.3,0.4C14.5,124.9,23.4,118.8,26.9,107.3z M163.4,132.7
	c0.5-0.2,0.9-0.3,1.4-0.5c-0.3-1.4-0.2-3.2-1.1-4.2c-6-6.7-12.2-13.2-18.3-19.8C148.2,118.9,157,124.9,163.4,132.7z M42.1,216.9
	c0.5,0,1-0.1,1.5-0.1c0-3.9-0.1-7.8,0-11.6c0.1-1.8,0.4-3.7,1.1-5.3c1-2.2,2.5-4.1,3.8-6.2c-3.3,1.5-5.9,3.4-8.5,5.4
	c-0.4,0.3-0.5,1.2-0.4,1.7C40.4,206.1,41.3,211.5,42.1,216.9z M165.2,182.4c0.3-0.3,0.5-0.5,0.8-0.8c-10.1-11.6-20.1-23.3-30.2-34.9
	c-0.4,0.4-0.9,0.8-1.3,1.2C144.7,159.4,154.9,170.9,165.2,182.4z M37.1,147.8c-0.4-0.4-0.9-0.7-1.3-1.1c-8.3,9.5-16.5,19-24.8,28.6
	c0.3,0.3,0.6,0.5,0.9,0.8C20.3,166.7,28.7,157.3,37.1,147.8z M138.9,113.6c-0.5-3.9-0.9-7-1.4-10.1c-0.1-0.5-0.7-1-1.2-1.4
	c-2-1.3-4-2.4-6-3.7c-0.3,0.2-0.5,0.5-0.8,0.7C132.5,103.7,135.5,108.3,138.9,113.6z M34.6,102.6c-0.5,3.4-1,6.1-1.4,8.9
	c0.2,0.1,0.4,0.2,0.6,0.3c2.7-4.2,5.4-8.5,8.2-12.7c-0.3-0.2-0.6-0.4-0.9-0.6C38.7,100,36.3,101.5,34.6,102.6z M32.6,106.3
	c-0.4-0.2-0.8-0.4-1.2-0.6c-1.8,3.5-3.4,7.1-5.4,10.4s-4.6,6.2-6.9,9.3c0.3,0.2,0.6,0.4,0.9,0.6C25.7,120.4,29.9,113.8,32.6,106.3z
	 M139.3,105.5c0.6,6.6,9.1,19,12.4,19.7C147.8,119.1,143.7,112.5,139.3,105.5z M160.2,121.1c0.3-0.2,0.6-0.5,0.9-0.7
	c-6.4-6.8-12.7-13.6-19.1-20.4c-0.3,0.3-0.6,0.5-0.8,0.8C147.5,107.5,153.8,114.3,160.2,121.1z M103.2,78.3c0-0.1,0-0.2,0-0.4
	c-8.2-0.4-16.5-0.8-24.7-1.2c0,0.5,0,1-0.1,1.5C86.8,78.3,95,78.3,103.2,78.3z M122.1,18.5c-3.7-4-8.6-5.5-13.4-7.3
	c-0.2,0.3-0.3,0.7-0.5,1C112.8,14.3,117.5,16.4,122.1,18.5z M63.2,12.1c-7.3,0.9-12.6,3.8-13.6,6.4C54.1,16.4,58.7,14.2,63.2,12.1z
	 M41.2,90.6c-2.1,3.4-3.7,6-5.9,9.5C39.1,97.6,42.2,95.9,41.2,90.6z M135.7,99.2c-1.8-3.1-3.2-5.6-4.9-8.6
	C129.5,95,130.7,96.9,135.7,99.2z M158.3,187.4c0.2,0.4,0.4,0.8,0.6,1.2c1-0.5,2.6-0.7,2.9-1.4c0.4-1-0.3-2.4-0.5-3.6
	c-0.3,0-0.7,0.1-1,0.1C159.6,184.9,158.9,186.1,158.3,187.4z"/>
</svg>
