<?xml version="1.0" encoding="utf-8"?>
<!-- Generator: Adobe Illustrator 21.0.0, SVG Export Plug-In . SVG Version: 6.00 Build 0)  -->
<svg version="1.1" id="Layer_1" xmlns="http://www.w3.org/2000/svg" xmlns:xlink="http://www.w3.org/1999/xlink" x="0px" y="0px"
	 viewBox="0 0 166.6 226.8" style="enable-background:new 0 0 166.6 226.8;" xml:space="preserve">
<style type="text/css">
	.st0{fill:#0D0D0D;}
</style>
<path class="st0" d="M24.4,96.1c-1.3-0.1-2.8,0-3.9-0.5c-1.1-0.5-1.9-1.6-2.8-2.4c1.1-0.9,2.1-2.1,3.3-2.5c1.1-0.3,2.5,0.2,3.6,0.6
	c2.9,1,5.2,1,7.5-1.9C34,87,35.3,85,35,81.7c-1-10-2.1-20.1-2.1-30.2c0-9.4,1-18.9,1.9-28.3c0.5-5.1,3.3-9.4,7.8-12.2
	c2.8-1.8,5.9-3.3,8.7-5.1C57.9,1.5,65.2-0.1,73,0c9,0.1,17.9,0.3,26.9,0.4c7.5,0.1,13.3,4.7,19.6,7.8c9.4,4.6,13.2,12.2,13,22.5
	c-0.1,4.7,0.4,9.5,0.8,14.2c1.1,10.9,0.5,21.7-1.3,32.5c-0.5,3.2-0.6,7,0.7,9.7c1.7,3.8,5.2,6.2,10,4c0.8-0.4,1.9-0.8,2.5-0.5
	c1.3,0.7,2.4,1.8,3.6,2.8c-1,0.8-1.9,1.8-3,2.2c-1.2,0.5-2.6,0.5-4.9,0.9c5.8,6.1,11,11.6,16.2,17.1c2.8,3,5.7,5.9,8.4,9
	c1.6,1.8,1.4,9.4,0.1,11.4c-1.4,2-3,2.6-4.8,0.4c-0.7-0.9-1.5-1.7-2.2-2.5c-2.5-2.9-5.6-4.9-8.9-7c-5.2-3.3-9.4-8.3-13.9-12.8
	c-1.6-1.6-2.8-3.5-4.6-5.8c-0.2,1.4-0.4,2.3-0.4,3.1c0,8.5-0.2,17,0.1,25.5c0.1,2.4,1.4,5.1,3,7c8.7,10.1,17.7,20,26.6,30
	c1,1.1,2,2.2,2.9,3.4c2.1,2.8,3.8,5.6-0.8,7.8c-0.6,0.3-0.8,1.2-1.1,1.9c-2,4.4-5,5.5-8.8,2.4c-5.9-4.8-11.3-10.2-16.9-15.3
	c-1.4-1.3-2.6-2.9-4-4.4c-0.4,0.1-0.8,0.3-1.2,0.4c0.3,5.2,0.8,10.4,1,15.7c0.1,3.2,0.3,6.5-0.2,9.7c-0.3,2.3-2,3.5-4.4,1.5
	c-1.9-1.6-3.8-3.1-6.4-4.2c1.3,2.1,2.8,4.1,3.9,6.4c0.7,1.6,1.1,3.5,1.2,5.3c0.2,3.8,0.1,7.6,0.7,11.6c0.7-1.3,1.3-2.6,2.1-4.2
	c2.3,5.5-2.3,14.6-7.6,14.9c-16.1,1-32.1,1.8-48.2,2.1c-8.5,0.1-16.9-1.1-25.4-1.9c-4.5-0.4-6.7-3-8-7.2c-2.9-9.4-4.1-19-4-28.7
	c0-6.3,0.6-12.6,1-19c0-0.6-0.1-1.1-0.1-2c-2.7,2.6-5,4.9-7.4,7.1c-4.3,4-8.5,8.1-13.1,11.8c-4.7,3.8-7.3,3-10-2.4
	c-0.2-0.3-0.3-0.7-0.6-1c-4.2-4.6-4.3-4.7-0.2-9.4c6.5-7.4,13.3-14.6,19.8-22c3.5-4,6.9-8.2,10.3-12.4c0.7-0.8,1.3-2,1.3-3
	c0.1-10,0.1-19.9,0.1-30.3c-4.7,5.2-8.9,10-13.3,14.7c-1.4,1.5-3.1,3.4-5,3.8c-4.8,1.2-7.4,4.7-10.4,8c-1.1,1.2-2.9,1.8-4.4,2.7
	c-0.9-2.2-2.4-4.3-2.6-6.5c-0.6-6.8,4.4-10.7,8.6-15c5.5-5.6,10.8-11.3,16.2-17C24.7,96.8,24.6,96.5,24.4,96.1z M125.5,86.3
	c3.1-0.6,3.4-2.7,3.4-5.1c0.1-16.5,0.3-33,0-49.5c-0.1-3.2-1.8-6.9-4-9.3c-2.7-2.9-6.6-4.8-10.2-6.7c-2.5-1.4-5.6-1.8-7.8-3.5
	c-1.8-1.4-4.1-4.6-3.6-6.1c1.1-3,4-0.9,6.1-0.1c2.9,1.2,5.6,2.7,8.4,4.1c-6.2-4-12.2-8.3-20.1-8C87.4,2.6,77.2,2.4,67,2.3
	c-7.3,0-12.6,4.3-18.5,7.6c3.8-1.4,7.5-3.2,11.3-4.7C60.7,4.8,62.5,5,63,5.7c0.5,0.7,0.4,2.7-0.2,3.4c-1.4,1.6-3.2,3-5.1,4.1
	c-4.7,2.6-9.6,4.8-14.1,7.6c-4.1,2.5-6.2,6.6-6.2,11.4c0,16.7,0.2,33.5,0.5,50.2c0,1.5,1.4,3,2.2,4.5c0.3-0.1,0.7-0.3,1-0.4
	c1.2-5.6,5.7-8,10.4-9.2c7.6-1.9,15.3-3.6,23.1-4.2c13.5-1.1,27-0.4,40,4C119.5,78.7,123.9,80.9,125.5,86.3z M52.6,157.7
	c-0.4,0-0.8,0-1.2,0c0,6.9,0.1,13.7,0,20.6c-0.1,5.9,0.8,7.2,6.7,8.1c5,0.8,10.1,1.4,15.2,1.8c12,1,24,0.4,35.8-1.9
	c5.6-1.1,6-2.2,6-7.9c0-19,0-38,0.4-56.9c0.1-6.9-0.2-8.8-7.2-9.5c-11.6-1.1-23.4-1.7-35.1-1.7c-6.1,0-12.3,1.5-18.4,2.7
	c-2.9,0.5-4,2.5-3.8,5.8C51.7,131.8,52.1,144.8,52.6,157.7z M50.8,112.7c10.4-5,21.5-4.6,32.4-4.6c11,0,22.2-0.4,32.7,4.8
	c0.4-1.1,0.8-1.9,1-2.9c1.9-6.7,3.5-13.5,5.6-20.1c1-3,0.3-5-2.3-6.1c-3.8-1.6-7.6-3.2-11.6-4c-15.2-3-30.5-3.2-45.8-0.9
	c-5.1,0.8-10.2,2.4-15.1,4.1c-2.5,0.8-5.1,2.6-4.3,5.7C45.7,96.6,48.3,104.5,50.8,112.7z M51,186.1c-0.9,1.6-1.8,3.2-2.7,4.8
	c-0.9,1.6-1.9,3.2-2.9,4.8c-4,6.3-3,9.4,3.8,12.4c0.9,0.4,1.8,0.8,2.8,1c16.4,4.5,33.1,4.7,49.7,2.6c6.1-0.8,12.1-2.8,17.9-4.9
	c4-1.5,4.9-5.4,2.8-9c-2.4-3.9-4.8-7.8-7.3-11.7C101.5,192,66,192,51,186.1z M123,208.2c-26.5,9-52.7,9-79,0.3
	c-2.8,6.5-1.2,9,5.9,9.7c21.7,2.3,43.3,2.6,65,0.1c10-1.2,8.2,0,8.3-9.7C123.1,208.3,123,208.1,123,208.2z M41.4,95.3
	c-1.3,3.4-3.1,6.2-3.2,8.9c-0.4,10.2-0.2,20.5,0,30.7c0,1.4,0.8,3.3,1.9,4.1c2.2,1.7,4.9,2.8,8,4.5C47.4,126.9,47.2,111.2,41.4,95.3
	z M126.1,95.9c-0.5,0.1-0.9,0.1-1.4,0.2c-5.4,15.1-5.8,30.7-6,46.6c8.5-2.3,9.7-3.8,9.7-11.6c0-7.5,0.3-15-0.1-22.5
	C128.1,104.4,126.9,100.2,126.1,95.9z M39.9,148.6c1.3,2,1.9,3.8,3.1,4.9c2.9,2.7,2.2,4.9-0.6,6.9c-3.6,2.7-4.7,6.3-4.5,10.8
	c0.2,4.7-0.6,9.4-0.9,14.1c-0.1,2.9,0,5.7,0,9.6c4.9-3.7,9.4-5.9,9.8-11.4c0.5-8.3,1-16.7,1.2-25.1c0.2-7,0-7-6.4-9.5
	C41.3,148.7,41.1,148.8,39.9,148.6z M129.1,194.2c0.2-3.3,0.6-6,0.5-8.7c-0.2-3.9-1.3-7.9-1.1-11.8c0.4-6-0.6-11.1-5.8-14.8
	c-1.8-1.3-1.5-2.8-0.1-4.4c1.4-1.6,2.4-3.6,3.9-5.8c-8.1,1.9-8.1,1.9-7.9,9.1c0.3,7.2,0.9,14.5,0.7,21.7
	C119.2,186.6,122.7,190.7,129.1,194.2z M125.1,218.8c-28.1,4.1-55.9,4.2-83.7,0c0.6,2.9,2.9,4,5.6,4.3c24,2.8,48.1,2.9,72.1,0
	C121.9,222.8,124.2,221.9,125.1,218.8z M14.2,183.4c5.8-5.6,11-11.6,17.1-16.4c5.9-4.7,4.6-10.2,4.3-16.7c-1.2,1.1-1.9,1.8-2.6,2.5
	c-6.6,7.5-13.2,14.9-19.8,22.4C10.1,178.8,10.2,179,14.2,183.4z M131.7,150.9c-1.3,6.2-2.3,11.6,3.4,16.2
	c6.2,4.9,11.5,10.9,17.2,16.4c4-4.3,4-4.6,0.8-8.3c-2-2.2-3.9-4.5-5.9-6.8C142,162.5,136.8,156.7,131.7,150.9z M24.4,104.8
	c-6.7,7.2-12.9,13.6-18.8,20.3c-1,1.1-0.9,3.3-1.3,4.9c0.4,0.1,0.8,0.2,1.3,0.4C12,122.4,20.9,116.3,24.4,104.8z M160.9,130.2
	c0.5-0.2,0.9-0.3,1.4-0.5c-0.3-1.4-0.2-3.2-1.1-4.2c-6-6.7-12.2-13.2-18.3-19.8C145.7,116.4,154.5,122.4,160.9,130.2z M39.6,214.4
	c0.5,0,1-0.1,1.5-0.1c0-3.9-0.1-7.8,0-11.6c0.1-1.8,0.4-3.7,1.1-5.3c1-2.2,2.5-4.1,3.8-6.2c-3.3,1.5-5.9,3.4-8.5,5.4
	c-0.4,0.3-0.5,1.2-0.4,1.7C37.9,203.6,38.8,209,39.6,214.4z M162.7,179.9c0.3-0.3,0.5-0.5,0.8-0.8c-10.1-11.6-20.1-23.3-30.2-34.9
	c-0.4,0.4-0.9,0.8-1.3,1.2C142.2,156.9,152.4,168.4,162.7,179.9z M34.6,145.3c-0.4-0.4-0.9-0.7-1.3-1.1c-8.3,9.5-16.5,19-24.8,28.6
	c0.3,0.3,0.6,0.5,0.9,0.8C17.8,164.2,26.2,154.8,34.6,145.3z M136.4,111.1c-0.5-3.9-0.9-7-1.4-10.1c-0.1-0.5-0.7-1-1.2-1.4
	c-2-1.3-4-2.4-6-3.7c-0.3,0.2-0.5,0.5-0.8,0.7C130,101.2,133,105.8,136.4,111.1z M32.1,100.1c-0.5,3.4-1,6.1-1.4,8.9
	c0.2,0.1,0.4,0.2,0.6,0.3c2.7-4.2,5.4-8.5,8.2-12.7c-0.3-0.2-0.6-0.4-0.9-0.6C36.2,97.5,33.8,99,32.1,100.1z M30.1,103.8
	c-0.4-0.2-0.8-0.4-1.2-0.6c-1.8,3.5-3.4,7.1-5.4,10.4c-2,3.3-4.6,6.2-6.9,9.3c0.3,0.2,0.6,0.4,0.9,0.6
	C23.2,117.9,27.4,111.3,30.1,103.8z M136.8,103c0.6,6.6,9.1,19,12.4,19.7C145.3,116.6,141.2,110,136.8,103z M157.7,118.6
	c0.3-0.2,0.6-0.5,0.9-0.7c-6.4-6.8-12.7-13.6-19.1-20.4c-0.3,0.3-0.6,0.5-0.8,0.8C145,105,151.3,111.8,157.7,118.6z M100.7,75.8
	c0-0.1,0-0.2,0-0.4c-8.2-0.4-16.5-0.8-24.7-1.2c0,0.5,0,1-0.1,1.5C84.3,75.8,92.5,75.8,100.7,75.8z M119.6,16
	c-3.7-4-8.6-5.5-13.4-7.3c-0.2,0.3-0.3,0.7-0.5,1C110.3,11.8,115,13.9,119.6,16z M60.7,9.6c-7.3,0.9-12.6,3.8-13.6,6.4
	C51.6,13.9,56.2,11.7,60.7,9.6z M38.7,88.1c-2.1,3.4-3.7,6-5.9,9.5C36.6,95.1,39.7,93.4,38.7,88.1z M133.2,96.7
	c-1.8-3.1-3.2-5.6-4.9-8.6C127,92.5,128.2,94.4,133.2,96.7z M155.8,184.9c0.2,0.4,0.4,0.8,0.6,1.2c1-0.5,2.6-0.7,2.9-1.4
	c0.4-1-0.3-2.4-0.5-3.6c-0.3,0-0.7,0.1-1,0.1C157.1,182.4,156.4,183.6,155.8,184.9z"/>
</svg>
