<?xml version="1.0" encoding="utf-8"?>
<!-- Generator: Adobe Illustrator 21.0.0, SVG Export Plug-In . SVG Version: 6.00 Build 0)  -->
<svg version="1.1" id="Layer_1" xmlns="http://www.w3.org/2000/svg" xmlns:xlink="http://www.w3.org/1999/xlink" x="0px" y="0px"
	 viewBox="0 0 181 200.1" style="enable-background:new 0 0 181 200.1;" xml:space="preserve">
<path d="M62.6,107.7c5.4-6,11.2-11.9,16.4-18.2c13.8-16.5,24.4-35,32.7-54.8c1.1-2.7,0-3.7-1.7-5.3c-6.9-6.2-7.7-16.3-2-23.3
	c5.6-6.8,15.6-8.1,22.9-2.8c9.7,6.9,8.3,22.5-2.3,28.4c-1.8,1-3.7,2.8-4.3,4.6c-10.6,30.1-26.9,56.5-49.5,79c-0.9,0.9-1.7,2.9-1.4,4
	c0.6,2,2.1,2.8,4.2,0.8c8.6-7.9,17.3-15.6,25.9-23.4c9.6-8.7,19.3-17.4,28.8-26.2c1.4-1.3,2.7-3.4,2.9-5.3c0.9-7.1,4.4-12,11.2-14
	c6.5-2,12.8-0.9,17.5,4.5c4.8,5.5,5.6,11.8,2.6,18.5c-3.5,7.7-12.2,11.3-20.5,8.3c-2.5-0.9-4.1-0.7-6,1.1
	c-17.3,15.5-34.7,30.9-52.1,46.3c-0.7,0.6-1.3,1.4-1.9,2.1c3.2,5.3,3.7,5.3,8,1.6c13.7-11.8,29.3-19.2,47.2-21.9
	c2.4-0.4,5-1.6,6.9-3.1c7.6-5.8,18.6-4.5,23.9,3.2c5.3,7.6,3.2,18.8-4.4,23.5c-8.2,5.1-18.5,2.6-23.2-5.9c-1.2-2.1-2.6-2.8-4.8-2.4
	c-13.8,2.9-25.9,9-35.9,19c-0.8,0.7-0.9,3-0.3,4c1.5,2.6,3.5,4.9,5.3,7.2c1.3,1.7,1.3,3-0.3,4.6c-10.8,10.6-21.6,21.2-32.3,31.9
	c-2.2,2.2-3.3,0.8-4.7-0.8c-10-11.2-19.6-22.7-30.1-33.3c-11.6-11.7-23.9-22.7-36-33.9c-2.6-2.3-3.2-3.7-0.4-6.5
	c9.8-10.1,19.5-20.3,29.1-30.7c2.2-2.3,3.8-2.3,6.4-0.6c7.1,4.7,7.2,4.6,11.6-2.7c5-8.4,7.8-17.5,8.6-27.3c0.1-1.3-1.1-3.2-2.3-4.1
	c-5.8-4.6-8.1-10.4-6.6-17.5c1.6-7.5,6.6-11.7,14.3-12.9c6.9-1,14,2.9,16.9,9.3c3.1,6.9,1.7,15.7-4,19.8c-3.3,2.4-4.2,5.2-4.7,9
	c-1.4,13.6-6.1,26.2-14,37.5C57,103.6,57.1,104.1,62.6,107.7z M160.2,66.1c0.1-4-3.6-7.7-7.5-7.8c-4.3-0.1-8.1,3.5-8.1,7.7
	c0,4.1,3.7,7.6,7.7,7.7C156.2,73.6,160.1,70,160.2,66.1z M75.7,39.9c0.1-3.8-3.8-7.7-7.7-7.9c-3.8-0.1-7.7,3.7-7.8,7.7
	c-0.1,4.2,3.6,8,7.8,8C72,47.7,75.7,43.9,75.7,39.9z"/>
</svg>
