<?xml version="1.0" encoding="utf-8"?>
<!-- Generator: Adobe Illustrator 21.0.0, SVG Export Plug-In . SVG Version: 6.00 Build 0)  -->
<svg version="1.1" id="Layer_1" xmlns="http://www.w3.org/2000/svg" xmlns:xlink="http://www.w3.org/1999/xlink" x="0px" y="0px"
	 viewBox="0 0 516.1 483" style="enable-background:new 0 0 516.1 483;" xml:space="preserve">
<g>
	<polygon points="83.3,131.7 367.1,131.7 247.7,238.1 378.1,238.1 498.2,131.7 498.6,50.6 166.4,52.6 	"/>
	<polygon points="159.6,49.2 101.8,13.4 20,95.1 80.9,131.7 	"/>
	<polygon points="498.6,49.2 437.7,12.5 104.6,12.5 166.5,46.7 	"/>
	<polygon points="261.2,133.3 184.2,201.5 245,238.1 353.4,136.4 	"/>
	<polygon points="332.3,279.7 200,282.6 83.2,388.5 80.2,468.2 414.3,468.2 495.8,386.9 212.6,386.7 	"/>
	<polygon points="200.5,277.4 332,278.8 272,242.6 139.3,242.6 	"/>
	<polygon points="138.8,242.8 19,348.9 80,383.3 195,279.3 	"/>
	<path d="M18.8,349.2l-0.4,82.3l60,36l-1.6-78.9C65.7,381.2,42.7,365.4,18.8,349.2z"/>
	<path d="M495.4,384.7L436.1,349l-178.9,0c-0.1-0.1-37.7,35.4-37.7,35.4L495.4,384.7z"/>
</g>
</svg>
